<svg width="200" height="40" viewBox="0 0 200 40" fill="none" xmlns="http://www.w3.org/2000/svg">
<g clip-path="url(#clip0_3_19)">
<mask id="mask0_3_19" style="mask-type:luminance" maskUnits="userSpaceOnUse" x="0" y="0" width="201" height="40">
<g clip-path="url(#clip1_3_19)">
<g clip-path="url(#clip2_3_19)">
<g clip-path="url(#clip3_3_19)">
<g clip-path="url(#clip4_3_19)">
<g clip-path="url(#clip5_3_19)">
<g clip-path="url(#clip6_3_19)">
<path d="M64.5299 12.4312C65.4401 12.4312 66.394 12.4631 67.3916 12.527C68.3853 12.5908 69.3942 12.7186 70.4182 12.9102C70.4182 12.9102 70.4524 13.0731 70.5207 13.3988C70.5851 13.7278 70.6553 14.111 70.7312 14.5485C70.807 14.9892 70.8791 15.3884 70.9473 15.7461C71.0118 16.107 71.0441 16.3194 71.0441 16.3832C71.063 16.4471 71.0061 16.511 70.8734 16.5749C70.7406 16.6387 70.5984 16.6707 70.4467 16.6707C70.3139 16.6707 70.2002 16.6467 70.1053 16.5988C70.0674 16.4232 69.9783 16.1517 69.8379 15.7844C69.6938 15.4172 69.4378 15.0339 69.0699 14.6347C68.6982 14.2355 68.1615 13.8954 67.4598 13.6144C66.7582 13.3365 65.8289 13.1976 64.6721 13.1976C63.648 13.1976 62.7188 13.3924 61.8844 13.7821C61.0499 14.1749 60.335 14.7018 59.7395 15.3629C59.1402 16.0272 58.6851 16.7617 58.3741 17.5665C58.0593 18.3745 57.9019 19.1856 57.9019 20C57.9019 20.9102 58.0498 21.8044 58.3456 22.6826C58.6377 23.5609 59.0833 24.3545 59.6826 25.0635C60.2781 25.7756 61.0272 26.3425 61.9299 26.7641C62.8288 27.1888 63.8851 27.4012 65.0988 27.4012C65.9522 27.4012 66.6785 27.2894 67.2778 27.0659C67.8732 26.8423 68.3701 26.5788 68.7684 26.2754C69.3183 25.8603 69.7166 25.3972 69.9631 24.8862C70.2096 24.3752 70.3803 23.9281 70.4751 23.5449C70.7975 23.513 71.0915 23.5768 71.357 23.7365C71.357 23.8483 71.3247 24.0719 71.2603 24.4072C71.192 24.7425 71.1104 25.105 71.0156 25.4946C70.9208 25.8874 70.8165 26.2355 70.7027 26.5389C70.5889 26.8423 70.4846 27.0339 70.3898 27.1138C69.6312 27.4651 68.7684 27.7285 67.8012 27.9042C66.834 28.0798 65.7056 28.1677 64.4161 28.1677C63.0507 28.1677 61.799 27.9633 60.6612 27.5545C59.5233 27.1489 58.5429 26.59 57.7198 25.8778C56.893 25.1689 56.2577 24.3545 55.8139 23.4347C55.3664 22.5182 55.1426 21.5409 55.1426 20.503C55.1426 19.4012 55.3758 18.3665 55.8424 17.3988C56.3051 16.4343 56.9537 15.5769 57.7881 14.8264C58.6225 14.0759 59.6143 13.4882 60.7636 13.0635C61.909 12.6419 63.1644 12.4312 64.5299 12.4312ZM74.9981 25.3174V14.9701C74.9981 14.7944 74.9924 14.5821 74.981 14.333C74.9734 14.087 74.9317 13.8922 74.8559 13.7485C74.78 13.5729 74.5752 13.4611 74.2414 13.4132C73.9115 13.3653 73.5568 13.3413 73.1775 13.3413C73.1586 13.3413 73.1434 13.2407 73.132 13.0395C73.1244 12.8415 73.1491 12.7346 73.206 12.7186C73.9077 12.6547 74.5904 12.5381 75.2541 12.3689C75.9179 12.2028 76.5437 12.008 77.1316 11.7845C77.2074 11.7845 77.2776 11.8276 77.3421 11.9138C77.4103 12.0032 77.4445 12.0878 77.4445 12.1677C77.4445 12.1677 77.3914 12.3433 77.2852 12.6946C77.1828 13.0459 77.1316 13.5489 77.1316 14.2036V25.3174C77.1316 25.6687 77.1354 25.996 77.143 26.2994C77.1543 26.6028 77.198 26.8503 77.2738 27.0419C77.3117 27.1217 77.4483 27.1936 77.6834 27.2575C77.9224 27.3213 78.1784 27.3645 78.4515 27.3868C78.7284 27.4124 78.9237 27.4251 79.0375 27.4251C79.0944 27.489 79.1266 27.6008 79.1342 27.7605C79.1456 27.9201 79.1133 28.0319 79.0375 28.0958C78.4685 28.0639 77.966 28.0351 77.5298 28.0096C77.0936 27.9872 76.6006 27.976 76.0506 27.976C75.5196 27.976 75.0398 27.9872 74.6112 28.0096C74.1864 28.0351 73.6896 28.0639 73.1206 28.0958C73.0448 28.0319 73.0107 27.9201 73.0182 27.7605C73.0296 27.6008 73.0638 27.489 73.1206 27.4251C73.2344 27.4251 73.4241 27.4124 73.6896 27.3868C73.9551 27.3645 74.2111 27.3213 74.4576 27.2575C74.7042 27.1936 74.8369 27.1217 74.8559 27.0419C74.9317 26.8503 74.9734 26.6028 74.981 26.2994C74.9924 25.996 74.9981 25.6687 74.9981 25.3174ZM86.6611 17.7485C87.8938 17.7485 88.9501 17.9721 89.83 18.4192C90.7137 18.8663 91.3965 19.4731 91.8781 20.2395C92.3636 21.006 92.6064 21.8762 92.6064 22.8503C92.6064 23.8563 92.3484 24.7617 91.8326 25.5665C91.3244 26.3744 90.6246 27.0132 89.7333 27.4826C88.842 27.9553 87.8369 28.1916 86.718 28.1916C85.5043 28.1916 84.4461 27.9649 83.5434 27.5114C82.6445 27.0547 81.9523 26.4383 81.4668 25.6623C80.9851 24.8894 80.7443 24.016 80.7443 23.0419C80.7443 22.0359 81.0041 21.1337 81.5237 20.3353C82.0471 19.5369 82.7545 18.9062 83.6458 18.4431C84.5371 17.9801 85.5422 17.7485 86.6611 17.7485ZM86.3482 18.5389C85.5706 18.5389 84.9448 18.7353 84.4707 19.1282C83.9966 19.5178 83.6553 20.0192 83.4467 20.6323C83.238 21.2487 83.1337 21.8922 83.1337 22.5629C83.1337 23.3134 83.2798 24.0639 83.5718 24.8144C83.8677 25.5649 84.3038 26.1876 84.8803 26.6826C85.4607 27.1776 86.168 27.4251 87.0024 27.4251C87.7989 27.4251 88.4286 27.2287 88.8913 26.8359C89.3578 26.4463 89.6954 25.9401 89.904 25.3174C90.1126 24.6946 90.2169 24.0559 90.2169 23.4012C90.2169 22.6347 90.0652 21.8794 89.7617 21.1353C89.4583 20.3944 89.0221 19.7765 88.4532 19.2814C87.8843 18.7864 87.1826 18.5389 86.3482 18.5389ZM98.1762 14.8503V17.9162H101.76C101.855 17.9162 101.903 18.004 101.903 18.1797C101.903 18.4192 101.77 18.6507 101.504 18.8743H98.1762V25.006C98.1762 26.2834 98.7925 26.9221 100.025 26.9221C100.442 26.9221 100.822 26.8503 101.163 26.7066C101.504 26.5629 101.722 26.4591 101.817 26.3952C101.874 26.4112 101.903 26.4591 101.903 26.5389C101.903 26.7146 101.865 26.8343 101.789 26.8982C101.656 27.0259 101.453 27.1936 101.18 27.4012C100.903 27.6088 100.575 27.7924 100.196 27.9521C99.8166 28.1118 99.3993 28.1916 98.9442 28.1916C98.4701 28.1916 98.0112 28.1197 97.5674 27.976C97.1198 27.8323 96.7538 27.5768 96.4694 27.2096C96.1849 26.8423 96.0427 26.3233 96.0427 25.6527V18.8743H94.4212C94.3833 18.8743 94.3549 18.8455 94.3359 18.788C94.3169 18.7337 94.3075 18.6906 94.3075 18.6587C94.3075 18.6268 94.3643 18.5501 94.4781 18.4288C94.5919 18.3106 94.7114 18.1956 94.8366 18.0838C94.9579 17.9721 95.0186 17.9162 95.0186 17.9162H96.0427V16.4551C96.2323 16.2795 96.4561 16.0751 96.714 15.8419C96.9681 15.612 97.1995 15.3964 97.4081 15.1952C97.6167 14.9972 97.7305 14.8902 97.7495 14.8743C97.8253 14.8104 97.9163 14.7785 98.0225 14.7785C98.125 14.7785 98.1762 14.8024 98.1762 14.8503ZM110.892 17.7725C111.897 17.7725 112.655 17.9481 113.167 18.2994C113.679 18.6507 114.026 19.1936 114.208 19.9282C114.387 20.6627 114.476 21.5968 114.476 22.7305V25.3174C114.476 25.6687 114.482 25.996 114.493 26.2994C114.501 26.6028 114.542 26.8503 114.618 27.0419C114.656 27.1217 114.794 27.1936 115.033 27.2575C115.269 27.3213 115.525 27.3645 115.801 27.3868C116.075 27.4124 116.268 27.4251 116.382 27.4251C116.439 27.489 116.473 27.6008 116.484 27.7605C116.492 27.9201 116.458 28.0319 116.382 28.0958C115.813 28.0639 115.31 28.0351 114.874 28.0096C114.438 27.9872 113.945 27.976 113.395 27.976C112.864 27.976 112.386 27.9872 111.961 28.0096C111.533 28.0351 111.034 28.0639 110.465 28.0958C110.389 28.0319 110.357 27.9201 110.368 27.7605C110.376 27.6008 110.408 27.489 110.465 27.4251C110.579 27.4251 110.768 27.4124 111.034 27.3868C111.299 27.3645 111.555 27.3213 111.802 27.2575C112.048 27.1936 112.181 27.1217 112.2 27.0419C112.276 26.8503 112.32 26.6028 112.331 26.2994C112.339 25.996 112.342 25.6687 112.342 25.3174V22.9701C112.342 21.996 112.267 21.2327 112.115 20.6802C111.963 20.1309 111.688 19.7365 111.29 19.497C110.892 19.2575 110.332 19.1377 109.612 19.1377C109.27 19.1377 108.897 19.2288 108.491 19.4108C108.081 19.596 107.725 19.7924 107.421 20C107.118 20.2076 106.966 20.3513 106.966 20.4311V25.3174C106.966 25.6687 106.972 25.996 106.983 26.2994C106.991 26.6028 107.032 26.8503 107.108 27.0419C107.146 27.1217 107.285 27.1936 107.524 27.2575C107.759 27.3213 108.015 27.3645 108.292 27.3868C108.565 27.4124 108.758 27.4251 108.872 27.4251C108.929 27.489 108.963 27.6008 108.974 27.7605C108.982 27.9201 108.948 28.0319 108.872 28.0958C108.303 28.0639 107.8 28.0351 107.364 28.0096C106.928 27.9872 106.435 27.976 105.885 27.976C105.354 27.976 104.876 27.9872 104.451 28.0096C104.023 28.0351 103.524 28.0639 102.955 28.0958C102.879 28.0319 102.847 27.9201 102.858 27.7605C102.866 27.6008 102.898 27.489 102.955 27.4251C103.069 27.4251 103.259 27.4124 103.524 27.3868C103.79 27.3645 104.046 27.3213 104.292 27.2575C104.539 27.1936 104.671 27.1217 104.69 27.0419C104.766 26.8503 104.81 26.6028 104.821 26.2994C104.829 25.996 104.833 25.6687 104.833 25.3174V14.9701C104.833 14.8104 104.829 14.6028 104.821 14.3473C104.81 14.0918 104.766 13.8922 104.69 13.7485C104.615 13.5729 104.412 13.4611 104.082 13.4132C103.748 13.3653 103.391 13.3413 103.012 13.3413C102.993 13.3413 102.98 13.2407 102.972 13.0395C102.961 12.8415 102.984 12.7346 103.04 12.7186C103.742 12.6547 104.425 12.5381 105.089 12.3689C105.752 12.2028 106.378 12.008 106.966 11.7845C107.042 11.7845 107.114 11.8276 107.182 11.9138C107.247 12.0032 107.279 12.0878 107.279 12.1677C107.279 12.1677 107.228 12.3433 107.125 12.6946C107.019 13.0459 106.966 13.5489 106.966 14.2036V19.497C106.966 19.5289 106.995 19.5449 107.051 19.5449C107.07 19.5449 107.099 19.5289 107.137 19.497C107.326 19.3214 107.636 19.0978 108.064 18.8264C108.489 18.5549 108.957 18.3106 109.469 18.0934C109.981 17.8795 110.455 17.7725 110.892 17.7725ZM119.738 22.2275C119.719 23.2176 119.919 24.0479 120.336 24.7186C120.753 25.3892 121.312 25.8874 122.014 26.2132C122.716 26.5421 123.474 26.7066 124.29 26.7066C124.802 26.7066 125.267 26.6299 125.684 26.4766C126.101 26.3265 126.452 26.1509 126.736 25.9497C127.021 25.7517 127.22 25.5968 127.334 25.485C127.353 25.485 127.394 25.5122 127.459 25.5665C127.527 25.6239 127.561 25.7006 127.561 25.7964C127.561 25.9241 127.504 26.0679 127.391 26.2275C127.22 26.4511 126.954 26.7178 126.594 27.0275C126.234 27.3405 125.779 27.6168 125.229 27.8563C124.679 28.0958 124.043 28.2156 123.323 28.2156C122.242 28.2156 121.284 28 120.45 27.5689C119.615 27.1377 118.961 26.5549 118.487 25.8204C118.013 25.0858 117.776 24.2635 117.776 23.3533C117.776 22.5709 117.941 21.8395 118.271 21.1593C118.604 20.4822 119.041 19.8914 119.579 19.3868C120.122 18.8854 120.715 18.491 121.36 18.2036C122.005 17.9162 122.63 17.7725 123.237 17.7725C124.072 17.7725 124.758 17.8922 125.297 18.1317C125.839 18.3713 126.266 18.6667 126.577 19.018C126.892 19.3693 127.11 19.7206 127.231 20.0719C127.356 20.4232 127.419 20.7186 127.419 20.9581C127.419 21.2934 127.372 21.5569 127.277 21.7485C127.182 21.9401 127.002 22.0439 126.736 22.0599C126.566 22.0758 126.228 22.087 125.724 22.0934C125.223 22.103 124.65 22.1158 124.005 22.1317C123.361 22.1477 122.725 22.1637 122.1 22.1796C121.474 22.1956 120.943 22.2068 120.507 22.2132C120.07 22.2228 119.814 22.2275 119.738 22.2275ZM119.881 21.3653H124.404C124.574 21.3653 124.72 21.3254 124.842 21.2455C124.967 21.1657 125.039 21.022 125.058 20.8144C125.077 20.6228 125.011 20.3513 124.859 20C124.707 19.6487 124.464 19.3293 124.131 19.0419C123.801 18.7545 123.351 18.6108 122.782 18.6108C122.194 18.6108 121.711 18.7497 121.331 19.0276C120.952 19.3086 120.653 19.628 120.433 19.9856C120.216 20.3465 120.065 20.6659 119.977 20.9437C119.894 21.2248 119.862 21.3653 119.881 21.3653ZM133.108 12.6467C133.582 12.6467 134 12.634 134.36 12.6084C134.72 12.586 135.052 12.5669 135.355 12.5509C135.469 12.8543 135.682 13.3254 135.993 13.9641C136.307 14.6028 136.677 15.3565 137.102 16.2252C137.531 17.097 137.991 18.02 138.485 18.994C138.978 19.9681 139.461 20.9373 139.935 21.9018C140.409 22.8695 140.846 23.7685 141.244 24.5988C141.263 24.6307 141.301 24.6467 141.358 24.6467C141.415 24.6467 141.452 24.6148 141.471 24.5509C142.021 23.3693 142.514 22.3026 142.951 21.3509C143.387 20.4024 143.827 19.4523 144.271 18.5006C144.718 17.5521 145.207 16.503 145.738 15.3533C145.909 14.986 146.089 14.5868 146.279 14.1557C146.468 13.7246 146.63 13.3493 146.762 13.03C146.895 12.7106 146.962 12.5509 146.962 12.5509C147.853 12.5988 148.583 12.6228 149.152 12.6228C149.645 12.6228 150.199 12.6148 150.813 12.5988C151.431 12.5829 151.911 12.5669 152.253 12.5509C152.272 12.5829 152.291 12.7026 152.309 12.9102C152.328 13.1178 152.338 13.2216 152.338 13.2216C152.205 13.2216 151.991 13.2375 151.695 13.2695C151.403 13.3014 151.124 13.3493 150.859 13.4132C150.593 13.4771 150.432 13.5489 150.375 13.6288C150.318 13.7405 150.28 13.8843 150.261 14.0599C150.242 14.2355 150.233 14.3952 150.233 14.5389C150.252 14.9381 150.271 15.5449 150.29 16.3593C150.309 17.1737 150.332 18.087 150.358 19.0994C150.388 20.115 150.417 21.1178 150.443 22.1078C150.474 23.0978 150.498 23.976 150.517 24.7425C150.536 25.1896 150.565 25.6128 150.603 26.012C150.641 26.4112 150.726 26.7465 150.859 27.018C150.916 27.1297 151.086 27.2128 151.371 27.2671C151.655 27.3245 151.943 27.3645 152.236 27.3868C152.531 27.4124 152.717 27.4251 152.793 27.4251C152.869 27.5369 152.901 27.6679 152.89 27.818C152.882 27.9712 152.869 28.0639 152.85 28.0958C152.3 28.0639 151.763 28.0351 151.24 28.0096C150.72 27.9872 150.157 27.976 149.55 27.976C148.905 27.976 148.346 27.9872 147.872 28.0096C147.398 28.0351 146.838 28.0639 146.194 28.0958C146.175 28.0639 146.156 27.9681 146.137 27.8084C146.118 27.6487 146.137 27.5209 146.194 27.4251C146.307 27.4251 146.487 27.4124 146.734 27.3868C146.981 27.3645 147.227 27.3325 147.474 27.291C147.72 27.2527 147.9 27.2096 148.014 27.1617C148.109 27.1138 148.175 26.978 148.213 26.7545C148.251 26.5309 148.27 26.3393 148.27 26.1796C148.27 26.004 148.261 25.7756 148.242 25.4946C148.223 25.2168 148.213 24.99 148.213 24.8144C148.175 23.6806 148.137 22.59 148.099 21.5425C148.061 20.4982 148.024 19.4284 147.986 18.3329C147.948 17.2407 147.9 16.0639 147.843 14.8024C147.843 14.7545 147.824 14.6667 147.787 14.5389C147.749 14.4112 147.682 14.3473 147.587 14.3473C147.549 14.3473 147.502 14.4032 147.445 14.515C146.876 15.7126 146.349 16.8224 145.864 17.8443C145.382 18.8663 144.913 19.8515 144.458 20.8C144.003 21.7517 143.542 22.7178 143.076 23.6982C142.613 24.6818 142.116 25.7405 141.585 26.8742C141.547 26.9381 141.462 27.0659 141.329 27.2575C141.196 27.4491 141.058 27.6279 140.914 27.794C140.774 27.9633 140.646 28.0559 140.533 28.0718C140.495 28.0878 140.428 28.0798 140.334 28.0479C140.315 28.0319 140.296 28.0239 140.277 28.0239L133.506 14.3713C133.487 15.3932 133.459 16.4471 133.421 17.5329C133.383 18.6188 133.349 19.6727 133.319 20.6946C133.292 21.7166 133.264 22.6379 133.233 23.4587C133.207 24.2826 133.184 24.9453 133.165 25.4467C133.146 25.9513 133.137 26.2275 133.137 26.2754C133.137 26.3872 133.146 26.5102 133.165 26.6443C133.184 26.7816 133.213 26.8982 133.25 26.994C133.307 27.1058 133.501 27.1936 133.831 27.2575C134.165 27.3213 134.502 27.3645 134.843 27.3868C135.185 27.4124 135.393 27.4251 135.469 27.4251C135.545 27.489 135.574 27.6088 135.555 27.7844C135.536 27.9601 135.517 28.0639 135.498 28.0958C134.948 28.0639 134.474 28.0351 134.075 28.0096C133.677 27.9872 133.175 27.976 132.568 27.976C131.923 27.976 131.382 27.9872 130.946 28.0096C130.51 28.0351 129.97 28.0639 129.325 28.0958C129.306 28.0639 129.287 27.9681 129.268 27.8084C129.249 27.6487 129.268 27.5209 129.325 27.4251C129.439 27.4251 129.661 27.4092 129.991 27.3772C130.324 27.3453 130.652 27.2974 130.975 27.2335C131.297 27.1697 131.496 27.0898 131.572 26.994C131.705 26.8343 131.79 26.6619 131.828 26.4766C131.866 26.2946 131.895 26.0758 131.913 25.8204C131.97 24.4152 132.022 23.0659 132.067 21.7725C132.116 20.479 132.154 19.3166 132.181 18.285C132.211 17.2567 132.236 16.4184 132.255 15.7701C132.274 15.125 132.283 14.7465 132.283 14.6347C132.283 14.4591 132.278 14.2914 132.266 14.1318C132.259 13.9721 132.226 13.8284 132.169 13.7006C132.132 13.6048 131.974 13.5202 131.697 13.4467C131.424 13.3765 131.14 13.3206 130.844 13.2791C130.552 13.2407 130.349 13.2216 130.235 13.2216C130.216 13.2216 130.207 13.113 130.207 12.8958C130.207 12.6819 130.216 12.5669 130.235 12.5509C130.671 12.5669 131.022 12.5829 131.288 12.5988C131.553 12.6148 131.819 12.626 132.084 12.6324C132.35 12.6419 132.691 12.6467 133.108 12.6467ZM160.24 17.8204C160.771 17.8204 161.27 17.9641 161.737 18.2515C162.199 18.5389 162.573 18.9222 162.857 19.4012C163.142 19.8802 163.284 20.4232 163.284 21.0299V25.8443C163.284 26.1477 163.35 26.4064 163.483 26.6204C163.616 26.8375 163.834 26.9461 164.137 26.9461C164.403 26.9461 164.612 26.8982 164.763 26.8024C164.915 26.7066 165.01 26.6507 165.048 26.6347C165.086 26.6347 165.114 26.6587 165.133 26.7066C165.152 26.7545 165.162 26.7944 165.162 26.8263C165.162 27.002 165.114 27.1537 165.019 27.2814C164.905 27.3613 164.722 27.473 164.467 27.6168C164.21 27.7605 163.944 27.8882 163.671 28C163.394 28.1118 163.151 28.1677 162.943 28.1677C162.544 28.1677 162.19 28 161.879 27.6647C161.564 27.3293 161.359 26.986 161.264 26.6347C161.189 26.6986 161.014 26.8184 160.741 26.994C160.464 27.1697 160.145 27.3485 159.785 27.5305C159.425 27.7158 159.07 27.8754 158.721 28.0096C158.369 28.1469 158.069 28.2156 157.822 28.2156C156.912 28.2156 156.144 27.9553 155.518 27.4347C154.892 26.9174 154.579 26.2834 154.579 25.5329C154.579 25.0539 154.737 24.6419 155.052 24.297C155.363 23.9553 155.67 23.7365 155.973 23.6407C156.504 23.481 157.098 23.3086 157.754 23.1234C158.406 22.9413 159.017 22.7625 159.586 22.5868C160.155 22.4112 160.572 22.2754 160.838 22.1796C160.989 22.1317 161.084 22.0711 161.122 21.9976C161.16 21.9273 161.179 21.7884 161.179 21.5808V20.9581C161.179 20.6068 161.075 20.2587 160.866 19.9138C160.658 19.5721 160.373 19.2846 160.013 19.0515C159.652 18.8216 159.245 18.7066 158.79 18.7066C158.315 18.7066 157.965 18.8343 157.737 19.0898C157.509 19.3453 157.348 19.7046 157.253 20.1677C157.083 20.9182 156.647 21.2934 155.945 21.2934C155.641 21.2934 155.41 21.1896 155.251 20.982C155.088 20.7745 155.006 20.5509 155.006 20.3114C155.006 20.2635 155.025 20.1709 155.063 20.0335C155.101 19.8994 155.148 19.8004 155.205 19.7365C155.49 19.513 155.898 19.2495 156.428 18.9461C156.959 18.6427 157.563 18.3793 158.238 18.1557C158.909 17.9321 159.577 17.8204 160.24 17.8204ZM158.761 26.9461C159.083 26.9461 159.434 26.8822 159.814 26.7545C160.193 26.6267 160.515 26.4862 160.781 26.3329C161.046 26.1828 161.179 26.0679 161.179 25.988V22.8024C160.819 22.8982 160.364 23.018 159.814 23.1617C159.264 23.3054 158.856 23.4172 158.59 23.497C158.097 23.6567 157.69 23.8882 157.367 24.1916C157.045 24.495 156.884 24.8703 156.884 25.3174C156.884 25.7485 157.064 26.1269 157.424 26.4527C157.784 26.7816 158.23 26.9461 158.761 26.9461ZM169.94 14.8503V17.9162H173.525C173.62 17.9162 173.667 18.004 173.667 18.1797C173.667 18.4192 173.534 18.6507 173.269 18.8743H169.94V25.006C169.94 26.2834 170.557 26.9221 171.79 26.9221C172.207 26.9221 172.586 26.8503 172.927 26.7066C173.269 26.5629 173.487 26.4591 173.582 26.3952C173.639 26.4112 173.667 26.4591 173.667 26.5389C173.667 26.7146 173.629 26.8343 173.553 26.8982C173.42 27.0259 173.218 27.1936 172.944 27.4012C172.668 27.6088 172.339 27.7924 171.96 27.9521C171.581 28.1118 171.164 28.1916 170.709 28.1916C170.234 28.1916 169.776 28.1197 169.332 27.976C168.884 27.8323 168.518 27.5768 168.234 27.2096C167.949 26.8423 167.807 26.3233 167.807 25.6527V18.8743H166.186C166.148 18.8743 166.119 18.8455 166.1 18.788C166.081 18.7337 166.072 18.6906 166.072 18.6587C166.072 18.6268 166.129 18.5501 166.242 18.4288C166.356 18.3106 166.476 18.1956 166.601 18.0838C166.722 17.9721 166.783 17.9162 166.783 17.9162H167.807V16.4551C167.997 16.2795 168.22 16.0751 168.478 15.8419C168.732 15.612 168.964 15.3964 169.172 15.1952C169.381 14.9972 169.495 14.8902 169.514 14.8743C169.59 14.8104 169.681 14.7785 169.787 14.7785C169.889 14.7785 169.94 14.8024 169.94 14.8503ZM184.733 18.994C184.733 19.4092 184.619 19.6998 184.391 19.8659C184.164 20.0351 183.927 20.1198 183.68 20.1198C183.377 20.1198 183.092 20.008 182.827 19.7844C182.561 19.5609 182.305 19.3852 182.059 19.2575C181.755 19.0818 181.509 18.9621 181.319 18.8982C181.129 18.8343 180.854 18.8024 180.494 18.8024C180.001 18.8024 179.512 18.9573 179.026 19.2671C178.545 19.58 178.146 20.024 177.831 20.5988C177.52 21.1737 177.365 21.8762 177.365 22.7066C177.365 24.0639 177.801 25.0619 178.674 25.7006C179.546 26.3393 180.608 26.6587 181.859 26.6587C182.637 26.6587 183.276 26.507 183.777 26.2036C184.281 25.9002 184.628 25.6607 184.818 25.485C184.837 25.485 184.879 25.5122 184.943 25.5665C185.011 25.6239 185.045 25.7006 185.045 25.7964C185.045 25.9241 184.989 26.0679 184.875 26.2275C184.704 26.4511 184.439 26.7178 184.078 27.0275C183.718 27.3405 183.263 27.6168 182.713 27.8563C182.163 28.0958 181.528 28.2156 180.807 28.2156C179.688 28.2156 178.706 27.992 177.86 27.5449C177.018 27.0978 176.364 26.515 175.897 25.7964C175.434 25.0778 175.203 24.3114 175.203 23.497C175.203 22.6347 175.415 21.8555 175.84 21.1593C176.269 20.4663 176.819 19.8643 177.49 19.3533C178.165 18.8423 178.895 18.4511 179.681 18.1797C180.469 17.9082 181.224 17.7725 181.945 17.7725C182.969 17.7725 183.803 17.9641 184.448 18.3473C184.505 18.3952 184.566 18.483 184.63 18.6108C184.698 18.7385 184.733 18.8663 184.733 18.994ZM194.404 17.7725C195.409 17.7725 196.168 17.9481 196.68 18.2994C197.192 18.6507 197.537 19.1936 197.715 19.9282C197.898 20.6627 197.989 21.5968 197.989 22.7305V25.3174C197.989 25.6687 197.992 25.996 198 26.2994C198.011 26.6028 198.055 26.8503 198.131 27.0419C198.169 27.1217 198.305 27.1936 198.54 27.2575C198.779 27.3213 199.035 27.3645 199.308 27.3868C199.585 27.4124 199.781 27.4251 199.894 27.4251C199.951 27.489 199.984 27.6008 199.991 27.7605C200.003 27.9201 199.97 28.0319 199.894 28.0958C199.326 28.0639 198.823 28.0351 198.387 28.0096C197.951 27.9872 197.458 27.976 196.908 27.976C196.377 27.976 195.897 27.9872 195.468 28.0096C195.043 28.0351 194.547 28.0639 193.978 28.0958C193.902 28.0319 193.868 27.9201 193.875 27.7605C193.887 27.6008 193.921 27.489 193.978 27.4251C194.091 27.4251 194.281 27.4124 194.547 27.3868C194.812 27.3645 195.068 27.3213 195.315 27.2575C195.561 27.1936 195.694 27.1217 195.713 27.0419C195.789 26.8503 195.83 26.6028 195.838 26.2994C195.849 25.996 195.855 25.6687 195.855 25.3174V22.9701C195.855 21.996 195.779 21.2327 195.628 20.6802C195.476 20.1309 195.201 19.7365 194.803 19.497C194.404 19.2575 193.845 19.1377 193.124 19.1377C192.783 19.1377 192.407 19.2288 191.998 19.4108C191.592 19.596 191.237 19.7924 190.934 20C190.63 20.2076 190.479 20.3513 190.479 20.4311V25.3174C190.479 25.6687 190.483 25.996 190.49 26.2994C190.501 26.6028 190.545 26.8503 190.621 27.0419C190.659 27.1217 190.795 27.1936 191.031 27.2575C191.27 27.3213 191.526 27.3645 191.799 27.3868C192.076 27.4124 192.271 27.4251 192.385 27.4251C192.442 27.489 192.474 27.6008 192.481 27.7605C192.493 27.9201 192.46 28.0319 192.385 28.0958C191.816 28.0639 191.313 28.0351 190.877 28.0096C190.441 27.9872 189.948 27.976 189.398 27.976C188.867 27.976 188.387 27.9872 187.958 28.0096C187.534 28.0351 187.037 28.0639 186.468 28.0958C186.392 28.0319 186.358 27.9201 186.365 27.7605C186.377 27.6008 186.411 27.489 186.468 27.4251C186.582 27.4251 186.771 27.4124 187.037 27.3868C187.302 27.3645 187.558 27.3213 187.805 27.2575C188.051 27.1936 188.184 27.1217 188.203 27.0419C188.279 26.8503 188.321 26.6028 188.328 26.2994C188.34 25.996 188.345 25.6687 188.345 25.3174V14.9701C188.345 14.8104 188.34 14.6028 188.328 14.3473C188.321 14.0918 188.279 13.8922 188.203 13.7485C188.127 13.5729 187.922 13.4611 187.589 13.4132C187.259 13.3653 186.904 13.3413 186.525 13.3413C186.506 13.3413 186.491 13.2407 186.479 13.0395C186.472 12.8415 186.496 12.7346 186.553 12.7186C187.255 12.6547 187.938 12.5381 188.601 12.3689C189.265 12.2028 189.891 12.008 190.479 11.7845C190.555 11.7845 190.625 11.8276 190.689 11.9138C190.758 12.0032 190.792 12.0878 190.792 12.1677C190.792 12.1677 190.739 12.3433 190.632 12.6946C190.53 13.0459 190.479 13.5489 190.479 14.2036V19.497C190.479 19.5289 190.507 19.5449 190.564 19.5449C190.583 19.5449 190.611 19.5289 190.649 19.497C190.839 19.3214 191.146 19.0978 191.571 18.8264C192 18.5549 192.47 18.3106 192.982 18.0934C193.494 17.8795 193.968 17.7725 194.404 17.7725Z" fill="white"/>
</g>
</g>
</g>
</g>
<g clip-path="url(#clip7_3_19)">
<g clip-path="url(#clip8_3_19)">
<path d="M0.000183105 20.0001C0.000183105 9.32244 10.2801 0.666672 22.9612 0.666672C35.6423 0.666672 45.9223 9.32244 45.9223 20.0001C45.9223 30.6777 35.6423 39.3335 22.9612 39.3335C10.2801 39.3335 0.000183105 30.6777 0.000183105 20.0001ZM22.9612 37.8516C34.6703 37.8516 44.1624 29.8592 44.1624 20.0001C44.1624 10.1409 34.6703 2.14852 22.9612 2.14852C11.2522 2.14852 1.76008 10.1409 1.76008 20.0001C1.76008 29.8592 11.2522 37.8516 22.9612 37.8516Z" fill="black"/>
<g clip-path="url(#clip9_3_19)">
<g clip-path="url(#clip10_3_19)">
<path d="M28.7963 11.4514V10.0422H17.1282V11.4514H13.268V29.9578H32.6543V11.4514H28.7963ZM18.2178 11.6313L21.5731 16.5248H18.2178V11.6313ZM22.4161 29.0403H14.3576V12.3689H17.1285V17.4422H22.2029L22.4165 17.7539L22.4161 29.0403ZM19.0158 10.9594H26.9068L22.961 16.7134L19.0158 10.9594ZM27.7066 11.627V16.5248H24.3484L27.7066 11.627ZM31.5646 29.0403H23.5058V17.7539L23.7193 17.4422H28.7966V12.3689H31.5646V29.0403Z" fill="black"/>
<path d="M30.3145 18.6297H25.0298V19.5472H30.3145V18.6297Z" fill="black"/>
<path d="M21.1903 19.7384C21.6166 19.7384 21.9621 19.4474 21.9621 19.0885C21.9621 18.7296 21.6166 18.4386 21.1903 18.4386C20.764 18.4386 20.4185 18.7296 20.4185 19.0885C20.4185 19.4474 20.764 19.7384 21.1903 19.7384Z" fill="black"/>
<path d="M21.1903 23.0642C21.6166 23.0642 21.9621 22.7732 21.9621 22.4143C21.9621 22.0554 21.6166 21.7645 21.1903 21.7645C20.764 21.7645 20.4185 22.0554 20.4185 22.4143C20.4185 22.7732 20.764 23.0642 21.1903 23.0642Z" fill="black"/>
<path d="M21.1903 26.3901C21.6166 26.3901 21.9621 26.0991 21.9621 25.7402C21.9621 25.3813 21.6166 25.0903 21.1903 25.0903C20.764 25.0903 20.4185 25.3813 20.4185 25.7402C20.4185 26.0991 20.764 26.3901 21.1903 26.3901Z" fill="black"/>
</g>
</g>
</g>
</g>
</g>
</g>
</mask>
<g mask="url(#mask0_3_19)">
<path d="M200 0.666672H0.000183105L0.000183105 39.3333H200V0.666672Z" fill="url(#paint0_linear_3_19)"/>
</g>
<mask id="mask1_3_19" style="mask-type:luminance" maskUnits="userSpaceOnUse" x="0" y="0" width="201" height="40">
<g clip-path="url(#clip11_3_19)">
<g clip-path="url(#clip12_3_19)">
<g clip-path="url(#clip13_3_19)">
<g clip-path="url(#clip14_3_19)">
<path d="M0.000183105 20.0001C0.000183105 9.32244 10.2801 0.666672 22.9612 0.666672C35.6423 0.666672 45.9223 9.32244 45.9223 20.0001C45.9223 30.6777 35.6423 39.3335 22.9612 39.3335C10.2801 39.3335 0.000183105 30.6777 0.000183105 20.0001ZM22.9612 37.8516C34.6703 37.8516 44.1624 29.8592 44.1624 20.0001C44.1624 10.1409 34.6703 2.14852 22.9612 2.14852C11.2522 2.14852 1.76008 10.1409 1.76008 20.0001C1.76008 29.8592 11.2522 37.8516 22.9612 37.8516Z" fill="white"/>
<g clip-path="url(#clip15_3_19)">
<g clip-path="url(#clip16_3_19)">
<path d="M28.7963 11.4514V10.0422H17.1282V11.4514H13.268V29.9578H32.6543V11.4514H28.7963ZM18.2178 11.6313L21.5731 16.5248H18.2178V11.6313ZM22.4161 29.0403H14.3576V12.3689H17.1285V17.4422H22.2029L22.4165 17.7539L22.4161 29.0403ZM19.0158 10.9594H26.9068L22.961 16.7134L19.0158 10.9594ZM27.7066 11.627V16.5248H24.3484L27.7066 11.627ZM31.5646 29.0403H23.5058V17.7539L23.7193 17.4422H28.7966V12.3689H31.5646V29.0403Z" fill="white"/>
<path d="M30.3145 18.6297H25.0298V19.5472H30.3145V18.6297Z" fill="white"/>
<path d="M21.1903 19.7384C21.6166 19.7384 21.9621 19.4474 21.9621 19.0885C21.9621 18.7296 21.6166 18.4386 21.1903 18.4386C20.764 18.4386 20.4185 18.7296 20.4185 19.0885C20.4185 19.4474 20.764 19.7384 21.1903 19.7384Z" fill="white"/>
<path d="M21.1903 23.0642C21.6166 23.0642 21.9621 22.7732 21.9621 22.4143C21.9621 22.0554 21.6166 21.7645 21.1903 21.7645C20.764 21.7645 20.4185 22.0554 20.4185 22.4143C20.4185 22.7732 20.764 23.0642 21.1903 23.0642Z" fill="white"/>
<path d="M21.1903 26.3901C21.6166 26.3901 21.9621 26.0991 21.9621 25.7402C21.9621 25.3813 21.6166 25.0903 21.1903 25.0903C20.764 25.0903 20.4185 25.3813 20.4185 25.7402C20.4185 26.0991 20.764 26.3901 21.1903 26.3901Z" fill="white"/>
</g>
</g>
</g>
</g>
</g>
</g>
</mask>
<g mask="url(#mask1_3_19)">
<path d="M200 0.666672H0.000183105L0.000183105 39.3333H200V0.666672Z" fill="url(#paint1_linear_3_19)"/>
</g>
</g>
<defs>
<linearGradient id="paint0_linear_3_19" x1="0.000183122" y1="21.856" x2="199.98" y2="23.9248" gradientUnits="userSpaceOnUse">
<stop stop-color="#FF6CAB"/>
<stop offset="1" stop-color="#7366FF"/>
</linearGradient>
<linearGradient id="paint1_linear_3_19" x1="0.000183122" y1="21.856" x2="199.98" y2="23.9248" gradientUnits="userSpaceOnUse">
<stop stop-color="#FF6CAB"/>
<stop offset="1" stop-color="#7366FF"/>
</linearGradient>
<clipPath id="clip0_3_19">
<rect width="200" height="38.6667" fill="white" transform="translate(0.000183105 0.666672)"/>
</clipPath>
<clipPath id="clip1_3_19">
<rect width="200" height="38.6667" fill="white" transform="translate(0.000183105 0.666672)"/>
</clipPath>
<clipPath id="clip2_3_19">
<rect width="200" height="38.6667" fill="white" transform="translate(0.000183105 0.666672)"/>
</clipPath>
<clipPath id="clip3_3_19">
<rect width="144.864" height="16.4311" fill="white" transform="translate(55.1358 11.7845)"/>
</clipPath>
<clipPath id="clip4_3_19">
<rect width="144.864" height="16.4311" fill="white" transform="translate(55.1358 11.7845)"/>
</clipPath>
<clipPath id="clip5_3_19">
<rect width="144.864" height="16.4311" fill="white" transform="translate(55.1358 11.7845)"/>
</clipPath>
<clipPath id="clip6_3_19">
<rect width="144.864" height="16.4311" fill="white" transform="translate(55.1358 11.7845)"/>
</clipPath>
<clipPath id="clip7_3_19">
<rect width="45.9219" height="38.6667" fill="white" transform="translate(0.000183105 0.666672)"/>
</clipPath>
<clipPath id="clip8_3_19">
<rect width="45.9219" height="38.6667" fill="white" transform="translate(0.000183105 0.666672)"/>
</clipPath>
<clipPath id="clip9_3_19">
<rect width="19.3863" height="19.9156" fill="white" transform="translate(13.268 10.0422)"/>
</clipPath>
<clipPath id="clip10_3_19">
<rect width="19.3863" height="19.9156" fill="white" transform="translate(13.268 10.0422)"/>
</clipPath>
<clipPath id="clip11_3_19">
<rect width="200" height="38.6667" fill="white" transform="translate(0.000183105 0.666672)"/>
</clipPath>
<clipPath id="clip12_3_19">
<rect width="200" height="38.6667" fill="white" transform="translate(0.000183105 0.666672)"/>
</clipPath>
<clipPath id="clip13_3_19">
<rect width="45.9219" height="38.6667" fill="white" transform="translate(0.000183105 0.666672)"/>
</clipPath>
<clipPath id="clip14_3_19">
<rect width="45.9219" height="38.6667" fill="white" transform="translate(0.000183105 0.666672)"/>
</clipPath>
<clipPath id="clip15_3_19">
<rect width="19.3863" height="19.9156" fill="white" transform="translate(13.268 10.0422)"/>
</clipPath>
<clipPath id="clip16_3_19">
<rect width="19.3863" height="19.9156" fill="white" transform="translate(13.268 10.0422)"/>
</clipPath>
</defs>
</svg>
