<svg width="200" height="50" viewBox="0 0 200 50" fill="none" xmlns="http://www.w3.org/2000/svg">
<rect width="200" height="50" rx="10" fill="white"/>
<path d="M177 32L183.5 25L189 32" stroke="black" stroke-linecap="round"/>
<path d="M19.38 30.24C18.2733 30.24 17.32 29.9633 16.52 29.41C15.72 28.85 15.1033 28.0767 14.67 27.09C14.2367 26.0967 14.02 24.9467 14.02 23.64C14.02 22.2467 14.2533 21.0733 14.72 20.12C15.1933 19.1667 15.8333 18.4467 16.64 17.96C17.4533 17.4667 18.3667 17.22 19.38 17.22C20.72 17.22 21.7967 17.5567 22.61 18.23C23.43 18.8967 23.9933 19.7667 24.3 20.84L22.62 21.18C22.36 20.4 21.9433 19.78 21.37 19.32C20.8033 18.8533 20.14 18.62 19.38 18.62C18.72 18.62 18.11 18.81 17.55 19.19C16.9967 19.5633 16.55 20.1233 16.21 20.87C15.87 21.6167 15.7 22.54 15.7 23.64C15.7 24.64 15.8333 25.53 16.1 26.31C16.3733 27.09 16.78 27.7033 17.32 28.15C17.8667 28.5967 18.5533 28.82 19.38 28.82C20.3733 28.82 21.16 28.5533 21.74 28.02C22.3267 27.4867 22.62 26.7867 22.62 25.92H24.32C24.32 26.82 24.1133 27.5933 23.7 28.24C23.2867 28.88 22.7067 29.3733 21.96 29.72C21.22 30.0667 20.36 30.24 19.38 30.24ZM30.7456 30.24C29.8856 30.24 29.119 30.05 28.4456 29.67C27.779 29.29 27.2523 28.7267 26.8656 27.98C26.479 27.2333 26.2856 26.3133 26.2856 25.22C26.2856 24.12 26.479 23.2 26.8656 22.46C27.2523 21.7133 27.779 21.15 28.4456 20.77C29.119 20.39 29.8856 20.2 30.7456 20.2C31.599 20.2 32.359 20.39 33.0256 20.77C33.699 21.15 34.2256 21.7133 34.6056 22.46C34.9923 23.2 35.1856 24.12 35.1856 25.22C35.1856 26.3133 34.9923 27.2333 34.6056 27.98C34.2256 28.7267 33.699 29.29 33.0256 29.67C32.359 30.05 31.599 30.24 30.7456 30.24ZM30.7056 28.88C31.3256 28.88 31.8523 28.7333 32.2856 28.44C32.719 28.14 33.0456 27.7167 33.2656 27.17C33.4923 26.6233 33.6056 25.9733 33.6056 25.22C33.6056 24.08 33.369 23.1833 32.8956 22.53C32.4223 21.87 31.719 21.54 30.7856 21.54C30.159 21.54 29.629 21.69 29.1956 21.99C28.769 22.2833 28.4423 22.7067 28.2156 23.26C27.9956 23.8067 27.8856 24.46 27.8856 25.22C27.8856 26.3467 28.1223 27.24 28.5956 27.9C29.0756 28.5533 29.779 28.88 30.7056 28.88ZM38.2231 30V16.36H39.7831V30H38.2231ZM47.2886 30.24C46.4286 30.24 45.6619 30.05 44.9886 29.67C44.3219 29.29 43.7953 28.7267 43.4086 27.98C43.0219 27.2333 42.8286 26.3133 42.8286 25.22C42.8286 24.12 43.0219 23.2 43.4086 22.46C43.7953 21.7133 44.3219 21.15 44.9886 20.77C45.6619 20.39 46.4286 20.2 47.2886 20.2C48.1419 20.2 48.9019 20.39 49.5686 20.77C50.2419 21.15 50.7686 21.7133 51.1486 22.46C51.5353 23.2 51.7286 24.12 51.7286 25.22C51.7286 26.3133 51.5353 27.2333 51.1486 27.98C50.7686 28.7267 50.2419 29.29 49.5686 29.67C48.9019 30.05 48.1419 30.24 47.2886 30.24ZM47.2486 28.88C47.8686 28.88 48.3953 28.7333 48.8286 28.44C49.2619 28.14 49.5886 27.7167 49.8086 27.17C50.0353 26.6233 50.1486 25.9733 50.1486 25.22C50.1486 24.08 49.9119 23.1833 49.4386 22.53C48.9653 21.87 48.2619 21.54 47.3286 21.54C46.7019 21.54 46.1719 21.69 45.7386 21.99C45.3119 22.2833 44.9853 22.7067 44.7586 23.26C44.5386 23.8067 44.4286 24.46 44.4286 25.22C44.4286 26.3467 44.6653 27.24 45.1386 27.9C45.6186 28.5533 46.3219 28.88 47.2486 28.88ZM54.7661 30V20.42H56.3261V30H54.7661ZM55.8461 25.68C55.8461 24.4667 55.9628 23.46 56.1961 22.66C56.4294 21.8533 56.7694 21.2533 57.2161 20.86C57.6694 20.46 58.2194 20.26 58.8661 20.26C59.0794 20.26 59.2728 20.2767 59.4461 20.31C59.6261 20.3367 59.8061 20.38 59.9861 20.44L59.8861 21.98C59.6994 21.92 59.4961 21.87 59.2761 21.83C59.0561 21.7833 58.8594 21.76 58.6861 21.76C58.1194 21.76 57.6628 21.9233 57.3161 22.25C56.9694 22.57 56.7161 23.0233 56.5561 23.61C56.4028 24.1967 56.3261 24.8867 56.3261 25.68H55.8461ZM65.4327 30.24C64.506 30.24 63.7327 30.11 63.1127 29.85C62.4927 29.5833 62.0227 29.22 61.7027 28.76C61.3827 28.2933 61.2127 27.76 61.1927 27.16H62.6927C62.726 27.7667 62.9693 28.2233 63.4227 28.53C63.8827 28.83 64.506 28.98 65.2927 28.98C65.706 28.98 66.086 28.9133 66.4327 28.78C66.7793 28.6467 67.056 28.4633 67.2627 28.23C67.4693 27.9967 67.5727 27.7333 67.5727 27.44C67.5727 27.0667 67.436 26.7733 67.1627 26.56C66.8893 26.3467 66.4527 26.16 65.8527 26L63.9927 25.4C63.186 25.1467 62.566 24.8 62.1327 24.36C61.706 23.9133 61.4927 23.38 61.4927 22.76C61.4927 21.9867 61.8327 21.3667 62.5127 20.9C63.1927 20.4333 64.086 20.2 65.1927 20.2C66.366 20.2 67.276 20.44 67.9227 20.92C68.5693 21.4 68.906 22 68.9327 22.72H67.3927C67.3327 22.3 67.1193 21.9833 66.7527 21.77C66.386 21.55 65.866 21.44 65.1927 21.44C64.546 21.44 64.0393 21.5867 63.6727 21.88C63.3127 22.1667 63.1327 22.4867 63.1327 22.84C63.1327 23.5 63.6993 23.9867 64.8327 24.3L66.7327 24.94C67.5527 25.1867 68.1793 25.51 68.6127 25.91C69.0527 26.31 69.2727 26.82 69.2727 27.44C69.2727 27.92 69.116 28.3733 68.8027 28.8C68.4893 29.2267 68.046 29.5733 67.4727 29.84C66.8993 30.1067 66.2193 30.24 65.4327 30.24Z" fill="black"/>
</svg>
