<svg width="140" height="30" viewBox="0 0 140 30" fill="none" xmlns="http://www.w3.org/2000/svg">
    <g clip-path="url(#clip0_22_85)">
        <mask id="mask0_22_85" style="mask-type:luminance" maskUnits="userSpaceOnUse" x="0" y="0" width="140"
            height="30">
            <g clip-path="url(#clip1_22_85)">
                <g clip-path="url(#clip2_22_85)">
                    <g clip-path="url(#clip3_22_85)">
                        <g clip-path="url(#clip4_22_85)">
                            <g clip-path="url(#clip5_22_85)">
                                <g clip-path="url(#clip6_22_85)">
                                    <path
                                        d="M45.1707 9.12761C45.8079 9.12761 46.4756 9.15239 47.1739 9.20194C47.8695 9.2515 48.5757 9.35061 49.2926 9.49928C49.2926 9.49928 49.3165 9.62565 49.3643 9.87838C49.4094 10.1336 49.4585 10.4309 49.5116 10.7704C49.5647 11.1123 49.6152 11.422 49.6629 11.6996C49.7081 11.9796 49.7306 12.1443 49.7306 12.1939C49.7439 12.2434 49.7041 12.293 49.6112 12.3426C49.5183 12.3921 49.4187 12.4169 49.3125 12.4169C49.2196 12.4169 49.1399 12.3983 49.0735 12.3611C49.047 12.2249 48.9846 12.0142 48.8864 11.7293C48.7855 11.4443 48.6063 11.147 48.3487 10.8373C48.0885 10.5276 47.7129 10.2637 47.2217 10.0456C46.7305 9.83006 46.08 9.72228 45.2703 9.72228C44.5534 9.72228 43.9029 9.87343 43.3189 10.1757C42.7348 10.4805 42.2343 10.8893 41.8175 11.4022C41.398 11.9176 41.0794 12.4875 40.8617 13.1119C40.6413 13.7388 40.5311 14.3682 40.5311 15C40.5311 15.7062 40.6347 16.3999 40.8417 17.0813C41.0462 17.7627 41.3581 18.3785 41.7776 18.9285C42.1945 19.4811 42.7188 19.9209 43.3507 20.248C43.9799 20.5775 44.7194 20.7423 45.569 20.7423C46.1663 20.7423 46.6748 20.6556 47.0942 20.4821C47.5111 20.3087 47.8589 20.1043 48.1377 19.8689C48.5226 19.5467 48.8014 19.1875 48.974 18.791C49.1466 18.3946 49.266 18.0477 49.3324 17.7503C49.5581 17.7256 49.7638 17.7751 49.9497 17.899C49.9497 17.9857 49.9271 18.1592 49.882 18.4193C49.8342 18.6795 49.7771 18.9607 49.7107 19.263C49.6444 19.5678 49.5714 19.8379 49.4917 20.0733C49.4121 20.3087 49.339 20.4573 49.2727 20.5193C48.7417 20.7918 48.1377 20.9963 47.4606 21.1325C46.7836 21.2688 45.9938 21.337 45.0911 21.337C44.1353 21.337 43.2591 21.1784 42.4626 20.8612C41.6661 20.5465 40.9798 20.1129 40.4037 19.5604C39.8249 19.0103 39.3802 18.3785 39.0695 17.6649C38.7563 16.9537 38.5996 16.1955 38.5996 15.3902C38.5996 14.5354 38.7629 13.7326 39.0895 12.9818C39.4134 12.2335 39.8674 11.5682 40.4515 10.986C41.0356 10.4037 41.7298 9.94776 42.5343 9.61821C43.3361 9.29114 44.2149 9.12761 45.1707 9.12761ZM52.4985 19.1255V11.0975C52.4985 10.9612 52.4945 10.7964 52.4865 10.6031C52.4812 10.4123 52.452 10.2612 52.3989 10.1497C52.3458 10.0134 52.2024 9.9267 51.9688 9.88953C51.7378 9.85236 51.4896 9.83378 51.2241 9.83378C51.2108 9.83378 51.2002 9.75573 51.1922 9.59963C51.1869 9.44601 51.2042 9.363 51.244 9.35061C51.7352 9.30105 52.2131 9.21062 52.6777 9.07929C53.1423 8.95045 53.5804 8.7993 53.9919 8.62585C54.045 8.62585 54.0941 8.6593 54.1393 8.72621C54.187 8.79558 54.2109 8.86125 54.2109 8.92319C54.2109 8.92319 54.1738 9.05947 54.0994 9.33203C54.0277 9.60459 53.9919 9.99484 53.9919 10.5028V19.1255C53.9919 19.3981 53.9946 19.6521 53.9999 19.8874C54.0078 20.1228 54.0384 20.3149 54.0915 20.4635C54.118 20.5255 54.2136 20.5812 54.3782 20.6308C54.5455 20.6803 54.7247 20.7138 54.9158 20.7311C55.1097 20.751 55.2464 20.7609 55.326 20.7609C55.3659 20.8104 55.3884 20.8971 55.3937 21.021C55.4017 21.1449 55.3791 21.2317 55.326 21.2812C54.9278 21.2564 54.576 21.2341 54.2707 21.2143C53.9654 21.197 53.6202 21.1883 53.2352 21.1883C52.8635 21.1883 52.5277 21.197 52.2277 21.2143C51.9303 21.2341 51.5825 21.2564 51.1843 21.2812C51.1312 21.2317 51.1073 21.1449 51.1126 21.021C51.1205 20.8971 51.1444 20.8104 51.1843 20.7609C51.2639 20.7609 51.3967 20.751 51.5825 20.7311C51.7684 20.7138 51.9476 20.6803 52.1201 20.6308C52.2927 20.5812 52.3856 20.5255 52.3989 20.4635C52.452 20.3149 52.4812 20.1228 52.4865 19.8874C52.4945 19.6521 52.4985 19.3981 52.4985 19.1255ZM60.6626 13.2531C61.5254 13.2531 62.2649 13.4266 62.8808 13.7735C63.4994 14.1204 63.9773 14.5912 64.3145 15.1858C64.6543 15.7805 64.8243 16.4557 64.8243 17.2114C64.8243 17.9919 64.6437 18.6944 64.2826 19.3188C63.9269 19.9457 63.437 20.4412 62.8131 20.8055C62.1892 21.1722 61.4856 21.3555 60.7024 21.3555C59.8528 21.3555 59.1121 21.1796 58.4802 20.8278C57.8509 20.4734 57.3664 19.9952 57.0266 19.3931C56.6894 18.7935 56.5208 18.1158 56.5208 17.3601C56.5208 16.5796 56.7027 15.8796 57.0664 15.2602C57.4328 14.6407 57.9279 14.1513 58.5519 13.7921C59.1758 13.4328 59.8793 13.2531 60.6626 13.2531ZM60.4435 13.8664C59.8993 13.8664 59.4612 14.0188 59.1293 14.3236C58.7974 14.6258 58.5585 15.0149 58.4125 15.4906C58.2664 15.9688 58.1934 16.4681 58.1934 16.9884C58.1934 17.5707 58.2956 18.153 58.5001 18.7353C58.7072 19.3176 59.0125 19.8007 59.416 20.1848C59.8223 20.5688 60.3174 20.7609 60.9015 20.7609C61.4591 20.7609 61.8998 20.6085 62.2237 20.3037C62.5503 20.0014 62.7866 19.6087 62.9326 19.1255C63.0786 18.6424 63.1516 18.1468 63.1516 17.6388C63.1516 17.0442 63.0454 16.4582 62.833 15.8808C62.6206 15.306 62.3153 14.8265 61.917 14.4425C61.5188 14.0584 61.0276 13.8664 60.4435 13.8664ZM68.7231 11.0045V13.3832H71.2321C71.2985 13.3832 71.3316 13.4514 71.3316 13.5876C71.3316 13.7735 71.2387 13.9531 71.0529 14.1266H68.7231V18.8839C68.7231 19.8751 69.1545 20.3706 70.0174 20.3706C70.3095 20.3706 70.575 20.3149 70.8139 20.2034C71.0529 20.0919 71.2055 20.0113 71.2719 19.9618C71.3117 19.9742 71.3316 20.0113 71.3316 20.0733C71.3316 20.2096 71.3051 20.3025 71.252 20.352C71.1591 20.4511 71.017 20.5812 70.8259 20.7423C70.632 20.9033 70.4024 21.0458 70.1369 21.1697C69.8714 21.2936 69.5793 21.3555 69.2607 21.3555C68.9289 21.3555 68.6076 21.2998 68.297 21.1883C67.9837 21.0768 67.7275 20.8786 67.5284 20.5936C67.3292 20.3087 67.2297 19.906 67.2297 19.3857V14.1266H66.0947C66.0681 14.1266 66.0482 14.1043 66.0349 14.0597C66.0217 14.0175 66.015 13.9841 66.015 13.9593C66.015 13.9345 66.0548 13.8751 66.1345 13.7809C66.2141 13.6892 66.2978 13.6 66.3854 13.5133C66.4704 13.4266 66.5128 13.3832 66.5128 13.3832H67.2297V12.2496C67.3624 12.1134 67.5191 11.9548 67.6996 11.7739C67.8775 11.5955 68.0395 11.4282 68.1855 11.2721C68.3315 11.1185 68.4112 11.0355 68.4244 11.0231C68.4775 10.9736 68.5412 10.9488 68.6156 10.9488C68.6873 10.9488 68.7231 10.9674 68.7231 11.0045ZM77.624 13.2717C78.3275 13.2717 78.8585 13.408 79.217 13.6806C79.5754 13.9531 79.8183 14.3743 79.9457 14.9442C80.0705 15.5141 80.1329 16.2389 80.1329 17.1185V19.1255C80.1329 19.3981 80.1369 19.6521 80.1449 19.8874C80.1502 20.1228 80.1794 20.3149 80.2325 20.4635C80.259 20.5255 80.3559 20.5812 80.5232 20.6308C80.6878 20.6803 80.867 20.7138 81.0608 20.7311C81.252 20.751 81.3874 20.7609 81.4671 20.7609C81.5069 20.8104 81.5308 20.8971 81.5387 21.021C81.5441 21.1449 81.5202 21.2317 81.4671 21.2812C81.0688 21.2564 80.717 21.2341 80.4117 21.2143C80.1064 21.197 79.7612 21.1883 79.3763 21.1883C79.0046 21.1883 78.67 21.197 78.3727 21.2143C78.0727 21.2341 77.7235 21.2564 77.3253 21.2812C77.2722 21.2317 77.2496 21.1449 77.2576 21.021C77.2629 20.8971 77.2854 20.8104 77.3253 20.7609C77.4049 20.7609 77.5377 20.751 77.7235 20.7311C77.9094 20.7138 78.0886 20.6803 78.2612 20.6308C78.4337 20.5812 78.5267 20.5255 78.5399 20.4635C78.593 20.3149 78.6236 20.1228 78.6315 19.8874C78.6368 19.6521 78.6395 19.3981 78.6395 19.1255V17.3043C78.6395 16.5486 78.5864 15.9564 78.4802 15.5278C78.374 15.1016 78.1815 14.7956 77.9027 14.6097C77.624 14.4239 77.2324 14.331 76.7279 14.331C76.489 14.331 76.2274 14.4016 75.9434 14.5428C75.6566 14.6865 75.407 14.8389 75.1946 15C74.9822 15.161 74.876 15.2725 74.876 15.3345V19.1255C74.876 19.3981 74.88 19.6521 74.888 19.8874C74.8933 20.1228 74.9225 20.3149 74.9756 20.4635C75.0022 20.5255 75.0991 20.5812 75.2663 20.6308C75.4309 20.6803 75.6102 20.7138 75.804 20.7311C75.9951 20.751 76.1305 20.7609 76.2102 20.7609C76.25 20.8104 76.2739 20.8971 76.2819 21.021C76.2872 21.1449 76.2633 21.2317 76.2102 21.2812C75.8119 21.2564 75.4601 21.2341 75.1548 21.2143C74.8495 21.197 74.5044 21.1883 74.1194 21.1883C73.7477 21.1883 73.4131 21.197 73.1158 21.2143C72.8158 21.2341 72.4666 21.2564 72.0684 21.2812C72.0153 21.2317 71.9927 21.1449 72.0007 21.021C72.006 20.8971 72.0286 20.8104 72.0684 20.7609C72.148 20.7609 72.2808 20.751 72.4666 20.7311C72.6525 20.7138 72.8317 20.6803 73.0043 20.6308C73.1769 20.5812 73.2698 20.5255 73.2831 20.4635C73.3362 20.3149 73.3667 20.1228 73.3747 19.8874C73.38 19.6521 73.3826 19.3981 73.3826 19.1255V11.0975C73.3826 10.9736 73.38 10.8125 73.3747 10.6143C73.3667 10.4161 73.3362 10.2612 73.2831 10.1497C73.23 10.0134 73.0879 9.9267 72.8569 9.88953C72.6233 9.85236 72.3737 9.83378 72.1082 9.83378C72.0949 9.83378 72.0857 9.75573 72.0803 9.59963C72.0724 9.44601 72.0883 9.363 72.1281 9.35061C72.6193 9.30105 73.0972 9.21062 73.5618 9.07929C74.0265 8.95045 74.4645 8.7993 74.876 8.62585C74.9291 8.62585 74.9796 8.6593 75.0274 8.72621C75.0725 8.79558 75.0951 8.86125 75.0951 8.92319C75.0951 8.92319 75.0592 9.05947 74.9876 9.33203C74.9132 9.60459 74.876 9.99484 74.876 10.5028V14.6097C74.876 14.6345 74.896 14.6469 74.9358 14.6469C74.9491 14.6469 74.969 14.6345 74.9955 14.6097C75.1283 14.4735 75.3447 14.3 75.6447 14.0894C75.942 13.8788 76.2699 13.6892 76.6283 13.5207C76.9868 13.3547 77.3186 13.2717 77.624 13.2717ZM83.8167 16.7283C83.8034 17.4964 83.9428 18.1406 84.2349 18.6609C84.5269 19.1813 84.9185 19.5678 85.4097 19.8205C85.9009 20.0758 86.4319 20.2034 87.0027 20.2034C87.3611 20.2034 87.6864 20.1439 87.9784 20.025C88.2705 19.9085 88.5161 19.7722 88.7152 19.6161C88.9143 19.4625 89.0537 19.3423 89.1333 19.2556C89.1466 19.2556 89.1758 19.2767 89.221 19.3188C89.2687 19.3634 89.2926 19.4229 89.2926 19.4972C89.2926 19.5963 89.2528 19.7078 89.1732 19.8317C89.0537 20.0051 88.8678 20.212 88.6156 20.4524C88.3634 20.6952 88.0448 20.9095 87.6598 21.0954C87.2748 21.2812 86.8301 21.3741 86.3257 21.3741C85.569 21.3741 84.8986 21.2069 84.3145 20.8724C83.7304 20.5379 83.2725 20.0857 82.9406 19.5158C82.6087 18.9459 82.4428 18.3078 82.4428 17.6017C82.4428 16.9946 82.5583 16.4272 82.7892 15.8994C83.0229 15.3741 83.3282 14.9157 83.7052 14.5243C84.0849 14.1352 84.5004 13.8292 84.9517 13.6062C85.4031 13.3832 85.8412 13.2717 86.266 13.2717C86.85 13.2717 87.3306 13.3646 87.7076 13.5505C88.0873 13.7363 88.386 13.9655 88.6037 14.2381C88.824 14.5106 88.9767 14.7832 89.0617 15.0557C89.1493 15.3283 89.1931 15.5575 89.1931 15.7433C89.1931 16.0035 89.1599 16.2079 89.0935 16.3566C89.0271 16.5053 88.901 16.5858 88.7152 16.5982C88.5957 16.6106 88.3594 16.6192 88.0063 16.6242C87.6558 16.6316 87.2549 16.6415 86.8036 16.6539C86.3522 16.6663 85.9075 16.6787 85.4695 16.6911C85.0314 16.7035 84.6597 16.7121 84.3544 16.7171C84.049 16.7245 83.8698 16.7283 83.8167 16.7283ZM83.9163 16.0592H87.0824C87.2018 16.0592 87.3041 16.0283 87.389 15.9663C87.4766 15.9044 87.5271 15.7929 87.5403 15.6318C87.5536 15.4832 87.5072 15.2725 87.401 15C87.2948 14.7274 87.1248 14.4797 86.8912 14.2566C86.6602 14.0336 86.3456 13.9221 85.9474 13.9221C85.5358 13.9221 85.1973 14.0299 84.9318 14.2455C84.6663 14.4635 84.4566 14.7113 84.3026 14.9888C84.1513 15.2688 84.0451 15.5166 83.984 15.7322C83.9256 15.9502 83.903 16.0592 83.9163 16.0592ZM93.1756 9.29486C93.5074 9.29486 93.7995 9.28495 94.0517 9.26513C94.3039 9.24778 94.5362 9.23292 94.7486 9.22053C94.8283 9.45592 94.977 9.82139 95.1947 10.317C95.415 10.8125 95.6739 11.3973 95.9713 12.0712C96.2713 12.7477 96.5939 13.4638 96.939 14.2195C97.2841 14.9752 97.6227 15.7272 97.9545 16.4755C98.2864 17.2263 98.5917 17.9238 98.8705 18.568C98.8838 18.5928 98.9103 18.6052 98.9502 18.6052C98.99 18.6052 99.0165 18.5804 99.0298 18.5309C99.4148 17.6141 99.7599 16.7865 100.065 16.0481C100.371 15.3122 100.679 14.575 100.989 13.8367C101.302 13.1008 101.645 12.2868 102.017 11.3948C102.136 11.1098 102.262 10.8001 102.395 10.4656C102.528 10.1311 102.641 9.83998 102.734 9.5922C102.826 9.34442 102.873 9.22053 102.873 9.22053C103.497 9.25769 104.008 9.27628 104.406 9.27628C104.751 9.27628 105.139 9.27008 105.569 9.25769C106.002 9.2453 106.338 9.23292 106.577 9.22053C106.59 9.2453 106.603 9.33822 106.616 9.49928C106.63 9.66034 106.636 9.74086 106.636 9.74086C106.543 9.74086 106.393 9.75325 106.186 9.77803C105.982 9.80281 105.787 9.83998 105.601 9.88953C105.415 9.93909 105.302 9.99484 105.262 10.0568C105.223 10.1435 105.196 10.255 105.183 10.3913C105.169 10.5276 105.163 10.6515 105.163 10.763C105.176 11.0727 105.189 11.5435 105.203 12.1753C105.216 12.8071 105.232 13.5158 105.25 14.3013C105.272 15.0892 105.292 15.8672 105.31 16.6353C105.331 17.4035 105.349 18.0848 105.362 18.6795C105.375 19.0264 105.395 19.3547 105.422 19.6644C105.448 19.9742 105.508 20.2343 105.601 20.4449C105.641 20.5317 105.76 20.5961 105.959 20.6382C106.158 20.6828 106.36 20.7138 106.565 20.7311C106.772 20.751 106.902 20.7609 106.955 20.7609C107.008 20.8476 107.031 20.9492 107.023 21.0656C107.017 21.1846 107.008 21.2564 106.995 21.2812C106.61 21.2564 106.234 21.2341 105.868 21.2143C105.504 21.197 105.11 21.1883 104.685 21.1883C104.234 21.1883 103.842 21.197 103.51 21.2143C103.178 21.2341 102.787 21.2564 102.335 21.2812C102.322 21.2564 102.309 21.1821 102.295 21.0582C102.282 20.9343 102.295 20.8352 102.335 20.7609C102.415 20.7609 102.541 20.751 102.714 20.7311C102.886 20.7138 103.059 20.689 103.231 20.6568C103.404 20.6271 103.53 20.5936 103.61 20.5565C103.676 20.5193 103.722 20.414 103.749 20.2405C103.776 20.0671 103.789 19.9184 103.789 19.7945C103.789 19.6582 103.782 19.4811 103.769 19.263C103.756 19.0475 103.749 18.8715 103.749 18.7353C103.722 17.8557 103.696 17.0095 103.669 16.1968C103.643 15.3865 103.616 14.5565 103.59 13.7066C103.563 12.8592 103.53 11.9461 103.49 10.9674C103.49 10.9302 103.477 10.8621 103.45 10.763C103.424 10.6638 103.377 10.6143 103.311 10.6143C103.284 10.6143 103.251 10.6576 103.211 10.7444C102.813 11.6735 102.444 12.5346 102.104 13.3275C101.767 14.1204 101.439 14.8848 101.121 15.6207C100.802 16.3591 100.479 17.1086 100.153 17.8693C99.829 18.6324 99.4812 19.4538 99.1095 20.3334C99.0829 20.383 99.0232 20.4821 98.9302 20.6308C98.8373 20.7795 98.7404 20.9182 98.6395 21.0471C98.5413 21.1784 98.4523 21.2502 98.3727 21.2626C98.3461 21.275 98.2997 21.2688 98.2333 21.244C98.22 21.2316 98.2068 21.2255 98.1935 21.2255L93.4543 10.6329C93.4411 11.4258 93.4211 12.2434 93.3946 13.0859C93.368 13.9283 93.3441 14.746 93.3229 15.5389C93.3043 16.3318 93.2844 17.0467 93.2632 17.6834C93.2446 18.3227 93.2287 18.8369 93.2154 19.2259C93.2021 19.6174 93.1955 19.8317 93.1955 19.8689C93.1955 19.9556 93.2021 20.051 93.2154 20.155C93.2287 20.2616 93.2486 20.352 93.2751 20.4264C93.3149 20.5131 93.4503 20.5812 93.6813 20.6308C93.915 20.6803 94.1513 20.7138 94.3902 20.7311C94.6292 20.751 94.7752 20.7609 94.8283 20.7609C94.8814 20.8104 94.9013 20.9033 94.888 21.0396C94.8747 21.1759 94.8615 21.2564 94.8482 21.2812C94.4632 21.2564 94.1314 21.2341 93.8526 21.2143C93.5738 21.197 93.222 21.1883 92.7972 21.1883C92.3459 21.1883 91.9675 21.197 91.6622 21.2143C91.3569 21.2341 90.9786 21.2564 90.5272 21.2812C90.5139 21.2564 90.5007 21.1821 90.4874 21.0582C90.4741 20.9343 90.4874 20.8352 90.5272 20.7609C90.6069 20.7609 90.7622 20.7485 90.9932 20.7237C91.2268 20.6989 91.4565 20.6618 91.6821 20.6122C91.9078 20.5626 92.0472 20.5007 92.1003 20.4264C92.1932 20.3025 92.2529 20.1687 92.2795 20.025C92.306 19.8837 92.326 19.714 92.3392 19.5158C92.3791 18.4255 92.4149 17.3787 92.4468 16.3752C92.4813 15.3717 92.5078 14.4697 92.5264 13.6694C92.5476 12.8716 92.5649 12.2211 92.5782 11.7181C92.5915 11.2176 92.5981 10.924 92.5981 10.8373C92.5981 10.701 92.5941 10.5709 92.5861 10.447C92.5808 10.3231 92.5583 10.2116 92.5184 10.1125C92.4919 10.0382 92.3817 9.97254 92.1879 9.91555C91.9967 9.86104 91.7976 9.81768 91.5905 9.78546C91.3861 9.75573 91.2441 9.74086 91.1644 9.74086C91.1511 9.74086 91.1445 9.65662 91.1445 9.48813C91.1445 9.32212 91.1511 9.23292 91.1644 9.22053C91.4697 9.23292 91.7153 9.2453 91.9012 9.25769C92.087 9.27008 92.2729 9.27875 92.4587 9.28371C92.6446 9.29114 92.8835 9.29486 93.1756 9.29486ZM112.168 13.3089C112.54 13.3089 112.889 13.4204 113.215 13.6434C113.539 13.8664 113.801 14.1637 114 14.5354C114.199 14.9071 114.299 15.3283 114.299 15.7991V19.5344C114.299 19.7697 114.345 19.9705 114.438 20.1365C114.531 20.305 114.684 20.3892 114.896 20.3892C115.082 20.3892 115.228 20.352 115.334 20.2777C115.44 20.2034 115.507 20.16 115.533 20.1476C115.56 20.1476 115.58 20.1662 115.593 20.2034C115.606 20.2405 115.613 20.2715 115.613 20.2963C115.613 20.4326 115.58 20.5503 115.513 20.6494C115.434 20.7113 115.305 20.798 115.127 20.9095C114.946 21.021 114.761 21.1201 114.569 21.2069C114.376 21.2936 114.206 21.337 114.06 21.337C113.781 21.337 113.533 21.2069 113.315 20.9467C113.095 20.6865 112.951 20.4202 112.885 20.1476C112.832 20.1972 112.71 20.2901 112.518 20.4264C112.325 20.5626 112.102 20.7014 111.849 20.8426C111.597 20.9863 111.349 21.1102 111.105 21.2143C110.858 21.3209 110.648 21.3741 110.475 21.3741C109.838 21.3741 109.301 21.1722 108.863 20.7683C108.424 20.3669 108.205 19.8751 108.205 19.2928C108.205 18.9211 108.316 18.6015 108.536 18.3339C108.754 18.0687 108.969 17.899 109.181 17.8247C109.553 17.7008 109.968 17.567 110.428 17.4233C110.884 17.282 111.312 17.1433 111.71 17.007C112.108 16.8707 112.4 16.7654 112.586 16.6911C112.692 16.6539 112.759 16.6068 112.785 16.5499C112.812 16.4953 112.825 16.3876 112.825 16.2265V15.7433C112.825 15.4708 112.752 15.2007 112.606 14.9331C112.46 14.668 112.261 14.445 112.009 14.2641C111.756 14.0857 111.471 13.9965 111.152 13.9965C110.821 13.9965 110.575 14.0956 110.416 14.2938C110.256 14.492 110.144 14.7708 110.077 15.1301C109.958 15.7124 109.652 16.0035 109.161 16.0035C108.949 16.0035 108.787 15.923 108.675 15.7619C108.561 15.6009 108.504 15.4274 108.504 15.2416C108.504 15.2044 108.517 15.1326 108.544 15.026C108.571 14.9219 108.604 14.8451 108.644 14.7956C108.843 14.6221 109.128 14.4177 109.5 14.1823C109.871 13.9469 110.294 13.7425 110.766 13.5691C111.236 13.3956 111.703 13.3089 112.168 13.3089ZM111.133 20.3892C111.358 20.3892 111.604 20.3396 111.869 20.2405C112.135 20.1414 112.361 20.0324 112.546 19.9135C112.732 19.797 112.825 19.7078 112.825 19.6459V17.1743C112.573 17.2486 112.254 17.3415 111.869 17.453C111.484 17.5645 111.199 17.6512 111.013 17.7132C110.668 17.8371 110.383 18.0167 110.157 18.2521C109.931 18.4875 109.818 18.7786 109.818 19.1255C109.818 19.46 109.944 19.7536 110.197 20.0064C110.449 20.2616 110.761 20.3892 111.133 20.3892ZM118.958 11.0045V13.3832H121.467C121.533 13.3832 121.567 13.4514 121.567 13.5876C121.567 13.7735 121.474 13.9531 121.288 14.1266H118.958V18.8839C118.958 19.8751 119.39 20.3706 120.252 20.3706C120.545 20.3706 120.81 20.3149 121.049 20.2034C121.288 20.0919 121.441 20.0113 121.507 19.9618C121.547 19.9742 121.567 20.0113 121.567 20.0733C121.567 20.2096 121.54 20.3025 121.487 20.352C121.394 20.4511 121.252 20.5812 121.061 20.7423C120.867 20.9033 120.637 21.0458 120.372 21.1697C120.106 21.2936 119.814 21.3555 119.496 21.3555C119.164 21.3555 118.843 21.2998 118.532 21.1883C118.219 21.0768 117.963 20.8786 117.763 20.5936C117.564 20.3087 117.465 19.906 117.465 19.3857V14.1266H116.33C116.303 14.1266 116.283 14.1043 116.27 14.0597C116.257 14.0175 116.25 13.9841 116.25 13.9593C116.25 13.9345 116.29 13.8751 116.37 13.7809C116.449 13.6892 116.533 13.6 116.62 13.5133C116.705 13.4266 116.748 13.3832 116.748 13.3832H117.465V12.2496C117.597 12.1134 117.754 11.9548 117.935 11.7739C118.113 11.5955 118.274 11.4282 118.421 11.2721C118.567 11.1185 118.646 11.0355 118.659 11.0231C118.713 10.9736 118.776 10.9488 118.851 10.9488C118.922 10.9488 118.958 10.9674 118.958 11.0045ZM129.313 14.2195C129.313 14.5416 129.233 14.7671 129.074 14.8959C128.914 15.0272 128.748 15.0929 128.576 15.0929C128.363 15.0929 128.164 15.0062 127.978 14.8327C127.793 14.6593 127.613 14.523 127.441 14.4239C127.228 14.2876 127.056 14.1947 126.923 14.1451C126.79 14.0956 126.598 14.0708 126.346 14.0708C126.001 14.0708 125.658 14.191 125.318 14.4313C124.981 14.6742 124.702 15.0186 124.482 15.4646C124.264 15.9106 124.155 16.4557 124.155 17.0999C124.155 18.153 124.461 18.9273 125.071 19.4229C125.682 19.9184 126.425 20.1662 127.301 20.1662C127.846 20.1662 128.293 20.0485 128.644 19.8131C128.997 19.5777 129.24 19.3919 129.372 19.2556C129.386 19.2556 129.415 19.2767 129.46 19.3188C129.508 19.3634 129.532 19.4229 129.532 19.4972C129.532 19.5963 129.492 19.7078 129.412 19.8317C129.293 20.0051 129.107 20.212 128.855 20.4524C128.602 20.6952 128.284 20.9095 127.899 21.0954C127.514 21.2812 127.069 21.3741 126.565 21.3741C125.781 21.3741 125.094 21.2007 124.502 20.8538C123.912 20.5069 123.454 20.0547 123.128 19.4972C122.804 18.9397 122.642 18.345 122.642 17.7132C122.642 17.0442 122.791 16.4396 123.088 15.8994C123.388 15.3617 123.773 14.8947 124.243 14.4982C124.715 14.1018 125.227 13.7983 125.776 13.5876C126.328 13.377 126.857 13.2717 127.361 13.2717C128.078 13.2717 128.662 13.4204 129.113 13.7177C129.153 13.7549 129.196 13.823 129.241 13.9221C129.289 14.0213 129.313 14.1204 129.313 14.2195ZM136.083 13.2717C136.786 13.2717 137.317 13.408 137.676 13.6806C138.034 13.9531 138.276 14.3743 138.401 14.9442C138.528 15.5141 138.592 16.2389 138.592 17.1185V19.1255C138.592 19.3981 138.594 19.6521 138.6 19.8874C138.608 20.1228 138.638 20.3149 138.691 20.4635C138.718 20.5255 138.813 20.5812 138.978 20.6308C139.145 20.6803 139.325 20.7138 139.516 20.7311C139.71 20.751 139.846 20.7609 139.926 20.7609C139.966 20.8104 139.988 20.8971 139.994 21.021C140.002 21.1449 139.979 21.2317 139.926 21.2812C139.528 21.2564 139.176 21.2341 138.871 21.2143C138.565 21.197 138.22 21.1883 137.835 21.1883C137.463 21.1883 137.128 21.197 136.828 21.2143C136.53 21.2341 136.182 21.2564 135.784 21.2812C135.731 21.2317 135.707 21.1449 135.712 21.021C135.72 20.8971 135.744 20.8104 135.784 20.7609C135.864 20.7609 135.997 20.751 136.182 20.7311C136.368 20.7138 136.547 20.6803 136.72 20.6308C136.893 20.5812 136.986 20.5255 136.999 20.4635C137.052 20.3149 137.081 20.1228 137.086 19.8874C137.094 19.6521 137.098 19.3981 137.098 19.1255V17.3043C137.098 16.5486 137.045 15.9564 136.939 15.5278C136.833 15.1016 136.64 14.7956 136.362 14.6097C136.083 14.4239 135.691 14.331 135.187 14.331C134.948 14.331 134.685 14.4016 134.398 14.5428C134.114 14.6865 133.866 14.8389 133.654 15C133.441 15.161 133.335 15.2725 133.335 15.3345V19.1255C133.335 19.3981 133.338 19.6521 133.343 19.8874C133.351 20.1228 133.381 20.3149 133.434 20.4635C133.461 20.5255 133.557 20.5812 133.721 20.6308C133.888 20.6803 134.068 20.7138 134.259 20.7311C134.453 20.751 134.589 20.7609 134.669 20.7609C134.709 20.8104 134.731 20.8971 134.737 21.021C134.745 21.1449 134.722 21.2317 134.669 21.2812C134.271 21.2564 133.919 21.2341 133.614 21.2143C133.308 21.197 132.963 21.1883 132.578 21.1883C132.207 21.1883 131.871 21.197 131.571 21.2143C131.273 21.2341 130.926 21.2564 130.527 21.2812C130.474 21.2317 130.45 21.1449 130.456 21.021C130.464 20.8971 130.487 20.8104 130.527 20.7609C130.607 20.7609 130.74 20.751 130.926 20.7311C131.111 20.7138 131.291 20.6803 131.463 20.6308C131.636 20.5812 131.729 20.5255 131.742 20.4635C131.795 20.3149 131.824 20.1228 131.83 19.8874C131.838 19.6521 131.841 19.3981 131.841 19.1255V11.0975C131.841 10.9736 131.838 10.8125 131.83 10.6143C131.824 10.4161 131.795 10.2612 131.742 10.1497C131.689 10.0134 131.545 9.9267 131.312 9.88953C131.081 9.85236 130.833 9.83378 130.567 9.83378C130.554 9.83378 130.543 9.75573 130.535 9.59963C130.53 9.44601 130.547 9.363 130.587 9.35061C131.078 9.30105 131.556 9.21062 132.021 9.07929C132.485 8.95045 132.923 8.7993 133.335 8.62585C133.388 8.62585 133.437 8.6593 133.482 8.72621C133.53 8.79558 133.554 8.86125 133.554 8.92319C133.554 8.92319 133.517 9.05947 133.442 9.33203C133.371 9.60459 133.335 9.99484 133.335 10.5028V14.6097C133.335 14.6345 133.355 14.6469 133.395 14.6469C133.408 14.6469 133.428 14.6345 133.454 14.6097C133.587 14.4735 133.802 14.3 134.1 14.0894C134.4 13.8788 134.729 13.6892 135.087 13.5207C135.446 13.3547 135.778 13.2717 136.083 13.2717Z"
                                        fill="white" />
                                </g>
                            </g>
                        </g>
                    </g>
                    <g clip-path="url(#clip7_22_85)">
                        <g clip-path="url(#clip8_22_85)">
                            <path
                                d="M0 15C0 6.71569 7.19594 0 16.0727 0C24.9495 0 32.1455 6.71569 32.1455 15C32.1455 23.2844 24.9495 30.0001 16.0727 30.0001C7.19594 30.0001 0 23.2844 0 15ZM16.0727 28.8504C24.2691 28.8504 30.9135 22.6494 30.9135 15C30.9135 7.35072 24.2691 1.14971 16.0727 1.14971C7.87638 1.14971 1.23193 7.35072 1.23193 15C1.23193 22.6494 7.87638 28.8504 16.0727 28.8504Z"
                                fill="black" />
                            <g clip-path="url(#clip9_22_85)">
                                <g clip-path="url(#clip10_22_85)">
                                    <path
                                        d="M20.1573 8.36749V7.27411H11.9896V8.36749H9.28748V22.7259H22.8579V8.36749H20.1573ZM12.7523 8.507L15.1011 12.3037H12.7523V8.507ZM15.6912 22.014H10.0502V9.07932H11.9899V13.0155H15.5419L15.6914 13.2573L15.6912 22.014ZM13.3109 7.9857H18.8347L16.0725 12.4501L13.3109 7.9857ZM19.3945 8.50368V12.3037H17.0438L19.3945 8.50368ZM22.0951 22.014H16.4539V13.2573L16.6034 13.0155H20.1575V9.07932H22.0951V22.014Z"
                                        fill="black" />
                                    <path d="M21.22 13.9369H17.5208V14.6487H21.22V13.9369Z" fill="black" />
                                    <path
                                        d="M14.8331 14.797C15.1315 14.797 15.3734 14.5713 15.3734 14.2928C15.3734 14.0143 15.1315 13.7886 14.8331 13.7886C14.5347 13.7886 14.2928 14.0143 14.2928 14.2928C14.2928 14.5713 14.5347 14.797 14.8331 14.797Z"
                                        fill="black" />
                                    <path
                                        d="M14.8331 17.3774C15.1315 17.3774 15.3734 17.1516 15.3734 16.8732C15.3734 16.5947 15.1315 16.369 14.8331 16.369C14.5347 16.369 14.2928 16.5947 14.2928 16.8732C14.2928 17.1516 14.5347 17.3774 14.8331 17.3774Z"
                                        fill="black" />
                                    <path
                                        d="M14.8331 19.9578C15.1315 19.9578 15.3734 19.7321 15.3734 19.4536C15.3734 19.1751 15.1315 18.9494 14.8331 18.9494C14.5347 18.9494 14.2928 19.1751 14.2928 19.4536C14.2928 19.7321 14.5347 19.9578 14.8331 19.9578Z"
                                        fill="black" />
                                </g>
                            </g>
                        </g>
                    </g>
                </g>
            </g>
        </mask>
        <g mask="url(#mask0_22_85)">
            <path d="M140 0H0V30H140V0Z" fill="url(#paint0_linear_22_85)" />
        </g>
        <mask id="mask1_22_85" style="mask-type:luminance" maskUnits="userSpaceOnUse" x="0" y="0" width="140"
            height="30">
            <g clip-path="url(#clip11_22_85)">
                <g clip-path="url(#clip12_22_85)">
                    <g clip-path="url(#clip13_22_85)">
                        <g clip-path="url(#clip14_22_85)">
                            <path
                                d="M0 15C0 6.71569 7.19594 0 16.0727 0C24.9495 0 32.1455 6.71569 32.1455 15C32.1455 23.2844 24.9495 30.0001 16.0727 30.0001C7.19594 30.0001 0 23.2844 0 15ZM16.0727 28.8504C24.2691 28.8504 30.9135 22.6494 30.9135 15C30.9135 7.35072 24.2691 1.14971 16.0727 1.14971C7.87638 1.14971 1.23193 7.35072 1.23193 15C1.23193 22.6494 7.87638 28.8504 16.0727 28.8504Z"
                                fill="white" />
                            <g clip-path="url(#clip15_22_85)">
                                <g clip-path="url(#clip16_22_85)">
                                    <path
                                        d="M20.1573 8.36749V7.27411H11.9896V8.36749H9.28748V22.7259H22.8579V8.36749H20.1573ZM12.7523 8.507L15.1011 12.3037H12.7523V8.507ZM15.6912 22.014H10.0502V9.07932H11.9899V13.0155H15.5419L15.6914 13.2573L15.6912 22.014ZM13.3109 7.9857H18.8347L16.0725 12.4501L13.3109 7.9857ZM19.3945 8.50368V12.3037H17.0438L19.3945 8.50368ZM22.0951 22.014H16.4539V13.2573L16.6034 13.0155H20.1575V9.07932H22.0951V22.014Z"
                                        fill="white" />
                                    <path d="M21.22 13.9369H17.5208V14.6487H21.22V13.9369Z" fill="white" />
                                    <path
                                        d="M14.8331 14.797C15.1315 14.797 15.3734 14.5713 15.3734 14.2928C15.3734 14.0143 15.1315 13.7886 14.8331 13.7886C14.5347 13.7886 14.2928 14.0143 14.2928 14.2928C14.2928 14.5713 14.5347 14.797 14.8331 14.797Z"
                                        fill="white" />
                                    <path
                                        d="M14.8331 17.3774C15.1315 17.3774 15.3734 17.1516 15.3734 16.8732C15.3734 16.5947 15.1315 16.369 14.8331 16.369C14.5347 16.369 14.2928 16.5947 14.2928 16.8732C14.2928 17.1516 14.5347 17.3774 14.8331 17.3774Z"
                                        fill="white" />
                                    <path
                                        d="M14.8331 19.9578C15.1315 19.9578 15.3734 19.7321 15.3734 19.4536C15.3734 19.1751 15.1315 18.9494 14.8331 18.9494C14.5347 18.9494 14.2928 19.1751 14.2928 19.4536C14.2928 19.7321 14.5347 19.9578 14.8331 19.9578Z"
                                        fill="white" />
                                </g>
                            </g>
                        </g>
                    </g>
                </g>
            </g>
        </mask>
        <g mask="url(#mask1_22_85)">
            <path d="M140 0H0V30H140V0Z" fill="url(#paint1_linear_22_85)" />
        </g>
    </g>
    <defs>
        <linearGradient id="paint0_linear_22_85" x1="1.12726e-08" y1="16.44" x2="139.988" y2="17.7466"
            gradientUnits="userSpaceOnUse">
            <stop stop-color="#FF6CAB" />
            <stop offset="1" stop-color="#7366FF" />
        </linearGradient>
        <linearGradient id="paint1_linear_22_85" x1="1.12726e-08" y1="16.44" x2="139.988" y2="17.7466"
            gradientUnits="userSpaceOnUse">
            <stop stop-color="#FF6CAB" />
            <stop offset="1" stop-color="#7366FF" />
        </linearGradient>
        <clipPath id="clip0_22_85">
            <rect width="140" height="30" fill="white" />
        </clipPath>
        <clipPath id="clip1_22_85">
            <rect width="140" height="30" fill="white" />
        </clipPath>
        <clipPath id="clip2_22_85">
            <rect width="140" height="30" fill="white" />
        </clipPath>
        <clipPath id="clip3_22_85">
            <rect width="101.405" height="12.7483" fill="white" transform="translate(38.5949 8.62585)" />
        </clipPath>
        <clipPath id="clip4_22_85">
            <rect width="101.405" height="12.7483" fill="white" transform="translate(38.5949 8.62585)" />
        </clipPath>
        <clipPath id="clip5_22_85">
            <rect width="101.405" height="12.7483" fill="white" transform="translate(38.5949 8.62585)" />
        </clipPath>
        <clipPath id="clip6_22_85">
            <rect width="101.405" height="12.7483" fill="white" transform="translate(38.5949 8.62585)" />
        </clipPath>
        <clipPath id="clip7_22_85">
            <rect width="32.1453" height="30" fill="white" />
        </clipPath>
        <clipPath id="clip8_22_85">
            <rect width="32.1453" height="30" fill="white" />
        </clipPath>
        <clipPath id="clip9_22_85">
            <rect width="13.5704" height="15.4518" fill="white" transform="translate(9.28748 7.27411)" />
        </clipPath>
        <clipPath id="clip10_22_85">
            <rect width="13.5704" height="15.4518" fill="white" transform="translate(9.28748 7.27411)" />
        </clipPath>
        <clipPath id="clip11_22_85">
            <rect width="140" height="30" fill="white" />
        </clipPath>
        <clipPath id="clip12_22_85">
            <rect width="140" height="30" fill="white" />
        </clipPath>
        <clipPath id="clip13_22_85">
            <rect width="32.1453" height="30" fill="white" />
        </clipPath>
        <clipPath id="clip14_22_85">
            <rect width="32.1453" height="30" fill="white" />
        </clipPath>
        <clipPath id="clip15_22_85">
            <rect width="13.5704" height="15.4518" fill="white" transform="translate(9.28748 7.27411)" />
        </clipPath>
        <clipPath id="clip16_22_85">
            <rect width="13.5704" height="15.4518" fill="white" transform="translate(9.28748 7.27411)" />
        </clipPath>
    </defs>
</svg>