<svg version="1.1" viewBox="0 0 640 400" xmlns="http://www.w3.org/2000/svg" xmlns:xlink="http://www.w3.org/1999/xlink" xmlns:svgjs="http://svgjs.dev/svgjs" matcher="0.6217216778721941"><g viewBox="0 0 640 400" matcher="0.6217216778721941"><g matcher="0.6217216778721941"><g matcher="0.6217216778721941"><g matcher="0.6217216778721941"><svg viewBox="0 0 640 400" data-background-color="#ffffff" preserveAspectRatio="xMidYMid meet" height="400" width="640" xmlns="http://www.w3.org/2000/svg" xmlns:xlink="http://www.w3.org/1999/xlink"><rect width="640" height="400" x="0" y="0" opacity="1" fill="#ffffff" data-fill-palette-color="background" id="background"></rect><g id="tight-bounds" transform="matrix(1,0,0,1,122.24000000000001,154.59239966068216)"><svg viewBox="0 0 395.52 90.81520067863568" height="90.81520067863568" width="395.52"><g><svg viewBox="0 0 546.0554084018844 125.3795800355772" height="90.81520067863568" width="395.52"><g transform="matrix(1,0,0,1,150.53540840188444,36.05024558473819)"><svg viewBox="0 0 395.52 53.27908886610083" height="53.27908886610083" width="395.52"><g id="textblocktransform"><svg viewBox="0 0 395.52 53.27908886610083" height="53.27908886610083" width="395.52" id="textblock"><g><svg viewBox="0 0 395.52 53.27908886610083" height="53.27908886610083" width="395.52"><g transform="matrix(1,0,0,1,0,0)"><svg width="395.52" viewBox="2.3499999046325684 -33.900001525878906 254.60391235351562 34.30000305175781" height="53.27908886610083" data-palette-color="url(#fc910985-652c-4881-88b3-2854b2bd0c1b)"></svg></g></svg></g></svg></g></svg></g><g><svg viewBox="0 0 125.3795800355772 125.3795800355772" height="125.3795800355772" width="125.3795800355772"><g><svg></svg></g><g id="icon-0"><svg viewBox="0 0 125.3795800355772 125.3795800355772" height="125.3795800355772" width="125.3795800355772"><g></g><g transform="matrix(1,0,0,1,36.224862996614675,30.400848648000583)"><svg viewBox="0 0 52.92985404234785 64.57788273957604" height="64.57788273957604" width="52.92985404234785"><g><svg xmlns="http://www.w3.org/2000/svg" xmlns:xlink="http://www.w3.org/1999/xlink" version="1.1" x="0" y="0" viewBox="23.312999725341797 17.440000534057617 53.375003814697266 65.1209945678711" enable-background="new 0 0 100 100" xml:space="preserve" height="64.57788273957604" width="52.92985404234785" class="icon-b-0" data-fill-palette-color="accent" id="b-0"></svg></g></svg></g></svg></g></svg></g></svg></g><defs></defs><mask id="777fb5a6-2b3a-4bde-b57a-8528fddc2ae9"><g id="SvgjsG2596"><svg viewBox="0 0 395.52 90.81520067863568" height="90.81520067863568" width="395.52"><g><svg viewBox="0 0 546.0554084018844 125.3795800355772" height="90.81520067863568" width="395.52"><g transform="matrix(1,0,0,1,150.53540840188444,36.05024558473819)"><svg viewBox="0 0 395.52 53.27908886610083" height="53.27908886610083" width="395.52"><g id="SvgjsG2595"><svg viewBox="0 0 395.52 53.27908886610083" height="53.27908886610083" width="395.52" id="SvgjsSvg2594"><g><svg viewBox="0 0 395.52 53.27908886610083" height="53.27908886610083" width="395.52"><g transform="matrix(1,0,0,1,0,0)"><svg width="395.52" viewBox="2.3499999046325684 -33.900001525878906 254.60391235351562 34.30000305175781" height="53.27908886610083" data-palette-color="url(#fc910985-652c-4881-88b3-2854b2bd0c1b)"><path d="M18.85-32.55L18.85-32.55Q21.25-32.55 23.88-32.35 26.5-32.15 29.2-31.55L29.2-31.55Q29.2-31.55 29.38-30.53 29.55-29.5 29.75-28.13 29.95-26.75 30.13-25.63 30.3-24.5 30.3-24.3L30.3-24.3Q30.35-24.1 30-23.9 29.65-23.7 29.25-23.7L29.25-23.7Q28.9-23.7 28.65-23.85L28.65-23.85Q28.55-24.4 28.18-25.55 27.8-26.7 26.83-27.95 25.85-29.2 24-30.08 22.15-30.95 19.1-30.95L19.1-30.95Q16.4-30.95 14.2-29.73 12-28.5 10.43-26.43 8.85-24.35 8.03-21.83 7.2-19.3 7.2-16.75L7.2-16.75Q7.2-13.9 7.98-11.15 8.75-8.4 10.33-6.18 11.9-3.95 14.28-2.63 16.65-1.3 19.85-1.3L19.85-1.3Q22.1-1.3 23.68-2 25.25-2.7 26.3-3.65L26.3-3.65Q27.75-4.95 28.4-6.55 29.05-8.15 29.3-9.35L29.3-9.35Q30.15-9.45 30.85-8.95L30.85-8.95Q30.85-8.6 30.68-7.55 30.5-6.5 30.25-5.28 30-4.05 29.7-3.1 29.4-2.15 29.15-1.9L29.15-1.9Q27.15-0.8 24.6-0.25 22.05 0.3 18.65 0.3L18.65 0.3Q15.05 0.3 12.05-0.98 9.05-2.25 6.88-4.48 4.7-6.7 3.53-9.58 2.35-12.45 2.35-15.7L2.35-15.7Q2.35-19.15 3.58-22.18 4.8-25.2 7-27.55 9.2-29.9 12.23-31.23 15.25-32.55 18.85-32.55ZM37.25-5.65L37.25-27.25Q37.25-27.8 37.22-28.58 37.2-29.35 37-29.8L37-29.8Q36.8-30.35 35.92-30.5 35.05-30.65 34.05-30.65L34.05-30.65Q34-30.65 33.97-31.28 33.95-31.9 34.1-31.95L34.1-31.95Q35.95-32.15 37.7-32.68 39.45-33.2 41-33.9L41-33.9Q41.2-33.9 41.37-33.63 41.55-33.35 41.55-33.1L41.55-33.1Q41.55-33.1 41.27-32 41-30.9 41-28.85L41-28.85 41-5.65Q41-4.55 41.02-3.6 41.05-2.65 41.25-2.05L41.25-2.05Q41.35-1.8 41.97-1.6 42.6-1.4 43.32-1.33 44.05-1.25 44.35-1.25L44.35-1.25Q44.5-1.05 44.52-0.55 44.55-0.05 44.35 0.15L44.35 0.15Q42.85 0.05 41.7-0.03 40.55-0.1 39.1-0.1L39.1-0.1Q37.7-0.1 36.57-0.03 35.45 0.05 33.95 0.15L33.95 0.15Q33.75-0.05 33.77-0.55 33.8-1.05 33.95-1.25L33.95-1.25Q34.25-1.25 34.95-1.33 35.65-1.4 36.3-1.6 36.95-1.8 37-2.05L37-2.05Q37.2-2.65 37.22-3.6 37.25-4.55 37.25-5.65L37.25-5.65ZM57.75-21.45L57.75-21.45Q61-21.45 63.32-20.05 65.65-18.65 66.92-16.25 68.2-13.85 68.2-10.8L68.2-10.8Q68.2-7.65 66.84-5.13 65.5-2.6 63.15-1.13 60.8 0.35 57.85 0.35L57.85 0.35Q54.65 0.35 52.27-1.07 49.9-2.5 48.62-4.93 47.35-7.35 47.35-10.4L47.35-10.4Q47.35-13.55 48.72-16.05 50.1-18.55 52.45-20 54.8-21.45 57.75-21.45ZM57.2-19.8L57.2-19.8Q55.15-19.8 53.9-18.57 52.65-17.35 52.1-15.43 51.55-13.5 51.55-11.4L51.55-11.4Q51.55-9.05 52.32-6.7 53.1-4.35 54.62-2.8 56.15-1.25 58.35-1.25L58.35-1.25Q60.45-1.25 61.67-2.48 62.9-3.7 63.45-5.65 64-7.6 64-9.65L64-9.65Q64-12.05 63.2-14.38 62.4-16.7 60.9-18.25 59.4-19.8 57.2-19.8ZM77.99-27.5L77.99-21.1 84.29-21.1Q84.54-21.1 84.54-20.55L84.54-20.55Q84.54-19.8 83.84-19.1L83.84-19.1 77.99-19.1 77.99-6.3Q77.99-2.3 81.24-2.3L81.24-2.3Q82.34-2.3 83.24-2.75 84.14-3.2 84.39-3.4L84.39-3.4Q84.54-3.35 84.54-3.1L84.54-3.1Q84.54-2.55 84.34-2.35L84.34-2.35Q83.99-1.95 83.27-1.3 82.54-0.65 81.54-0.15 80.54 0.35 79.34 0.35L79.34 0.35Q78.09 0.35 76.92-0.1 75.74-0.55 74.99-1.7 74.24-2.85 74.24-4.95L74.24-4.95 74.24-19.1 71.39-19.1Q71.29-19.1 71.24-19.28 71.19-19.45 71.19-19.55L71.19-19.55Q71.19-19.65 71.49-20.03 71.79-20.4 72.12-20.75 72.44-21.1 72.44-21.1L72.44-21.1 74.24-21.1 74.24-24.15Q74.74-24.7 75.42-25.43 76.09-26.15 76.64-26.78 77.19-27.4 77.24-27.45L77.24-27.45Q77.44-27.65 77.72-27.65 77.99-27.65 77.99-27.5L77.99-27.5ZM100.34-21.4L100.34-21.4Q102.99-21.4 104.34-20.3 105.69-19.2 106.17-16.9 106.64-14.6 106.64-11.05L106.64-11.05 106.64-5.65Q106.64-4.55 106.67-3.6 106.69-2.65 106.89-2.05L106.89-2.05Q106.99-1.8 107.62-1.6 108.24-1.4 108.97-1.33 109.69-1.25 109.99-1.25L109.99-1.25Q110.14-1.05 110.17-0.55 110.19-0.05 109.99 0.15L109.99 0.15Q108.49 0.05 107.34-0.03 106.19-0.1 104.74-0.1L104.74-0.1Q103.34-0.1 102.22-0.03 101.09 0.05 99.59 0.15L99.59 0.15Q99.39-0.05 99.42-0.55 99.44-1.05 99.59-1.25L99.59-1.25Q99.89-1.25 100.59-1.33 101.29-1.4 101.94-1.6 102.59-1.8 102.64-2.05L102.64-2.05Q102.84-2.65 102.87-3.6 102.89-4.55 102.89-5.65L102.89-5.65 102.89-10.55Q102.89-13.6 102.49-15.33 102.09-17.05 101.04-17.8 99.99-18.55 98.09-18.55L98.09-18.55Q97.19-18.55 96.12-17.98 95.04-17.4 94.24-16.75 93.44-16.1 93.44-15.85L93.44-15.85 93.44-5.65Q93.44-4.55 93.47-3.6 93.49-2.65 93.69-2.05L93.69-2.05Q93.79-1.8 94.42-1.6 95.04-1.4 95.77-1.33 96.49-1.25 96.79-1.25L96.79-1.25Q96.94-1.05 96.97-0.55 96.99-0.05 96.79 0.15L96.79 0.15Q95.29 0.05 94.14-0.03 92.99-0.1 91.54-0.1L91.54-0.1Q90.14-0.1 89.02-0.03 87.89 0.05 86.39 0.15L86.39 0.15Q86.19-0.05 86.22-0.55 86.24-1.05 86.39-1.25L86.39-1.25Q86.69-1.25 87.39-1.33 88.09-1.4 88.74-1.6 89.39-1.8 89.44-2.05L89.44-2.05Q89.64-2.65 89.67-3.6 89.69-4.55 89.69-5.65L89.69-5.65 89.69-27.25Q89.69-27.75 89.67-28.55 89.64-29.35 89.44-29.8L89.44-29.8Q89.24-30.35 88.37-30.5 87.49-30.65 86.49-30.65L86.49-30.65Q86.44-30.65 86.42-31.28 86.39-31.9 86.54-31.95L86.54-31.95Q88.39-32.15 90.14-32.68 91.89-33.2 93.44-33.9L93.44-33.9Q93.64-33.9 93.82-33.63 93.99-33.35 93.99-33.1L93.99-33.1Q93.99-33.1 93.72-32 93.44-30.9 93.44-28.85L93.44-28.85 93.44-17.8Q93.44-17.7 93.59-17.7L93.59-17.7Q93.64-17.7 93.74-17.8L93.74-17.8Q94.24-18.35 95.37-19.2 96.49-20.05 97.84-20.73 99.19-21.4 100.34-21.4ZM115.89-12.1L115.89-12.1Q115.84-9 116.94-6.9 118.04-4.8 119.89-3.78 121.74-2.75 123.89-2.75L123.89-2.75Q125.24-2.75 126.34-3.23 127.44-3.7 128.19-4.33 128.94-4.95 129.24-5.3L129.24-5.3Q129.29-5.3 129.46-5.13 129.64-4.95 129.64-4.65L129.64-4.65Q129.64-4.25 129.34-3.75L129.34-3.75Q128.89-3.05 127.94-2.08 126.99-1.1 125.54-0.35 124.09 0.4 122.19 0.4L122.19 0.4Q119.34 0.4 117.14-0.95 114.94-2.3 113.69-4.6 112.44-6.9 112.44-9.75L112.44-9.75Q112.44-12.2 113.31-14.33 114.19-16.45 115.61-18.03 117.04-19.6 118.74-20.5 120.44-21.4 122.04-21.4L122.04-21.4Q124.24-21.4 125.66-20.65 127.09-19.9 127.91-18.8 128.74-17.7 129.06-16.6 129.39-15.5 129.39-14.75L129.39-14.75Q129.39-13.7 129.14-13.1 128.89-12.5 128.19-12.45L128.19-12.45Q127.74-12.4 126.41-12.38 125.09-12.35 123.39-12.3 121.69-12.25 120.04-12.2 118.39-12.15 117.24-12.13 116.09-12.1 115.89-12.1ZM116.14-13.9L116.14-13.9 124.09-13.9Q124.54-13.9 124.86-14.15 125.19-14.4 125.24-15.05L125.24-15.05Q125.29-15.65 124.89-16.75 124.49-17.85 123.61-18.75 122.74-19.65 121.24-19.65L121.24-19.65Q119.69-19.65 118.69-18.78 117.69-17.9 117.11-16.78 116.54-15.65 116.31-14.78 116.09-13.9 116.14-13.9ZM139.39-32.1L139.39-32.1Q140.64-32.1 141.59-32.18 142.54-32.25 143.34-32.3L143.34-32.3Q143.64-31.35 144.46-29.35 145.29-27.35 146.41-24.63 147.54-21.9 148.84-18.85 150.14-15.8 151.39-12.78 152.64-9.75 153.69-7.15L153.69-7.15Q153.74-7.05 153.89-7.05L153.89-7.05Q154.04-7.05 154.09-7.25L154.09-7.25Q155.54-10.95 156.69-13.93 157.84-16.9 159.01-19.88 160.19-22.85 161.59-26.45L161.59-26.45Q162.04-27.6 162.54-28.95 163.04-30.3 163.39-31.3 163.74-32.3 163.74-32.3L163.74-32.3Q166.09-32.15 167.59-32.15L167.59-32.15Q168.89-32.15 170.51-32.2 172.14-32.25 173.04-32.3L173.04-32.3Q173.09-32.2 173.14-31.55 173.19-30.9 173.19-30.9L173.19-30.9Q172.84-30.9 172.06-30.8 171.29-30.7 170.59-30.5 169.89-30.3 169.74-30.05L169.74-30.05Q169.59-29.7 169.54-29.15 169.49-28.6 169.49-28.15L169.49-28.15Q169.54-26.9 169.59-24.35 169.64-21.8 169.71-18.63 169.79-15.45 169.86-12.35 169.94-9.25 169.99-6.85L169.99-6.85Q170.04-5.45 170.14-4.2 170.24-2.95 170.59-2.1L170.59-2.1Q170.74-1.75 171.49-1.58 172.24-1.4 173.01-1.33 173.79-1.25 173.99-1.25L173.99-1.25Q174.19-0.9 174.16-0.43 174.14 0.05 174.09 0.15L174.09 0.15Q172.64 0.05 171.26-0.03 169.89-0.1 168.29-0.1L168.29-0.1Q166.59-0.1 165.34-0.03 164.09 0.05 162.39 0.15L162.39 0.15Q162.34 0.05 162.29-0.45 162.24-0.95 162.39-1.25L162.39-1.25Q162.69-1.25 163.34-1.33 163.99-1.4 164.64-1.53 165.29-1.65 165.59-1.8L165.59-1.8Q165.84-1.95 165.94-2.65 166.04-3.35 166.04-3.85L166.04-3.85Q166.04-4.4 165.99-5.28 165.94-6.15 165.94-6.7L165.94-6.7Q165.84-10.25 165.74-13.53 165.64-16.8 165.54-20.23 165.44-23.65 165.29-27.6L165.29-27.6Q165.29-27.75 165.19-28.15 165.09-28.55 164.84-28.55L164.84-28.55Q164.74-28.55 164.59-28.2L164.59-28.2Q163.09-24.45 161.81-21.25 160.54-18.05 159.34-15.08 158.14-12.1 156.91-9.03 155.69-5.95 154.29-2.4L154.29-2.4Q154.19-2.2 153.84-1.6 153.49-1 153.11-0.48 152.74 0.05 152.44 0.1L152.44 0.1Q152.34 0.15 152.09 0.05L152.09 0.05Q152.04 0 151.99 0L151.99 0 140.09-28.5Q140.04-25.3 139.94-21.9 139.84-18.5 139.76-15.3 139.69-12.1 139.61-9.53 139.54-6.95 139.49-5.38 139.44-3.8 139.44-3.65L139.44-3.65Q139.44-3.3 139.49-2.88 139.54-2.45 139.64-2.15L139.64-2.15Q139.79-1.8 140.66-1.6 141.54-1.4 142.44-1.33 143.34-1.25 143.54-1.25L143.54-1.25Q143.74-1.05 143.69-0.5 143.64 0.05 143.59 0.15L143.59 0.15Q142.14 0.05 141.09-0.03 140.04-0.1 138.44-0.1L138.44-0.1Q136.74-0.1 135.59-0.03 134.44 0.05 132.74 0.15L132.74 0.15Q132.69 0.05 132.64-0.45 132.59-0.95 132.74-1.25L132.74-1.25Q133.04-1.25 133.91-1.35 134.79-1.45 135.64-1.65 136.49-1.85 136.69-2.15L136.69-2.15Q137.04-2.65 137.14-3.23 137.24-3.8 137.29-4.6L137.29-4.6Q137.44-9 137.56-13.05 137.69-17.1 137.76-20.33 137.84-23.55 137.89-25.58 137.94-27.6 137.94-27.95L137.94-27.95Q137.94-28.5 137.91-29 137.89-29.5 137.74-29.9L137.74-29.9Q137.64-30.2 136.91-30.43 136.19-30.65 135.41-30.78 134.64-30.9 134.34-30.9L134.34-30.9Q134.29-30.9 134.29-31.58 134.29-32.25 134.34-32.3L134.34-32.3Q135.49-32.25 136.19-32.2 136.89-32.15 137.59-32.13 138.29-32.1 139.39-32.1ZM187.08-21.3L187.08-21.3Q188.48-21.3 189.71-20.4 190.93-19.5 191.68-18 192.43-16.5 192.43-14.6L192.43-14.6 192.43-4.55Q192.43-3.6 192.78-2.93 193.13-2.25 193.93-2.25L193.93-2.25Q194.63-2.25 195.03-2.55 195.43-2.85 195.53-2.9L195.53-2.9Q195.63-2.9 195.68-2.75 195.73-2.6 195.73-2.5L195.73-2.5Q195.73-1.95 195.48-1.55L195.48-1.55Q195.18-1.3 194.51-0.85 193.83-0.4 193.11-0.05 192.38 0.3 191.83 0.3L191.83 0.3Q190.78 0.3 189.96-0.75 189.13-1.8 188.88-2.9L188.88-2.9Q188.68-2.7 187.96-2.15 187.23-1.6 186.28-1.03 185.33-0.45 184.41-0.03 183.48 0.4 182.83 0.4L182.83 0.4Q180.43 0.4 178.78-1.23 177.13-2.85 177.13-5.2L177.13-5.2Q177.13-6.7 177.96-7.78 178.78-8.85 179.58-9.15L179.58-9.15Q180.98-9.65 182.71-10.23 184.43-10.8 185.93-11.35 187.43-11.9 188.13-12.2L188.13-12.2Q188.53-12.35 188.63-12.58 188.73-12.8 188.73-13.45L188.73-13.45 188.73-14.75Q188.73-15.85 188.18-16.93 187.63-18 186.68-18.73 185.73-19.45 184.53-19.45L184.53-19.45Q183.28-19.45 182.68-18.65 182.08-17.85 181.83-16.4L181.83-16.4Q181.38-14.05 179.53-14.05L179.53-14.05Q178.73-14.05 178.31-14.7 177.88-15.35 177.88-16.1L177.88-16.1Q177.88-16.25 177.98-16.68 178.08-17.1 178.23-17.3L178.23-17.3Q178.98-18 180.38-18.95 181.78-19.9 183.56-20.6 185.33-21.3 187.08-21.3ZM184.48-2.25L184.48-2.25Q185.33-2.25 186.33-2.65 187.33-3.05 188.03-3.53 188.73-4 188.73-4.25L188.73-4.25 188.73-10.9Q187.78-10.6 186.33-10.15 184.88-9.7 184.18-9.45L184.18-9.45Q182.88-8.95 182.03-8 181.18-7.05 181.18-5.65L181.18-5.65Q181.18-4.3 182.13-3.28 183.08-2.25 184.48-2.25ZM204.13-27.5L204.13-21.1 210.43-21.1Q210.68-21.1 210.68-20.55L210.68-20.55Q210.68-19.8 209.98-19.1L209.98-19.1 204.13-19.1 204.13-6.3Q204.13-2.3 207.38-2.3L207.38-2.3Q208.48-2.3 209.38-2.75 210.28-3.2 210.53-3.4L210.53-3.4Q210.68-3.35 210.68-3.1L210.68-3.1Q210.68-2.55 210.48-2.35L210.48-2.35Q210.13-1.95 209.41-1.3 208.68-0.65 207.68-0.15 206.68 0.35 205.48 0.35L205.48 0.35Q204.23 0.35 203.06-0.1 201.88-0.55 201.13-1.7 200.38-2.85 200.38-4.95L200.38-4.95 200.38-19.1 197.53-19.1Q197.43-19.1 197.38-19.28 197.33-19.45 197.33-19.55L197.33-19.55Q197.33-19.65 197.63-20.03 197.93-20.4 198.26-20.75 198.58-21.1 198.58-21.1L198.58-21.1 200.38-21.1 200.38-24.15Q200.88-24.7 201.56-25.43 202.23-26.15 202.78-26.78 203.33-27.4 203.38-27.45L203.38-27.45Q203.58-27.65 203.86-27.65 204.13-27.65 204.13-27.5L204.13-27.5ZM230.13-18.85L230.13-18.85Q230.13-17.55 229.53-17.03 228.93-16.5 228.28-16.5L228.28-16.5Q227.48-16.5 226.78-17.2 226.08-17.9 225.43-18.3L225.43-18.3Q224.63-18.85 224.13-19.05 223.63-19.25 222.68-19.25L222.68-19.25Q221.38-19.25 220.1-18.28 218.83-17.3 218-15.5 217.18-13.7 217.18-11.1L217.18-11.1Q217.18-6.85 219.48-4.85 221.78-2.85 225.08-2.85L225.08-2.85Q227.13-2.85 228.45-3.8 229.78-4.75 230.28-5.3L230.28-5.3Q230.33-5.3 230.5-5.13 230.68-4.95 230.68-4.65L230.68-4.65Q230.68-4.25 230.38-3.75L230.38-3.75Q229.93-3.05 228.98-2.08 228.03-1.1 226.58-0.35 225.13 0.4 223.23 0.4L223.23 0.4Q220.28 0.4 218.05-1 215.83-2.4 214.6-4.65 213.38-6.9 213.38-9.45L213.38-9.45Q213.38-12.15 214.5-14.33 215.63-16.5 217.4-18.1 219.18-19.7 221.25-20.55 223.33-21.4 225.23-21.4L225.23-21.4Q227.93-21.4 229.63-20.2L229.63-20.2Q229.78-20.05 229.95-19.65 230.13-19.25 230.13-18.85ZM247.13-21.4L247.13-21.4Q249.78-21.4 251.13-20.3 252.48-19.2 252.95-16.9 253.43-14.6 253.43-11.05L253.43-11.05 253.43-5.65Q253.43-4.55 253.45-3.6 253.48-2.65 253.68-2.05L253.68-2.05Q253.78-1.8 254.4-1.6 255.03-1.4 255.75-1.33 256.48-1.25 256.78-1.25L256.78-1.25Q256.93-1.05 256.95-0.55 256.98-0.05 256.78 0.15L256.78 0.15Q255.28 0.05 254.13-0.03 252.98-0.1 251.53-0.1L251.53-0.1Q250.13-0.1 249-0.03 247.88 0.05 246.38 0.15L246.38 0.15Q246.18-0.05 246.2-0.55 246.23-1.05 246.38-1.25L246.38-1.25Q246.68-1.25 247.38-1.33 248.08-1.4 248.73-1.6 249.38-1.8 249.43-2.05L249.43-2.05Q249.63-2.65 249.65-3.6 249.68-4.55 249.68-5.65L249.68-5.65 249.68-10.55Q249.68-13.6 249.28-15.33 248.88-17.05 247.83-17.8 246.78-18.55 244.88-18.55L244.88-18.55Q243.98-18.55 242.9-17.98 241.83-17.4 241.03-16.75 240.23-16.1 240.23-15.85L240.23-15.85 240.23-5.65Q240.23-4.55 240.25-3.6 240.28-2.65 240.48-2.05L240.48-2.05Q240.58-1.8 241.2-1.6 241.83-1.4 242.55-1.33 243.28-1.25 243.58-1.25L243.58-1.25Q243.73-1.05 243.75-0.55 243.78-0.05 243.58 0.15L243.58 0.15Q242.08 0.05 240.93-0.03 239.78-0.1 238.33-0.1L238.33-0.1Q236.93-0.1 235.8-0.03 234.68 0.05 233.18 0.15L233.18 0.15Q232.98-0.05 233-0.55 233.03-1.05 233.18-1.25L233.18-1.25Q233.48-1.25 234.18-1.33 234.88-1.4 235.53-1.6 236.18-1.8 236.23-2.05L236.23-2.05Q236.43-2.65 236.45-3.6 236.48-4.55 236.48-5.65L236.48-5.65 236.48-27.25Q236.48-27.75 236.45-28.55 236.43-29.35 236.23-29.8L236.23-29.8Q236.03-30.35 235.15-30.5 234.28-30.65 233.28-30.65L233.28-30.65Q233.23-30.65 233.2-31.28 233.18-31.9 233.33-31.95L233.33-31.95Q235.18-32.15 236.93-32.68 238.68-33.2 240.23-33.9L240.23-33.9Q240.43-33.9 240.6-33.63 240.78-33.35 240.78-33.1L240.78-33.1Q240.78-33.1 240.5-32 240.23-30.9 240.23-28.85L240.23-28.85 240.23-17.8Q240.23-17.7 240.38-17.7L240.38-17.7Q240.43-17.7 240.53-17.8L240.53-17.8Q241.03-18.35 242.15-19.2 243.28-20.05 244.63-20.73 245.98-21.4 247.13-21.4Z" opacity="1" transform="matrix(1,0,0,1,0,0)" fill="white" class="wordmark-text-0" id="SvgjsPath2593"></path></svg></g></svg></g></svg></g></svg></g><g><svg viewBox="0 0 125.3795800355772 125.3795800355772" height="125.3795800355772" width="125.3795800355772"><g><svg></svg></g><g id="SvgjsG2592"><svg viewBox="0 0 125.3795800355772 125.3795800355772" height="125.3795800355772" width="125.3795800355772"><g><path d="M0 62.69c0-34.623 28.067-62.69 62.69-62.69 34.623 0 62.69 28.067 62.69 62.69 0 34.623-28.067 62.69-62.69 62.69-34.623 0-62.69-28.067-62.69-62.69zM62.69 120.575c31.969 0 57.885-25.916 57.885-57.885 0-31.969-25.916-57.885-57.885-57.885-31.969 0-57.885 25.916-57.885 57.885 0 31.969 25.916 57.885 57.885 57.885z" fill="black" stroke="transparent"></path></g><g transform="matrix(1,0,0,1,36.224862996614675,30.400848648000583)"><svg viewBox="0 0 52.92985404234785 64.57788273957604" height="64.57788273957604" width="52.92985404234785"><g><svg xmlns="http://www.w3.org/2000/svg" xmlns:xlink="http://www.w3.org/1999/xlink" version="1.1" x="0" y="0" viewBox="23.312999725341797 17.440000534057617 53.375003814697266 65.1209945678711" enable-background="new 0 0 100 100" xml:space="preserve" height="64.57788273957604" width="52.92985404234785" class="icon-b-0" data-fill-palette-color="accent" id="SvgjsSvg2591"><g fill="black"><path d="M66.066 22.048V17.44H33.941V22.048H23.313V82.561H76.688V22.048zM36.941 22.636L46.179 38.637H36.941zM48.5 79.561H26.313V25.048H33.942V41.637H47.913L48.501 42.656zM39.138 20.439H60.864L50 39.254zM63.066 22.622V38.637H53.82zM73.688 79.561H51.5V42.656L52.088 41.637H66.067V25.048H73.688z" fill="black"></path><rect x="55.696" y="45.52" width="14.55" height="3" fill="black"></rect><circle cx="45.125" cy="47.02" r="2.125" fill="black"></circle><circle cx="45.125" cy="57.895" r="2.125" fill="black"></circle><circle cx="45.125" cy="68.77" r="2.125" fill="black"></circle></g></svg></g></svg></g></svg></g></svg></g></svg></g><defs></defs></svg><rect width="395.52" height="90.81520067863568" fill="black" stroke="none" visibility="hidden"></rect></g></mask><linearGradient x1="0" x2="1" y1="0.548" y2="0.55" id="fc910985-652c-4881-88b3-2854b2bd0c1b"><stop stop-color="#ff6cab" offset="0"></stop><stop stop-color="#7366ff" offset="1"></stop></linearGradient><rect width="395.5199890136719" height="90.81520080566406" fill="url(#fc910985-652c-4881-88b3-2854b2bd0c1b)" mask="url(#777fb5a6-2b3a-4bde-b57a-8528fddc2ae9)" data-fill-palette-color="primary"></rect><mask id="0acd44ec-1605-4dbc-9471-950f8fc888f8"><g id="SvgjsG2619"><svg viewBox="0 0 395.52 90.81520067863568" height="90.81520067863568" width="395.52"><g><svg viewBox="0 0 546.0554084018844 125.3795800355772" height="90.81520067863568" width="395.52"><g transform="matrix(1,0,0,1,150.53540840188444,36.05024558473819)"><svg viewBox="0 0 395.52 53.27908886610083" height="53.27908886610083" width="395.52"><g id="SvgjsG2618"><svg viewBox="0 0 395.52 53.27908886610083" height="53.27908886610083" width="395.52" id="SvgjsSvg2617"><g><svg viewBox="0 0 395.52 53.27908886610083" height="53.27908886610083" width="395.52"><g transform="matrix(1,0,0,1,0,0)"><svg width="395.52" viewBox="2.3499999046325684 -33.900001525878906 254.60391235351562 34.30000305175781" height="53.27908886610083" data-palette-color="url(#fc910985-652c-4881-88b3-2854b2bd0c1b)"></svg></g></svg></g></svg></g></svg></g><g><svg viewBox="0 0 125.3795800355772 125.3795800355772" height="125.3795800355772" width="125.3795800355772"><g><svg></svg></g><g id="SvgjsG2616"><svg viewBox="0 0 125.3795800355772 125.3795800355772" height="125.3795800355772" width="125.3795800355772"><g><path d="M0 62.69c0-34.623 28.067-62.69 62.69-62.69 34.623 0 62.69 28.067 62.69 62.69 0 34.623-28.067 62.69-62.69 62.69-34.623 0-62.69-28.067-62.69-62.69zM62.69 120.575c31.969 0 57.885-25.916 57.885-57.885 0-31.969-25.916-57.885-57.885-57.885-31.969 0-57.885 25.916-57.885 57.885 0 31.969 25.916 57.885 57.885 57.885z" fill="white" stroke="transparent"></path></g><g transform="matrix(1,0,0,1,36.224862996614675,30.400848648000583)"><svg viewBox="0 0 52.92985404234785 64.57788273957604" height="64.57788273957604" width="52.92985404234785"><g><svg xmlns="http://www.w3.org/2000/svg" xmlns:xlink="http://www.w3.org/1999/xlink" version="1.1" x="0" y="0" viewBox="23.312999725341797 17.440000534057617 53.375003814697266 65.1209945678711" enable-background="new 0 0 100 100" xml:space="preserve" height="64.57788273957604" width="52.92985404234785" class="icon-b-0" data-fill-palette-color="accent" id="SvgjsSvg2615"><g fill="white"><path d="M66.066 22.048V17.44H33.941V22.048H23.313V82.561H76.688V22.048zM36.941 22.636L46.179 38.637H36.941zM48.5 79.561H26.313V25.048H33.942V41.637H47.913L48.501 42.656zM39.138 20.439H60.864L50 39.254zM63.066 22.622V38.637H53.82zM73.688 79.561H51.5V42.656L52.088 41.637H66.067V25.048H73.688z" fill="white"></path><rect x="55.696" y="45.52" width="14.55" height="3" fill="white"></rect><circle cx="45.125" cy="47.02" r="2.125" fill="white"></circle><circle cx="45.125" cy="57.895" r="2.125" fill="white"></circle><circle cx="45.125" cy="68.77" r="2.125" fill="white"></circle></g></svg></g></svg></g></svg></g></svg></g></svg></g><defs></defs><mask><g id="SvgjsG2614"><svg viewBox="0 0 395.52 90.81520067863568" height="90.81520067863568" width="395.52"><g><svg viewBox="0 0 546.0554084018844 125.3795800355772" height="90.81520067863568" width="395.52"><g transform="matrix(1,0,0,1,150.53540840188444,36.05024558473819)"><svg viewBox="0 0 395.52 53.27908886610083" height="53.27908886610083" width="395.52"><g id="SvgjsG2613"><svg viewBox="0 0 395.52 53.27908886610083" height="53.27908886610083" width="395.52" id="SvgjsSvg2612"><g><svg viewBox="0 0 395.52 53.27908886610083" height="53.27908886610083" width="395.52"><g transform="matrix(1,0,0,1,0,0)"><svg width="395.52" viewBox="2.3499999046325684 -33.900001525878906 254.60391235351562 34.30000305175781" height="53.27908886610083" data-palette-color="url(#fc910985-652c-4881-88b3-2854b2bd0c1b)"><path d="M18.85-32.55L18.85-32.55Q21.25-32.55 23.88-32.35 26.5-32.15 29.2-31.55L29.2-31.55Q29.2-31.55 29.38-30.53 29.55-29.5 29.75-28.13 29.95-26.75 30.13-25.63 30.3-24.5 30.3-24.3L30.3-24.3Q30.35-24.1 30-23.9 29.65-23.7 29.25-23.7L29.25-23.7Q28.9-23.7 28.65-23.85L28.65-23.85Q28.55-24.4 28.18-25.55 27.8-26.7 26.83-27.95 25.85-29.2 24-30.08 22.15-30.95 19.1-30.95L19.1-30.95Q16.4-30.95 14.2-29.73 12-28.5 10.43-26.43 8.85-24.35 8.03-21.83 7.2-19.3 7.2-16.75L7.2-16.75Q7.2-13.9 7.98-11.15 8.75-8.4 10.33-6.18 11.9-3.95 14.28-2.63 16.65-1.3 19.85-1.3L19.85-1.3Q22.1-1.3 23.68-2 25.25-2.7 26.3-3.65L26.3-3.65Q27.75-4.95 28.4-6.55 29.05-8.15 29.3-9.35L29.3-9.35Q30.15-9.45 30.85-8.95L30.85-8.95Q30.85-8.6 30.68-7.55 30.5-6.5 30.25-5.28 30-4.05 29.7-3.1 29.4-2.15 29.15-1.9L29.15-1.9Q27.15-0.8 24.6-0.25 22.05 0.3 18.65 0.3L18.65 0.3Q15.05 0.3 12.05-0.98 9.05-2.25 6.88-4.48 4.7-6.7 3.53-9.58 2.35-12.45 2.35-15.7L2.35-15.7Q2.35-19.15 3.58-22.18 4.8-25.2 7-27.55 9.2-29.9 12.23-31.23 15.25-32.55 18.85-32.55ZM37.25-5.65L37.25-27.25Q37.25-27.8 37.22-28.58 37.2-29.35 37-29.8L37-29.8Q36.8-30.35 35.92-30.5 35.05-30.65 34.05-30.65L34.05-30.65Q34-30.65 33.97-31.28 33.95-31.9 34.1-31.95L34.1-31.95Q35.95-32.15 37.7-32.68 39.45-33.2 41-33.9L41-33.9Q41.2-33.9 41.37-33.63 41.55-33.35 41.55-33.1L41.55-33.1Q41.55-33.1 41.27-32 41-30.9 41-28.85L41-28.85 41-5.65Q41-4.55 41.02-3.6 41.05-2.65 41.25-2.05L41.25-2.05Q41.35-1.8 41.97-1.6 42.6-1.4 43.32-1.33 44.05-1.25 44.35-1.25L44.35-1.25Q44.5-1.05 44.52-0.55 44.55-0.05 44.35 0.15L44.35 0.15Q42.85 0.05 41.7-0.03 40.55-0.1 39.1-0.1L39.1-0.1Q37.7-0.1 36.57-0.03 35.45 0.05 33.95 0.15L33.95 0.15Q33.75-0.05 33.77-0.55 33.8-1.05 33.95-1.25L33.95-1.25Q34.25-1.25 34.95-1.33 35.65-1.4 36.3-1.6 36.95-1.8 37-2.05L37-2.05Q37.2-2.65 37.22-3.6 37.25-4.55 37.25-5.65L37.25-5.65ZM57.75-21.45L57.75-21.45Q61-21.45 63.32-20.05 65.65-18.65 66.92-16.25 68.2-13.85 68.2-10.8L68.2-10.8Q68.2-7.65 66.84-5.13 65.5-2.6 63.15-1.13 60.8 0.35 57.85 0.35L57.85 0.35Q54.65 0.35 52.27-1.07 49.9-2.5 48.62-4.93 47.35-7.35 47.35-10.4L47.35-10.4Q47.35-13.55 48.72-16.05 50.1-18.55 52.45-20 54.8-21.45 57.75-21.45ZM57.2-19.8L57.2-19.8Q55.15-19.8 53.9-18.57 52.65-17.35 52.1-15.43 51.55-13.5 51.55-11.4L51.55-11.4Q51.55-9.05 52.32-6.7 53.1-4.35 54.62-2.8 56.15-1.25 58.35-1.25L58.35-1.25Q60.45-1.25 61.67-2.48 62.9-3.7 63.45-5.65 64-7.6 64-9.65L64-9.65Q64-12.05 63.2-14.38 62.4-16.7 60.9-18.25 59.4-19.8 57.2-19.8ZM77.99-27.5L77.99-21.1 84.29-21.1Q84.54-21.1 84.54-20.55L84.54-20.55Q84.54-19.8 83.84-19.1L83.84-19.1 77.99-19.1 77.99-6.3Q77.99-2.3 81.24-2.3L81.24-2.3Q82.34-2.3 83.24-2.75 84.14-3.2 84.39-3.4L84.39-3.4Q84.54-3.35 84.54-3.1L84.54-3.1Q84.54-2.55 84.34-2.35L84.34-2.35Q83.99-1.95 83.27-1.3 82.54-0.65 81.54-0.15 80.54 0.35 79.34 0.35L79.34 0.35Q78.09 0.35 76.92-0.1 75.74-0.55 74.99-1.7 74.24-2.85 74.24-4.95L74.24-4.95 74.24-19.1 71.39-19.1Q71.29-19.1 71.24-19.28 71.19-19.45 71.19-19.55L71.19-19.55Q71.19-19.65 71.49-20.03 71.79-20.4 72.12-20.75 72.44-21.1 72.44-21.1L72.44-21.1 74.24-21.1 74.24-24.15Q74.74-24.7 75.42-25.43 76.09-26.15 76.64-26.78 77.19-27.4 77.24-27.45L77.24-27.45Q77.44-27.65 77.72-27.65 77.99-27.65 77.99-27.5L77.99-27.5ZM100.34-21.4L100.34-21.4Q102.99-21.4 104.34-20.3 105.69-19.2 106.17-16.9 106.64-14.6 106.64-11.05L106.64-11.05 106.64-5.65Q106.64-4.55 106.67-3.6 106.69-2.65 106.89-2.05L106.89-2.05Q106.99-1.8 107.62-1.6 108.24-1.4 108.97-1.33 109.69-1.25 109.99-1.25L109.99-1.25Q110.14-1.05 110.17-0.55 110.19-0.05 109.99 0.15L109.99 0.15Q108.49 0.05 107.34-0.03 106.19-0.1 104.74-0.1L104.74-0.1Q103.34-0.1 102.22-0.03 101.09 0.05 99.59 0.15L99.59 0.15Q99.39-0.05 99.42-0.55 99.44-1.05 99.59-1.25L99.59-1.25Q99.89-1.25 100.59-1.33 101.29-1.4 101.94-1.6 102.59-1.8 102.64-2.05L102.64-2.05Q102.84-2.65 102.87-3.6 102.89-4.55 102.89-5.65L102.89-5.65 102.89-10.55Q102.89-13.6 102.49-15.33 102.09-17.05 101.04-17.8 99.99-18.55 98.09-18.55L98.09-18.55Q97.19-18.55 96.12-17.98 95.04-17.4 94.24-16.75 93.44-16.1 93.44-15.85L93.44-15.85 93.44-5.65Q93.44-4.55 93.47-3.6 93.49-2.65 93.69-2.05L93.69-2.05Q93.79-1.8 94.42-1.6 95.04-1.4 95.77-1.33 96.49-1.25 96.79-1.25L96.79-1.25Q96.94-1.05 96.97-0.55 96.99-0.05 96.79 0.15L96.79 0.15Q95.29 0.05 94.14-0.03 92.99-0.1 91.54-0.1L91.54-0.1Q90.14-0.1 89.02-0.03 87.89 0.05 86.39 0.15L86.39 0.15Q86.19-0.05 86.22-0.55 86.24-1.05 86.39-1.25L86.39-1.25Q86.69-1.25 87.39-1.33 88.09-1.4 88.74-1.6 89.39-1.8 89.44-2.05L89.44-2.05Q89.64-2.65 89.67-3.6 89.69-4.55 89.69-5.65L89.69-5.65 89.69-27.25Q89.69-27.75 89.67-28.55 89.64-29.35 89.44-29.8L89.44-29.8Q89.24-30.35 88.37-30.5 87.49-30.65 86.49-30.65L86.49-30.65Q86.44-30.65 86.42-31.28 86.39-31.9 86.54-31.95L86.54-31.95Q88.39-32.15 90.14-32.68 91.89-33.2 93.44-33.9L93.44-33.9Q93.64-33.9 93.82-33.63 93.99-33.35 93.99-33.1L93.99-33.1Q93.99-33.1 93.72-32 93.44-30.9 93.44-28.85L93.44-28.85 93.44-17.8Q93.44-17.7 93.59-17.7L93.59-17.7Q93.64-17.7 93.74-17.8L93.74-17.8Q94.24-18.35 95.37-19.2 96.49-20.05 97.84-20.73 99.19-21.4 100.34-21.4ZM115.89-12.1L115.89-12.1Q115.84-9 116.94-6.9 118.04-4.8 119.89-3.78 121.74-2.75 123.89-2.75L123.89-2.75Q125.24-2.75 126.34-3.23 127.44-3.7 128.19-4.33 128.94-4.95 129.24-5.3L129.24-5.3Q129.29-5.3 129.46-5.13 129.64-4.95 129.64-4.65L129.64-4.65Q129.64-4.25 129.34-3.75L129.34-3.75Q128.89-3.05 127.94-2.08 126.99-1.1 125.54-0.35 124.09 0.4 122.19 0.4L122.19 0.4Q119.34 0.4 117.14-0.95 114.94-2.3 113.69-4.6 112.44-6.9 112.44-9.75L112.44-9.75Q112.44-12.2 113.31-14.33 114.19-16.45 115.61-18.03 117.04-19.6 118.74-20.5 120.44-21.4 122.04-21.4L122.04-21.4Q124.24-21.4 125.66-20.65 127.09-19.9 127.91-18.8 128.74-17.7 129.06-16.6 129.39-15.5 129.39-14.75L129.39-14.75Q129.39-13.7 129.14-13.1 128.89-12.5 128.19-12.45L128.19-12.45Q127.74-12.4 126.41-12.38 125.09-12.35 123.39-12.3 121.69-12.25 120.04-12.2 118.39-12.15 117.24-12.13 116.09-12.1 115.89-12.1ZM116.14-13.9L116.14-13.9 124.09-13.9Q124.54-13.9 124.86-14.15 125.19-14.4 125.24-15.05L125.24-15.05Q125.29-15.65 124.89-16.75 124.49-17.85 123.61-18.75 122.74-19.65 121.24-19.65L121.24-19.65Q119.69-19.65 118.69-18.78 117.69-17.9 117.11-16.78 116.54-15.65 116.31-14.78 116.09-13.9 116.14-13.9ZM139.39-32.1L139.39-32.1Q140.64-32.1 141.59-32.18 142.54-32.25 143.34-32.3L143.34-32.3Q143.64-31.35 144.46-29.35 145.29-27.35 146.41-24.63 147.54-21.9 148.84-18.85 150.14-15.8 151.39-12.78 152.64-9.75 153.69-7.15L153.69-7.15Q153.74-7.05 153.89-7.05L153.89-7.05Q154.04-7.05 154.09-7.25L154.09-7.25Q155.54-10.95 156.69-13.93 157.84-16.9 159.01-19.88 160.19-22.85 161.59-26.45L161.59-26.45Q162.04-27.6 162.54-28.95 163.04-30.3 163.39-31.3 163.74-32.3 163.74-32.3L163.74-32.3Q166.09-32.15 167.59-32.15L167.59-32.15Q168.89-32.15 170.51-32.2 172.14-32.25 173.04-32.3L173.04-32.3Q173.09-32.2 173.14-31.55 173.19-30.9 173.19-30.9L173.19-30.9Q172.84-30.9 172.06-30.8 171.29-30.7 170.59-30.5 169.89-30.3 169.74-30.05L169.74-30.05Q169.59-29.7 169.54-29.15 169.49-28.6 169.49-28.15L169.49-28.15Q169.54-26.9 169.59-24.35 169.64-21.8 169.71-18.63 169.79-15.45 169.86-12.35 169.94-9.25 169.99-6.85L169.99-6.85Q170.04-5.45 170.14-4.2 170.24-2.95 170.59-2.1L170.59-2.1Q170.74-1.75 171.49-1.58 172.24-1.4 173.01-1.33 173.79-1.25 173.99-1.25L173.99-1.25Q174.19-0.9 174.16-0.43 174.14 0.05 174.09 0.15L174.09 0.15Q172.64 0.05 171.26-0.03 169.89-0.1 168.29-0.1L168.29-0.1Q166.59-0.1 165.34-0.03 164.09 0.05 162.39 0.15L162.39 0.15Q162.34 0.05 162.29-0.45 162.24-0.95 162.39-1.25L162.39-1.25Q162.69-1.25 163.34-1.33 163.99-1.4 164.64-1.53 165.29-1.65 165.59-1.8L165.59-1.8Q165.84-1.95 165.94-2.65 166.04-3.35 166.04-3.85L166.04-3.85Q166.04-4.4 165.99-5.28 165.94-6.15 165.94-6.7L165.94-6.7Q165.84-10.25 165.74-13.53 165.64-16.8 165.54-20.23 165.44-23.65 165.29-27.6L165.29-27.6Q165.29-27.75 165.19-28.15 165.09-28.55 164.84-28.55L164.84-28.55Q164.74-28.55 164.59-28.2L164.59-28.2Q163.09-24.45 161.81-21.25 160.54-18.05 159.34-15.08 158.14-12.1 156.91-9.03 155.69-5.95 154.29-2.4L154.29-2.4Q154.19-2.2 153.84-1.6 153.49-1 153.11-0.48 152.74 0.05 152.44 0.1L152.44 0.1Q152.34 0.15 152.09 0.05L152.09 0.05Q152.04 0 151.99 0L151.99 0 140.09-28.5Q140.04-25.3 139.94-21.9 139.84-18.5 139.76-15.3 139.69-12.1 139.61-9.53 139.54-6.95 139.49-5.38 139.44-3.8 139.44-3.65L139.44-3.65Q139.44-3.3 139.49-2.88 139.54-2.45 139.64-2.15L139.64-2.15Q139.79-1.8 140.66-1.6 141.54-1.4 142.44-1.33 143.34-1.25 143.54-1.25L143.54-1.25Q143.74-1.05 143.69-0.5 143.64 0.05 143.59 0.15L143.59 0.15Q142.14 0.05 141.09-0.03 140.04-0.1 138.44-0.1L138.44-0.1Q136.74-0.1 135.59-0.03 134.44 0.05 132.74 0.15L132.74 0.15Q132.69 0.05 132.64-0.45 132.59-0.95 132.74-1.25L132.74-1.25Q133.04-1.25 133.91-1.35 134.79-1.45 135.64-1.65 136.49-1.85 136.69-2.15L136.69-2.15Q137.04-2.65 137.14-3.23 137.24-3.8 137.29-4.6L137.29-4.6Q137.44-9 137.56-13.05 137.69-17.1 137.76-20.33 137.84-23.55 137.89-25.58 137.94-27.6 137.94-27.95L137.94-27.95Q137.94-28.5 137.91-29 137.89-29.5 137.74-29.9L137.74-29.9Q137.64-30.2 136.91-30.43 136.19-30.65 135.41-30.78 134.64-30.9 134.34-30.9L134.34-30.9Q134.29-30.9 134.29-31.58 134.29-32.25 134.34-32.3L134.34-32.3Q135.49-32.25 136.19-32.2 136.89-32.15 137.59-32.13 138.29-32.1 139.39-32.1ZM187.08-21.3L187.08-21.3Q188.48-21.3 189.71-20.4 190.93-19.5 191.68-18 192.43-16.5 192.43-14.6L192.43-14.6 192.43-4.55Q192.43-3.6 192.78-2.93 193.13-2.25 193.93-2.25L193.93-2.25Q194.63-2.25 195.03-2.55 195.43-2.85 195.53-2.9L195.53-2.9Q195.63-2.9 195.68-2.75 195.73-2.6 195.73-2.5L195.73-2.5Q195.73-1.95 195.48-1.55L195.48-1.55Q195.18-1.3 194.51-0.85 193.83-0.4 193.11-0.05 192.38 0.3 191.83 0.3L191.83 0.3Q190.78 0.3 189.96-0.75 189.13-1.8 188.88-2.9L188.88-2.9Q188.68-2.7 187.96-2.15 187.23-1.6 186.28-1.03 185.33-0.45 184.41-0.03 183.48 0.4 182.83 0.4L182.83 0.4Q180.43 0.4 178.78-1.23 177.13-2.85 177.13-5.2L177.13-5.2Q177.13-6.7 177.96-7.78 178.78-8.85 179.58-9.15L179.58-9.15Q180.98-9.65 182.71-10.23 184.43-10.8 185.93-11.35 187.43-11.9 188.13-12.2L188.13-12.2Q188.53-12.35 188.63-12.58 188.73-12.8 188.73-13.45L188.73-13.45 188.73-14.75Q188.73-15.85 188.18-16.93 187.63-18 186.68-18.73 185.73-19.45 184.53-19.45L184.53-19.45Q183.28-19.45 182.68-18.65 182.08-17.85 181.83-16.4L181.83-16.4Q181.38-14.05 179.53-14.05L179.53-14.05Q178.73-14.05 178.31-14.7 177.88-15.35 177.88-16.1L177.88-16.1Q177.88-16.25 177.98-16.68 178.08-17.1 178.23-17.3L178.23-17.3Q178.98-18 180.38-18.95 181.78-19.9 183.56-20.6 185.33-21.3 187.08-21.3ZM184.48-2.25L184.48-2.25Q185.33-2.25 186.33-2.65 187.33-3.05 188.03-3.53 188.73-4 188.73-4.25L188.73-4.25 188.73-10.9Q187.78-10.6 186.33-10.15 184.88-9.7 184.18-9.45L184.18-9.45Q182.88-8.95 182.03-8 181.18-7.05 181.18-5.65L181.18-5.65Q181.18-4.3 182.13-3.28 183.08-2.25 184.48-2.25ZM204.13-27.5L204.13-21.1 210.43-21.1Q210.68-21.1 210.68-20.55L210.68-20.55Q210.68-19.8 209.98-19.1L209.98-19.1 204.13-19.1 204.13-6.3Q204.13-2.3 207.38-2.3L207.38-2.3Q208.48-2.3 209.38-2.75 210.28-3.2 210.53-3.4L210.53-3.4Q210.68-3.35 210.68-3.1L210.68-3.1Q210.68-2.55 210.48-2.35L210.48-2.35Q210.13-1.95 209.41-1.3 208.68-0.65 207.68-0.15 206.68 0.35 205.48 0.35L205.48 0.35Q204.23 0.35 203.06-0.1 201.88-0.55 201.13-1.7 200.38-2.85 200.38-4.95L200.38-4.95 200.38-19.1 197.53-19.1Q197.43-19.1 197.38-19.28 197.33-19.45 197.33-19.55L197.33-19.55Q197.33-19.65 197.63-20.03 197.93-20.4 198.26-20.75 198.58-21.1 198.58-21.1L198.58-21.1 200.38-21.1 200.38-24.15Q200.88-24.7 201.56-25.43 202.23-26.15 202.78-26.78 203.33-27.4 203.38-27.45L203.38-27.45Q203.58-27.65 203.86-27.65 204.13-27.65 204.13-27.5L204.13-27.5ZM230.13-18.85L230.13-18.85Q230.13-17.55 229.53-17.03 228.93-16.5 228.28-16.5L228.28-16.5Q227.48-16.5 226.78-17.2 226.08-17.9 225.43-18.3L225.43-18.3Q224.63-18.85 224.13-19.05 223.63-19.25 222.68-19.25L222.68-19.25Q221.38-19.25 220.1-18.28 218.83-17.3 218-15.5 217.18-13.7 217.18-11.1L217.18-11.1Q217.18-6.85 219.48-4.85 221.78-2.85 225.08-2.85L225.08-2.85Q227.13-2.85 228.45-3.8 229.78-4.75 230.28-5.3L230.28-5.3Q230.33-5.3 230.5-5.13 230.68-4.95 230.68-4.65L230.68-4.65Q230.68-4.25 230.38-3.75L230.38-3.75Q229.93-3.05 228.98-2.08 228.03-1.1 226.58-0.35 225.13 0.4 223.23 0.4L223.23 0.4Q220.28 0.4 218.05-1 215.83-2.4 214.6-4.65 213.38-6.9 213.38-9.45L213.38-9.45Q213.38-12.15 214.5-14.33 215.63-16.5 217.4-18.1 219.18-19.7 221.25-20.55 223.33-21.4 225.23-21.4L225.23-21.4Q227.93-21.4 229.63-20.2L229.63-20.2Q229.78-20.05 229.95-19.65 230.13-19.25 230.13-18.85ZM247.13-21.4L247.13-21.4Q249.78-21.4 251.13-20.3 252.48-19.2 252.95-16.9 253.43-14.6 253.43-11.05L253.43-11.05 253.43-5.65Q253.43-4.55 253.45-3.6 253.48-2.65 253.68-2.05L253.68-2.05Q253.78-1.8 254.4-1.6 255.03-1.4 255.75-1.33 256.48-1.25 256.78-1.25L256.78-1.25Q256.93-1.05 256.95-0.55 256.98-0.05 256.78 0.15L256.78 0.15Q255.28 0.05 254.13-0.03 252.98-0.1 251.53-0.1L251.53-0.1Q250.13-0.1 249-0.03 247.88 0.05 246.38 0.15L246.38 0.15Q246.18-0.05 246.2-0.55 246.23-1.05 246.38-1.25L246.38-1.25Q246.68-1.25 247.38-1.33 248.08-1.4 248.73-1.6 249.38-1.8 249.43-2.05L249.43-2.05Q249.63-2.65 249.65-3.6 249.68-4.55 249.68-5.65L249.68-5.65 249.68-10.55Q249.68-13.6 249.28-15.33 248.88-17.05 247.83-17.8 246.78-18.55 244.88-18.55L244.88-18.55Q243.98-18.55 242.9-17.98 241.83-17.4 241.03-16.75 240.23-16.1 240.23-15.85L240.23-15.85 240.23-5.65Q240.23-4.55 240.25-3.6 240.28-2.65 240.48-2.05L240.48-2.05Q240.58-1.8 241.2-1.6 241.83-1.4 242.55-1.33 243.28-1.25 243.58-1.25L243.58-1.25Q243.73-1.05 243.75-0.55 243.78-0.05 243.58 0.15L243.58 0.15Q242.08 0.05 240.93-0.03 239.78-0.1 238.33-0.1L238.33-0.1Q236.93-0.1 235.8-0.03 234.68 0.05 233.18 0.15L233.18 0.15Q232.98-0.05 233-0.55 233.03-1.05 233.18-1.25L233.18-1.25Q233.48-1.25 234.18-1.33 234.88-1.4 235.53-1.6 236.18-1.8 236.23-2.05L236.23-2.05Q236.43-2.65 236.45-3.6 236.48-4.55 236.48-5.65L236.48-5.65 236.48-27.25Q236.48-27.75 236.45-28.55 236.43-29.35 236.23-29.8L236.23-29.8Q236.03-30.35 235.15-30.5 234.28-30.65 233.28-30.65L233.28-30.65Q233.23-30.65 233.2-31.28 233.18-31.9 233.33-31.95L233.33-31.95Q235.18-32.15 236.93-32.68 238.68-33.2 240.23-33.9L240.23-33.9Q240.43-33.9 240.6-33.63 240.78-33.35 240.78-33.1L240.78-33.1Q240.78-33.1 240.5-32 240.23-30.9 240.23-28.85L240.23-28.85 240.23-17.8Q240.23-17.7 240.38-17.7L240.38-17.7Q240.43-17.7 240.53-17.8L240.53-17.8Q241.03-18.35 242.15-19.2 243.28-20.05 244.63-20.73 245.98-21.4 247.13-21.4Z" opacity="1" transform="matrix(1,0,0,1,0,0)" fill="black" class="wordmark-text-0" id="SvgjsPath2611"></path></svg></g></svg></g></svg></g></svg></g><g><svg viewBox="0 0 125.3795800355772 125.3795800355772" height="125.3795800355772" width="125.3795800355772"><g><svg></svg></g><g id="SvgjsG2610"><svg viewBox="0 0 125.3795800355772 125.3795800355772" height="125.3795800355772" width="125.3795800355772"><g><path d="M0 62.69c0-34.623 28.067-62.69 62.69-62.69 34.623 0 62.69 28.067 62.69 62.69 0 34.623-28.067 62.69-62.69 62.69-34.623 0-62.69-28.067-62.69-62.69zM62.69 120.575c31.969 0 57.885-25.916 57.885-57.885 0-31.969-25.916-57.885-57.885-57.885-31.969 0-57.885 25.916-57.885 57.885 0 31.969 25.916 57.885 57.885 57.885z" fill="black" stroke="transparent"></path></g><g transform="matrix(1,0,0,1,36.224862996614675,30.400848648000583)"><svg viewBox="0 0 52.92985404234785 64.57788273957604" height="64.57788273957604" width="52.92985404234785"><g><svg xmlns="http://www.w3.org/2000/svg" xmlns:xlink="http://www.w3.org/1999/xlink" version="1.1" x="0" y="0" viewBox="23.312999725341797 17.440000534057617 53.375003814697266 65.1209945678711" enable-background="new 0 0 100 100" xml:space="preserve" height="64.57788273957604" width="52.92985404234785" class="icon-b-0" data-fill-palette-color="accent" id="SvgjsSvg2609"><g fill="black"><path d="M66.066 22.048V17.44H33.941V22.048H23.313V82.561H76.688V22.048zM36.941 22.636L46.179 38.637H36.941zM48.5 79.561H26.313V25.048H33.942V41.637H47.913L48.501 42.656zM39.138 20.439H60.864L50 39.254zM63.066 22.622V38.637H53.82zM73.688 79.561H51.5V42.656L52.088 41.637H66.067V25.048H73.688z" fill="black"></path><rect x="55.696" y="45.52" width="14.55" height="3" fill="black"></rect><circle cx="45.125" cy="47.02" r="2.125" fill="black"></circle><circle cx="45.125" cy="57.895" r="2.125" fill="black"></circle><circle cx="45.125" cy="68.77" r="2.125" fill="black"></circle></g></svg></g></svg></g></svg></g></svg></g></svg></g><defs></defs></svg><rect width="395.52" height="90.81520067863568" fill="black" stroke="none" visibility="hidden"></rect></g></mask></svg><rect width="395.52" height="90.81520067863568" fill="black" stroke="none" visibility="hidden"></rect></g></mask><linearGradient x1="0" x2="1" y1="0.548" y2="0.55" id="b6c9bb76-6bfc-4df1-b8b1-f2afb6b14510"><stop stop-color="#ff6cab" offset="0"></stop><stop stop-color="#7366ff" offset="1"></stop></linearGradient><rect width="395.5199890136719" height="90.81520080566406" fill="url(#b6c9bb76-6bfc-4df1-b8b1-f2afb6b14510)" mask="url(#0acd44ec-1605-4dbc-9471-950f8fc888f8)" data-fill-palette-color="accent"></rect></svg><rect width="395.52" height="90.81520067863568" fill="none" stroke="none" visibility="hidden"></rect></g></svg></g></g></g></g><rect width="12" height="12" x="117.24002529373365" y="149.5923935215405" rx="2.5" ry="2.5" fill="transparent" class="logo-element-hover-target"></rect></svg>