<svg width="36" height="40" viewBox="0 0 36 40" fill="none" xmlns="http://www.w3.org/2000/svg">
<path d="M18.0002 25C20.4164 25 22.3752 22.7614 22.3752 20C22.3752 17.2386 20.4164 15 18.0002 15C15.5839 15 13.6252 17.2386 13.6252 20C13.6252 22.7614 15.5839 25 18.0002 25Z" stroke="#1E1E1E" stroke-width="4" stroke-linecap="round" stroke-linejoin="round"/>
<path d="M28.7919 25C28.5977 25.5027 28.5398 26.0603 28.6256 26.601C28.7114 27.1416 28.9369 27.6405 29.2731 28.0333L29.3606 28.1333C29.6318 28.4429 29.8469 28.8105 29.9937 29.2152C30.1405 29.6199 30.216 30.0536 30.216 30.4917C30.216 30.9297 30.1405 31.3635 29.9937 31.7681C29.8469 32.1728 29.6318 32.5404 29.3606 32.85C29.0897 33.1599 28.7681 33.4058 28.414 33.5735C28.0599 33.7413 27.6804 33.8276 27.2971 33.8276C26.9138 33.8276 26.5342 33.7413 26.1802 33.5735C25.8261 33.4058 25.5044 33.1599 25.2335 32.85L25.146 32.75C24.8023 32.3658 24.3658 32.108 23.8927 32.01C23.4196 31.912 22.9317 31.9781 22.4919 32.2C22.0605 32.4113 21.6927 32.7621 21.4336 33.2092C21.1744 33.6564 21.0354 34.1804 21.0335 34.7167V35C21.0335 35.8841 20.7262 36.7319 20.1793 37.357C19.6323 37.9821 18.8904 38.3333 18.1169 38.3333C17.3433 38.3333 16.6014 37.9821 16.0545 37.357C15.5075 36.7319 15.2002 35.8841 15.2002 35V34.85C15.1889 34.2983 15.0327 33.7633 14.7518 33.3145C14.4709 32.8657 14.0784 32.5238 13.6252 32.3333C13.1853 32.1115 12.6974 32.0453 12.2243 32.1433C11.7513 32.2414 11.3147 32.4991 10.971 32.8833L10.8835 32.9833C10.6126 33.2933 10.291 33.5391 9.93689 33.7069C9.58282 33.8746 9.20328 33.961 8.81999 33.961C8.43669 33.961 8.05715 33.8746 7.70308 33.7069C7.349 33.5391 7.02732 33.2933 6.75644 32.9833C6.48526 32.6738 6.27013 32.3061 6.12335 31.9015C5.97657 31.4968 5.90102 31.0631 5.90102 30.625C5.90102 30.187 5.97657 29.7532 6.12335 29.3485C6.27013 28.9439 6.48526 28.5762 6.75644 28.2667L6.84394 28.1667C7.18014 27.7739 7.40567 27.275 7.49145 26.7343C7.57723 26.1937 7.51932 25.636 7.32519 25.1333C7.14033 24.6404 6.83338 24.22 6.44212 23.9238C6.05087 23.6277 5.59238 23.4688 5.12311 23.4667H4.87519C4.10165 23.4667 3.35978 23.1155 2.8128 22.4904C2.26582 21.8652 1.95853 21.0174 1.95853 20.1333C1.95853 19.2493 2.26582 18.4014 2.8128 17.7763C3.35978 17.1512 4.10165 16.8 4.87519 16.8H5.00644C5.48914 16.7871 5.95728 16.6085 6.35 16.2875C6.74273 15.9665 7.04186 15.5179 7.20853 15C7.40265 14.4973 7.46056 13.9397 7.37478 13.399C7.28901 12.8584 7.06348 12.3595 6.72728 11.9667L6.63978 11.8667C6.3686 11.5571 6.15347 11.1895 6.00669 10.7848C5.85991 10.3801 5.78436 9.94639 5.78436 9.50834C5.78436 9.07029 5.85991 8.63653 6.00669 8.23187C6.15347 7.82721 6.3686 7.45958 6.63978 7.15C6.91066 6.84008 7.23233 6.59422 7.58641 6.42647C7.94049 6.25872 8.32002 6.17238 8.70332 6.17238C9.08661 6.17238 9.46615 6.25872 9.82023 6.42647C10.1743 6.59422 10.496 6.84008 10.7669 7.15L10.8544 7.25C11.1981 7.63423 11.6346 7.89198 12.1077 7.99001C12.5807 8.08804 13.0687 8.02186 13.5085 7.8H13.6252C14.0565 7.58873 14.4244 7.23793 14.6835 6.79078C14.9426 6.34363 15.0817 5.81965 15.0835 5.28334V5C15.0835 4.11595 15.3908 3.2681 15.9378 2.64298C16.4848 2.01786 17.2266 1.66667 18.0002 1.66667C18.7737 1.66667 19.5156 2.01786 20.0626 2.64298C20.6096 3.2681 20.9169 4.11595 20.9169 5V5.15C20.9187 5.68632 21.0578 6.2103 21.3169 6.65745C21.576 7.1046 21.9439 7.4554 22.3752 7.66667C22.8151 7.88853 23.303 7.95471 23.7761 7.85668C24.2491 7.75865 24.6857 7.5009 25.0294 7.11667L25.1169 7.01667C25.3877 6.70675 25.7094 6.46089 26.0635 6.29314C26.4176 6.12539 26.7971 6.03905 27.1804 6.03905C27.5637 6.03905 27.9432 6.12539 28.2973 6.29314C28.6514 6.46089 28.9731 6.70675 29.2439 7.01667C29.5151 7.32625 29.7303 7.69388 29.877 8.09854C30.0238 8.5032 30.0994 8.93695 30.0994 9.375C30.0994 9.81306 30.0238 10.2468 29.877 10.6515C29.7303 11.0561 29.5151 11.4238 29.2439 11.7333L29.1564 11.8333C28.8202 12.2261 28.5947 12.725 28.5089 13.2657C28.4232 13.8063 28.4811 14.364 28.6752 14.8667V15C28.8601 15.493 29.167 15.9134 29.5583 16.2095C29.9495 16.5056 30.408 16.6645 30.8773 16.6667H31.1252C31.8987 16.6667 32.6406 17.0179 33.1876 17.643C33.7346 18.2681 34.0419 19.1159 34.0419 20C34.0419 20.8841 33.7346 21.7319 33.1876 22.357C32.6406 22.9821 31.8987 23.3333 31.1252 23.3333H30.9939C30.5247 23.3355 30.0662 23.4944 29.6749 23.7905C29.2837 24.0866 28.9767 24.5071 28.7919 25Z" stroke="#1E1E1E" stroke-width="4" stroke-linecap="round" stroke-linejoin="round"/>
</svg>
