<svg width="360" height="800" viewBox="0 0 360 800" fill="none" xmlns="http://www.w3.org/2000/svg">
<rect width="360" height="800" fill="white"/>
<rect x="116" y="241" width="129" height="129" rx="64.5" fill="#EADDFF"/>
<path fill-rule="evenodd" clip-rule="evenodd" d="M199.851 292.6C199.851 303.287 191.187 311.95 180.501 311.95C169.814 311.95 161.151 303.287 161.151 292.6C161.151 281.913 169.814 273.25 180.501 273.25C191.187 273.25 199.851 281.913 199.851 292.6ZM193.401 292.6C193.401 299.724 187.625 305.5 180.501 305.5C173.376 305.5 167.601 299.724 167.601 292.6C167.601 285.476 173.376 279.7 180.501 279.7C187.625 279.7 193.401 285.476 193.401 292.6Z" fill="#4F378A"/>
<path d="M180.501 321.625C159.621 321.625 141.831 333.972 135.054 351.269C136.705 352.909 138.444 354.459 140.263 355.913C145.31 340.032 161.14 328.075 180.501 328.075C199.861 328.075 215.692 340.032 220.738 355.913C222.558 354.459 224.297 352.909 225.948 351.269C219.171 333.972 201.381 321.625 180.501 321.625Z" fill="#4F378A"/>
<g clip-path="url(#clip0_4_14)">
<path d="M154.816 395.047H156.525V401.698C156.525 402.455 156.361 403.088 156.033 403.599C155.705 404.109 155.258 404.494 154.693 404.754C154.132 405.009 153.506 405.137 152.813 405.137C152.098 405.137 151.46 405.009 150.899 404.754C150.338 404.494 149.896 404.109 149.573 403.599C149.254 403.088 149.094 402.455 149.094 401.698V395.047H150.803V401.698C150.803 402.177 150.885 402.571 151.049 402.881C151.213 403.186 151.446 403.412 151.747 403.558C152.047 403.703 152.403 403.776 152.813 403.776C153.223 403.776 153.576 403.703 153.873 403.558C154.173 403.412 154.406 403.186 154.57 402.881C154.734 402.571 154.816 402.177 154.816 401.698V395.047ZM162.477 402.997C162.477 402.833 162.436 402.685 162.354 402.553C162.271 402.416 162.114 402.293 161.882 402.184C161.654 402.074 161.317 401.974 160.87 401.883C160.478 401.796 160.118 401.694 159.79 401.575C159.466 401.452 159.188 401.304 158.956 401.131C158.724 400.958 158.544 400.753 158.416 400.516C158.288 400.279 158.225 400.005 158.225 399.695C158.225 399.395 158.291 399.11 158.423 398.841C158.555 398.572 158.744 398.335 158.99 398.13C159.236 397.925 159.535 397.763 159.886 397.645C160.241 397.526 160.638 397.467 161.075 397.467C161.695 397.467 162.226 397.572 162.668 397.781C163.115 397.986 163.456 398.267 163.693 398.622C163.93 398.973 164.049 399.369 164.049 399.812H162.401C162.401 399.616 162.351 399.433 162.251 399.265C162.155 399.091 162.009 398.952 161.813 398.848C161.618 398.738 161.371 398.684 161.075 398.684C160.793 398.684 160.558 398.729 160.371 398.82C160.189 398.907 160.052 399.021 159.961 399.162C159.874 399.303 159.831 399.458 159.831 399.627C159.831 399.75 159.854 399.862 159.899 399.962C159.95 400.058 160.032 400.146 160.146 400.229C160.259 400.306 160.414 400.379 160.61 400.447C160.811 400.516 161.062 400.582 161.362 400.646C161.927 400.764 162.413 400.917 162.818 401.104C163.229 401.286 163.543 401.523 163.762 401.814C163.98 402.102 164.09 402.466 164.09 402.908C164.09 403.236 164.019 403.537 163.878 403.811C163.741 404.079 163.541 404.314 163.276 404.515C163.012 404.711 162.695 404.863 162.326 404.973C161.962 405.082 161.551 405.137 161.096 405.137C160.426 405.137 159.858 405.018 159.394 404.781C158.929 404.54 158.576 404.232 158.334 403.858C158.097 403.48 157.979 403.088 157.979 402.683H159.571C159.59 402.988 159.674 403.232 159.824 403.414C159.979 403.592 160.171 403.722 160.398 403.804C160.631 403.881 160.87 403.92 161.116 403.92C161.412 403.92 161.661 403.881 161.861 403.804C162.062 403.722 162.215 403.612 162.319 403.476C162.424 403.334 162.477 403.175 162.477 402.997ZM168.893 405.137C168.346 405.137 167.852 405.048 167.41 404.87C166.972 404.688 166.598 404.435 166.288 404.111C165.983 403.788 165.748 403.407 165.584 402.97C165.42 402.532 165.338 402.061 165.338 401.555V401.281C165.338 400.702 165.423 400.178 165.591 399.709C165.76 399.24 165.995 398.839 166.295 398.506C166.596 398.169 166.952 397.911 167.362 397.733C167.772 397.556 168.216 397.467 168.695 397.467C169.223 397.467 169.686 397.556 170.082 397.733C170.479 397.911 170.807 398.162 171.067 398.485C171.331 398.804 171.527 399.185 171.655 399.627C171.787 400.069 171.853 400.557 171.853 401.09V401.794H166.138V400.611H170.226V400.481C170.217 400.185 170.158 399.907 170.048 399.647C169.943 399.388 169.782 399.178 169.563 399.019C169.344 398.859 169.052 398.779 168.688 398.779C168.414 398.779 168.171 398.839 167.956 398.957C167.747 399.071 167.571 399.237 167.43 399.456C167.289 399.675 167.179 399.939 167.102 400.249C167.029 400.554 166.993 400.898 166.993 401.281V401.555C166.993 401.878 167.036 402.179 167.122 402.457C167.214 402.73 167.346 402.97 167.519 403.175C167.692 403.38 167.902 403.542 168.148 403.66C168.394 403.774 168.674 403.831 168.989 403.831C169.385 403.831 169.738 403.751 170.048 403.592C170.358 403.432 170.627 403.207 170.855 402.915L171.723 403.756C171.564 403.988 171.356 404.212 171.101 404.426C170.846 404.635 170.534 404.806 170.164 404.938C169.8 405.071 169.376 405.137 168.893 405.137ZM174.892 399.012V405H173.245V397.604H174.817L174.892 399.012ZM177.155 397.556L177.141 399.087C177.041 399.069 176.932 399.055 176.813 399.046C176.699 399.037 176.585 399.032 176.471 399.032C176.189 399.032 175.941 399.073 175.726 399.155C175.512 399.233 175.332 399.347 175.186 399.497C175.045 399.643 174.936 399.821 174.858 400.03C174.781 400.24 174.735 400.475 174.721 400.734L174.346 400.762C174.346 400.297 174.391 399.866 174.482 399.47C174.573 399.073 174.71 398.725 174.892 398.424C175.079 398.123 175.312 397.888 175.59 397.72C175.872 397.551 176.198 397.467 176.567 397.467C176.667 397.467 176.775 397.476 176.888 397.494C177.007 397.512 177.096 397.533 177.155 397.556ZM179.921 399.183V405H178.274V397.604H179.825L179.921 399.183ZM179.627 401.028L179.094 401.021C179.099 400.497 179.171 400.017 179.313 399.579C179.459 399.142 179.659 398.766 179.914 398.451C180.174 398.137 180.484 397.895 180.844 397.727C181.204 397.553 181.605 397.467 182.047 397.467C182.403 397.467 182.724 397.517 183.011 397.617C183.303 397.713 183.551 397.87 183.756 398.089C183.966 398.308 184.125 398.592 184.235 398.943C184.344 399.29 184.399 399.716 184.399 400.222V405H182.744V400.215C182.744 399.859 182.692 399.579 182.587 399.374C182.487 399.164 182.339 399.016 182.143 398.93C181.951 398.839 181.712 398.793 181.425 398.793C181.142 398.793 180.89 398.852 180.666 398.971C180.443 399.089 180.254 399.251 180.099 399.456C179.948 399.661 179.832 399.898 179.75 400.167C179.668 400.436 179.627 400.723 179.627 401.028ZM190.35 403.517V399.989C190.35 399.725 190.302 399.497 190.207 399.306C190.111 399.114 189.965 398.966 189.769 398.861C189.578 398.757 189.336 398.704 189.045 398.704C188.776 398.704 188.543 398.75 188.347 398.841C188.151 398.932 187.999 399.055 187.889 399.21C187.78 399.365 187.725 399.54 187.725 399.736H186.085C186.085 399.445 186.155 399.162 186.296 398.889C186.438 398.615 186.643 398.371 186.912 398.157C187.181 397.943 187.502 397.774 187.876 397.651C188.249 397.528 188.669 397.467 189.133 397.467C189.689 397.467 190.182 397.56 190.61 397.747C191.043 397.934 191.382 398.216 191.629 398.595C191.879 398.968 192.004 399.438 192.004 400.003V403.291C192.004 403.628 192.027 403.931 192.073 404.2C192.123 404.465 192.194 404.695 192.285 404.891V405H190.596C190.519 404.822 190.457 404.597 190.412 404.323C190.371 404.045 190.35 403.776 190.35 403.517ZM190.589 400.502L190.603 401.521H189.421C189.115 401.521 188.846 401.55 188.614 401.609C188.381 401.664 188.188 401.746 188.033 401.855C187.878 401.965 187.762 402.097 187.684 402.252C187.607 402.407 187.568 402.582 187.568 402.778C187.568 402.974 187.614 403.154 187.705 403.318C187.796 403.478 187.928 403.603 188.101 403.694C188.279 403.785 188.493 403.831 188.744 403.831C189.081 403.831 189.375 403.763 189.626 403.626C189.881 403.485 190.081 403.314 190.227 403.113C190.373 402.908 190.45 402.715 190.46 402.532L190.993 403.264C190.938 403.451 190.845 403.651 190.713 403.865C190.58 404.079 190.407 404.285 190.193 404.48C189.983 404.672 189.73 404.829 189.434 404.952C189.143 405.075 188.805 405.137 188.422 405.137C187.939 405.137 187.509 405.041 187.13 404.85C186.752 404.654 186.456 404.392 186.242 404.063C186.028 403.731 185.921 403.355 185.921 402.936C185.921 402.544 185.993 402.197 186.139 401.896C186.29 401.591 186.508 401.336 186.796 401.131C187.087 400.926 187.443 400.771 187.862 400.666C188.281 400.557 188.76 400.502 189.297 400.502H190.589ZM195.475 399.107V405H193.827V397.604H195.379L195.475 399.107ZM195.208 401.028L194.647 401.021C194.647 400.511 194.711 400.039 194.839 399.606C194.966 399.174 195.153 398.798 195.399 398.479C195.646 398.155 195.951 397.907 196.315 397.733C196.685 397.556 197.111 397.467 197.594 397.467C197.931 397.467 198.239 397.517 198.517 397.617C198.799 397.713 199.043 397.866 199.248 398.075C199.458 398.285 199.617 398.554 199.727 398.882C199.84 399.21 199.897 399.606 199.897 400.071V405H198.25V400.215C198.25 399.855 198.195 399.572 198.086 399.367C197.981 399.162 197.828 399.016 197.628 398.93C197.432 398.839 197.197 398.793 196.924 398.793C196.614 398.793 196.35 398.852 196.131 398.971C195.917 399.089 195.741 399.251 195.604 399.456C195.468 399.661 195.368 399.898 195.304 400.167C195.24 400.436 195.208 400.723 195.208 401.028ZM199.795 400.591L199.022 400.762C199.022 400.315 199.084 399.894 199.207 399.497C199.335 399.096 199.519 398.745 199.761 398.444C200.007 398.139 200.31 397.9 200.67 397.727C201.03 397.553 201.442 397.467 201.907 397.467C202.285 397.467 202.623 397.519 202.919 397.624C203.22 397.724 203.475 397.884 203.685 398.103C203.894 398.321 204.054 398.606 204.163 398.957C204.272 399.303 204.327 399.723 204.327 400.215V405H202.673V400.208C202.673 399.834 202.618 399.545 202.509 399.34C202.404 399.135 202.254 398.993 202.058 398.916C201.862 398.834 201.627 398.793 201.354 398.793C201.098 398.793 200.873 398.841 200.677 398.937C200.485 399.028 200.324 399.158 200.191 399.326C200.059 399.49 199.959 399.679 199.891 399.894C199.827 400.108 199.795 400.34 199.795 400.591ZM209.383 405.137C208.836 405.137 208.342 405.048 207.9 404.87C207.462 404.688 207.089 404.435 206.779 404.111C206.473 403.788 206.239 403.407 206.075 402.97C205.911 402.532 205.829 402.061 205.829 401.555V401.281C205.829 400.702 205.913 400.178 206.081 399.709C206.25 399.24 206.485 398.839 206.786 398.506C207.086 398.169 207.442 397.911 207.852 397.733C208.262 397.556 208.706 397.467 209.185 397.467C209.714 397.467 210.176 397.556 210.573 397.733C210.969 397.911 211.297 398.162 211.557 398.485C211.821 398.804 212.017 399.185 212.145 399.627C212.277 400.069 212.343 400.557 212.343 401.09V401.794H206.628V400.611H210.716V400.481C210.707 400.185 210.648 399.907 210.538 399.647C210.434 399.388 210.272 399.178 210.053 399.019C209.834 398.859 209.543 398.779 209.178 398.779C208.905 398.779 208.661 398.839 208.447 398.957C208.237 399.071 208.062 399.237 207.92 399.456C207.779 399.675 207.67 399.939 207.592 400.249C207.519 400.554 207.483 400.898 207.483 401.281V401.555C207.483 401.878 207.526 402.179 207.613 402.457C207.704 402.73 207.836 402.97 208.009 403.175C208.182 403.38 208.392 403.542 208.638 403.66C208.884 403.774 209.164 403.831 209.479 403.831C209.875 403.831 210.229 403.751 210.538 403.592C210.848 403.432 211.117 403.207 211.345 402.915L212.213 403.756C212.054 403.988 211.846 404.212 211.591 404.426C211.336 404.635 211.024 404.806 210.655 404.938C210.29 405.071 209.866 405.137 209.383 405.137Z" fill="#49454F"/>
</g>
<rect x="137.5" y="384.5" width="86" height="31" rx="7.5" stroke="#CAC4D0"/>
<path d="M331 41.6667L329.333 36.6667H317.667C316.75 36.6667 315.965 36.3403 315.312 35.6875C314.66 35.0347 314.333 34.25 314.333 33.3333V11.6667C314.333 10.75 314.66 9.96529 315.312 9.31251C315.965 8.65973 316.75 8.33334 317.667 8.33334H327.667L329.125 13.3333H344.333C345.306 13.3333 346.104 13.6458 346.729 14.2708C347.354 14.8958 347.667 15.6945 347.667 16.6667V38.3333C347.667 39.25 347.354 40.0347 346.729 40.6875C346.104 41.3403 345.306 41.6667 344.333 41.6667H331ZM322.917 29.3333C324.833 29.3333 326.41 28.7153 327.646 27.4792C328.882 26.2431 329.5 24.6389 329.5 22.6667C329.5 22.4445 329.493 22.2431 329.479 22.0625C329.465 21.882 329.431 21.6945 329.375 21.5H322.792V24.0833H326.5C326.278 24.8611 325.854 25.4653 325.229 25.8958C324.604 26.3264 323.847 26.5417 322.958 26.5417C321.875 26.5417 320.944 26.1528 320.167 25.375C319.389 24.5972 319 23.6389 319 22.5C319 21.3611 319.389 20.4028 320.167 19.625C320.944 18.8472 321.875 18.4583 322.958 18.4583C323.458 18.4583 323.931 18.5486 324.375 18.7292C324.819 18.9097 325.222 19.1806 325.583 19.5417L327.625 17.5833C327.042 16.9722 326.34 16.5 325.521 16.1667C324.701 15.8333 323.833 15.6667 322.917 15.6667C321.056 15.6667 319.465 16.3264 318.146 17.6458C316.826 18.9653 316.167 20.5833 316.167 22.5C316.167 24.4167 316.826 26.0347 318.146 27.3542C319.465 28.6736 321.056 29.3333 322.917 29.3333ZM334.083 30.1667L335 29.2917C334.611 28.8195 334.257 28.3611 333.937 27.9167C333.618 27.4722 333.306 27 333 26.5L334.083 30.1667ZM336.167 28.0417C336.944 27.125 337.535 26.25 337.937 25.4167C338.34 24.5833 338.611 23.9306 338.75 23.4583H332.125L332.625 25.2083H334.292C334.514 25.625 334.778 26.0764 335.083 26.5625C335.389 27.0486 335.75 27.5417 336.167 28.0417ZM332.667 40H344.333C344.833 40 345.236 39.8403 345.542 39.5208C345.847 39.2014 346 38.8056 346 38.3333V16.6667C346 16.1667 345.847 15.7639 345.542 15.4583C345.236 15.1528 344.833 15 344.333 15H329.625L331.583 21.75H334.875V20H336.583V21.75H342.667V23.4583H340.542C340.264 24.5139 339.847 25.5417 339.292 26.5417C338.736 27.5417 338.083 28.4722 337.333 29.3333L341.875 33.7917L340.667 35L336.167 30.5L334.667 32.0417L336 36.6667L332.667 40Z" fill="#1D1B20"/>
<g clip-path="url(#clip1_4_14)">
<path d="M154.016 447.288H151.425V445.928H154.016C154.467 445.928 154.832 445.855 155.11 445.709C155.388 445.563 155.591 445.363 155.718 445.107C155.851 444.848 155.917 444.551 155.917 444.219C155.917 443.904 155.851 443.61 155.718 443.337C155.591 443.059 155.388 442.836 155.11 442.667C154.832 442.498 154.467 442.414 154.016 442.414H151.952V451H150.236V441.047H154.016C154.786 441.047 155.44 441.184 155.978 441.457C156.52 441.726 156.933 442.1 157.215 442.578C157.498 443.052 157.639 443.594 157.639 444.205C157.639 444.848 157.498 445.399 157.215 445.859C156.933 446.32 156.52 446.673 155.978 446.919C155.44 447.165 154.786 447.288 154.016 447.288ZM163.201 449.517V445.989C163.201 445.725 163.153 445.497 163.058 445.306C162.962 445.114 162.816 444.966 162.62 444.861C162.429 444.757 162.187 444.704 161.896 444.704C161.627 444.704 161.394 444.75 161.198 444.841C161.002 444.932 160.85 445.055 160.74 445.21C160.631 445.365 160.576 445.54 160.576 445.736H158.936C158.936 445.445 159.006 445.162 159.147 444.889C159.289 444.615 159.494 444.371 159.763 444.157C160.032 443.943 160.353 443.774 160.727 443.651C161.1 443.528 161.52 443.467 161.984 443.467C162.54 443.467 163.033 443.56 163.461 443.747C163.894 443.934 164.233 444.216 164.479 444.595C164.73 444.968 164.855 445.438 164.855 446.003V449.291C164.855 449.628 164.878 449.931 164.924 450.2C164.974 450.465 165.045 450.695 165.136 450.891V451H163.447C163.37 450.822 163.308 450.597 163.263 450.323C163.222 450.045 163.201 449.776 163.201 449.517ZM163.44 446.502L163.454 447.521H162.271C161.966 447.521 161.697 447.55 161.465 447.609C161.232 447.664 161.039 447.746 160.884 447.855C160.729 447.965 160.613 448.097 160.535 448.252C160.458 448.407 160.419 448.582 160.419 448.778C160.419 448.974 160.465 449.154 160.556 449.318C160.647 449.478 160.779 449.603 160.952 449.694C161.13 449.785 161.344 449.831 161.595 449.831C161.932 449.831 162.226 449.763 162.477 449.626C162.732 449.485 162.932 449.314 163.078 449.113C163.224 448.908 163.301 448.715 163.311 448.532L163.844 449.264C163.789 449.451 163.696 449.651 163.563 449.865C163.431 450.079 163.258 450.285 163.044 450.48C162.834 450.672 162.581 450.829 162.285 450.952C161.993 451.075 161.656 451.137 161.273 451.137C160.79 451.137 160.36 451.041 159.981 450.85C159.603 450.654 159.307 450.392 159.093 450.063C158.879 449.731 158.771 449.355 158.771 448.936C158.771 448.544 158.844 448.197 158.99 447.896C159.141 447.591 159.359 447.336 159.646 447.131C159.938 446.926 160.294 446.771 160.713 446.666C161.132 446.557 161.611 446.502 162.148 446.502H163.44ZM170.828 448.997C170.828 448.833 170.787 448.685 170.704 448.553C170.622 448.416 170.465 448.293 170.233 448.184C170.005 448.074 169.668 447.974 169.221 447.883C168.829 447.796 168.469 447.694 168.141 447.575C167.817 447.452 167.539 447.304 167.307 447.131C167.075 446.958 166.895 446.753 166.767 446.516C166.639 446.279 166.576 446.005 166.576 445.695C166.576 445.395 166.642 445.11 166.774 444.841C166.906 444.572 167.095 444.335 167.341 444.13C167.587 443.925 167.886 443.763 168.237 443.645C168.592 443.526 168.989 443.467 169.426 443.467C170.046 443.467 170.577 443.572 171.019 443.781C171.466 443.986 171.807 444.267 172.044 444.622C172.281 444.973 172.4 445.369 172.4 445.812H170.752C170.752 445.616 170.702 445.433 170.602 445.265C170.506 445.091 170.36 444.952 170.164 444.848C169.968 444.738 169.722 444.684 169.426 444.684C169.144 444.684 168.909 444.729 168.722 444.82C168.54 444.907 168.403 445.021 168.312 445.162C168.225 445.303 168.182 445.458 168.182 445.627C168.182 445.75 168.205 445.862 168.25 445.962C168.301 446.058 168.383 446.146 168.496 446.229C168.61 446.306 168.765 446.379 168.961 446.447C169.162 446.516 169.413 446.582 169.713 446.646C170.278 446.764 170.764 446.917 171.169 447.104C171.579 447.286 171.894 447.523 172.113 447.814C172.331 448.102 172.441 448.466 172.441 448.908C172.441 449.236 172.37 449.537 172.229 449.811C172.092 450.079 171.892 450.314 171.627 450.515C171.363 450.711 171.046 450.863 170.677 450.973C170.313 451.082 169.902 451.137 169.447 451.137C168.777 451.137 168.209 451.018 167.745 450.781C167.28 450.54 166.926 450.232 166.685 449.858C166.448 449.48 166.329 449.088 166.329 448.683H167.922C167.94 448.988 168.025 449.232 168.175 449.414C168.33 449.592 168.522 449.722 168.749 449.804C168.982 449.881 169.221 449.92 169.467 449.92C169.763 449.92 170.012 449.881 170.212 449.804C170.413 449.722 170.565 449.612 170.67 449.476C170.775 449.334 170.828 449.175 170.828 448.997ZM178.133 448.997C178.133 448.833 178.092 448.685 178.01 448.553C177.928 448.416 177.77 448.293 177.538 448.184C177.31 448.074 176.973 447.974 176.526 447.883C176.134 447.796 175.774 447.694 175.446 447.575C175.123 447.452 174.845 447.304 174.612 447.131C174.38 446.958 174.2 446.753 174.072 446.516C173.944 446.279 173.881 446.005 173.881 445.695C173.881 445.395 173.947 445.11 174.079 444.841C174.211 444.572 174.4 444.335 174.646 444.13C174.892 443.925 175.191 443.763 175.542 443.645C175.897 443.526 176.294 443.467 176.731 443.467C177.351 443.467 177.882 443.572 178.324 443.781C178.771 443.986 179.112 444.267 179.349 444.622C179.586 444.973 179.705 445.369 179.705 445.812H178.057C178.057 445.616 178.007 445.433 177.907 445.265C177.811 445.091 177.665 444.952 177.47 444.848C177.274 444.738 177.027 444.684 176.731 444.684C176.449 444.684 176.214 444.729 176.027 444.82C175.845 444.907 175.708 445.021 175.617 445.162C175.53 445.303 175.487 445.458 175.487 445.627C175.487 445.75 175.51 445.862 175.555 445.962C175.606 446.058 175.688 446.146 175.802 446.229C175.915 446.306 176.07 446.379 176.266 446.447C176.467 446.516 176.718 446.582 177.018 446.646C177.583 446.764 178.069 446.917 178.474 447.104C178.885 447.286 179.199 447.523 179.418 447.814C179.637 448.102 179.746 448.466 179.746 448.908C179.746 449.236 179.675 449.537 179.534 449.811C179.397 450.079 179.197 450.314 178.932 450.515C178.668 450.711 178.351 450.863 177.982 450.973C177.618 451.082 177.207 451.137 176.752 451.137C176.082 451.137 175.514 451.018 175.05 450.781C174.585 450.54 174.232 450.232 173.99 449.858C173.753 449.48 173.635 449.088 173.635 448.683H175.227C175.246 448.988 175.33 449.232 175.48 449.414C175.635 449.592 175.827 449.722 176.054 449.804C176.287 449.881 176.526 449.92 176.772 449.92C177.068 449.92 177.317 449.881 177.517 449.804C177.718 449.722 177.871 449.612 177.975 449.476C178.08 449.334 178.133 449.175 178.133 448.997ZM183.298 449.359L185.007 443.604H186.06L185.773 445.326L184.05 451H183.107L183.298 449.359ZM182.293 443.604L183.626 449.387L183.736 451H182.683L180.68 443.604H182.293ZM187.659 449.318L188.951 443.604H190.558L188.562 451H187.509L187.659 449.318ZM186.237 443.604L187.926 449.291L188.138 451H187.195L185.451 445.319L185.164 443.604H186.237ZM191.464 447.384V447.227C191.464 446.693 191.542 446.199 191.697 445.743C191.852 445.283 192.075 444.884 192.367 444.547C192.663 444.205 193.023 443.941 193.447 443.754C193.875 443.562 194.358 443.467 194.896 443.467C195.438 443.467 195.921 443.562 196.345 443.754C196.774 443.941 197.136 444.205 197.432 444.547C197.728 444.884 197.954 445.283 198.109 445.743C198.264 446.199 198.341 446.693 198.341 447.227V447.384C198.341 447.917 198.264 448.411 198.109 448.867C197.954 449.323 197.728 449.722 197.432 450.063C197.136 450.401 196.776 450.665 196.352 450.856C195.928 451.043 195.448 451.137 194.91 451.137C194.367 451.137 193.882 451.043 193.454 450.856C193.03 450.665 192.67 450.401 192.374 450.063C192.077 449.722 191.852 449.323 191.697 448.867C191.542 448.411 191.464 447.917 191.464 447.384ZM193.112 447.227V447.384C193.112 447.716 193.146 448.031 193.214 448.327C193.283 448.623 193.39 448.883 193.536 449.106C193.682 449.33 193.868 449.505 194.096 449.633C194.324 449.76 194.595 449.824 194.91 449.824C195.215 449.824 195.479 449.76 195.703 449.633C195.931 449.505 196.117 449.33 196.263 449.106C196.409 448.883 196.516 448.623 196.585 448.327C196.657 448.031 196.694 447.716 196.694 447.384V447.227C196.694 446.898 196.657 446.589 196.585 446.297C196.516 446.001 196.407 445.739 196.256 445.511C196.111 445.283 195.924 445.105 195.696 444.978C195.473 444.845 195.206 444.779 194.896 444.779C194.586 444.779 194.317 444.845 194.089 444.978C193.866 445.105 193.682 445.283 193.536 445.511C193.39 445.739 193.283 446.001 193.214 446.297C193.146 446.589 193.112 446.898 193.112 447.227ZM201.477 445.012V451H199.829V443.604H201.401L201.477 445.012ZM203.739 443.556L203.726 445.087C203.625 445.069 203.516 445.055 203.397 445.046C203.284 445.037 203.17 445.032 203.056 445.032C202.773 445.032 202.525 445.073 202.311 445.155C202.096 445.233 201.916 445.347 201.771 445.497C201.629 445.643 201.52 445.821 201.442 446.03C201.365 446.24 201.319 446.475 201.306 446.734L200.93 446.762C200.93 446.297 200.975 445.866 201.066 445.47C201.158 445.073 201.294 444.725 201.477 444.424C201.663 444.123 201.896 443.888 202.174 443.72C202.456 443.551 202.782 443.467 203.151 443.467C203.252 443.467 203.359 443.476 203.473 443.494C203.591 443.512 203.68 443.533 203.739 443.556ZM209.246 449.469V440.5H210.901V451H209.404L209.246 449.469ZM204.434 447.384V447.24C204.434 446.68 204.5 446.169 204.632 445.709C204.764 445.244 204.956 444.845 205.206 444.513C205.457 444.175 205.762 443.918 206.122 443.74C206.482 443.558 206.888 443.467 207.339 443.467C207.786 443.467 208.178 443.553 208.515 443.727C208.852 443.9 209.139 444.148 209.376 444.472C209.613 444.791 209.802 445.174 209.944 445.62C210.085 446.062 210.185 446.554 210.245 447.097V447.555C210.185 448.083 210.085 448.566 209.944 449.004C209.802 449.441 209.613 449.82 209.376 450.139C209.139 450.458 208.85 450.704 208.508 450.877C208.171 451.05 207.777 451.137 207.326 451.137C206.879 451.137 206.476 451.043 206.116 450.856C205.76 450.67 205.457 450.408 205.206 450.07C204.956 449.733 204.764 449.337 204.632 448.881C204.5 448.421 204.434 447.922 204.434 447.384ZM206.081 447.24V447.384C206.081 447.721 206.111 448.035 206.17 448.327C206.234 448.619 206.332 448.876 206.464 449.1C206.596 449.318 206.767 449.492 206.977 449.619C207.191 449.742 207.446 449.804 207.743 449.804C208.116 449.804 208.424 449.722 208.665 449.558C208.907 449.394 209.096 449.173 209.233 448.895C209.374 448.612 209.47 448.298 209.52 447.951V446.714C209.493 446.445 209.436 446.194 209.349 445.962C209.267 445.729 209.155 445.527 209.014 445.354C208.873 445.176 208.697 445.039 208.488 444.943C208.283 444.843 208.039 444.793 207.756 444.793C207.455 444.793 207.2 444.857 206.991 444.984C206.781 445.112 206.608 445.287 206.471 445.511C206.339 445.734 206.241 445.994 206.177 446.29C206.113 446.586 206.081 446.903 206.081 447.24Z" fill="#49454F"/>
</g>
<rect x="137.5" y="430.5" width="86" height="31" rx="7.5" stroke="#CAC4D0"/>
<path d="M280 40C275.833 40 272.292 38.5417 269.375 35.625C266.458 32.7083 265 29.1667 265 25C265 20.8333 266.458 17.2917 269.375 14.375C272.292 11.4583 275.833 10 280 10C280.389 10 280.771 10.0139 281.146 10.0417C281.521 10.0694 281.889 10.1111 282.25 10.1667C281.111 10.9722 280.201 12.0208 279.521 13.3125C278.84 14.6042 278.5 16 278.5 17.5C278.5 20 279.375 22.125 281.125 23.875C282.875 25.625 285 26.5 287.5 26.5C289.028 26.5 290.431 26.1597 291.708 25.4792C292.986 24.7986 294.028 23.8889 294.833 22.75C294.889 23.1111 294.931 23.4792 294.958 23.8542C294.986 24.2292 295 24.6111 295 25C295 29.1667 293.542 32.7083 290.625 35.625C287.708 38.5417 284.167 40 280 40ZM280 36.6667C282.444 36.6667 284.639 35.9931 286.583 34.6458C288.528 33.2986 289.944 31.5417 290.833 29.375C290.278 29.5139 289.722 29.625 289.167 29.7083C288.611 29.7917 288.056 29.8333 287.5 29.8333C284.083 29.8333 281.174 28.6319 278.771 26.2292C276.368 23.8264 275.167 20.9167 275.167 17.5C275.167 16.9444 275.208 16.3889 275.292 15.8333C275.375 15.2778 275.486 14.7222 275.625 14.1667C273.458 15.0556 271.701 16.4722 270.354 18.4167C269.007 20.3611 268.333 22.5556 268.333 25C268.333 28.2222 269.472 30.9722 271.75 33.25C274.028 35.5278 276.778 36.6667 280 36.6667Z" fill="#1D1B20"/>
<path d="M331 41.6667L329.333 36.6667H317.667C316.75 36.6667 315.965 36.3403 315.312 35.6875C314.66 35.0347 314.333 34.25 314.333 33.3333V11.6667C314.333 10.75 314.66 9.96529 315.312 9.31251C315.965 8.65973 316.75 8.33334 317.667 8.33334H327.667L329.125 13.3333H344.333C345.306 13.3333 346.104 13.6458 346.729 14.2708C347.354 14.8958 347.667 15.6945 347.667 16.6667V38.3333C347.667 39.25 347.354 40.0347 346.729 40.6875C346.104 41.3403 345.306 41.6667 344.333 41.6667H331ZM322.917 29.3333C324.833 29.3333 326.41 28.7153 327.646 27.4792C328.882 26.2431 329.5 24.6389 329.5 22.6667C329.5 22.4445 329.493 22.2431 329.479 22.0625C329.465 21.882 329.431 21.6945 329.375 21.5H322.792V24.0833H326.5C326.278 24.8611 325.854 25.4653 325.229 25.8958C324.604 26.3264 323.847 26.5417 322.958 26.5417C321.875 26.5417 320.944 26.1528 320.167 25.375C319.389 24.5972 319 23.6389 319 22.5C319 21.3611 319.389 20.4028 320.167 19.625C320.944 18.8472 321.875 18.4583 322.958 18.4583C323.458 18.4583 323.931 18.5486 324.375 18.7292C324.819 18.9097 325.222 19.1806 325.583 19.5417L327.625 17.5833C327.042 16.9722 326.34 16.5 325.521 16.1667C324.701 15.8333 323.833 15.6667 322.917 15.6667C321.056 15.6667 319.465 16.3264 318.146 17.6458C316.826 18.9653 316.167 20.5833 316.167 22.5C316.167 24.4167 316.826 26.0347 318.146 27.3542C319.465 28.6736 321.056 29.3333 322.917 29.3333ZM334.083 30.1667L335 29.2917C334.611 28.8195 334.257 28.3611 333.937 27.9167C333.618 27.4722 333.306 27 333 26.5L334.083 30.1667ZM336.167 28.0417C336.944 27.125 337.535 26.25 337.937 25.4167C338.34 24.5833 338.611 23.9306 338.75 23.4583H332.125L332.625 25.2083H334.292C334.514 25.625 334.778 26.0764 335.083 26.5625C335.389 27.0486 335.75 27.5417 336.167 28.0417ZM332.667 40H344.333C344.833 40 345.236 39.8403 345.542 39.5208C345.847 39.2014 346 38.8056 346 38.3333V16.6667C346 16.1667 345.847 15.7639 345.542 15.4583C345.236 15.1528 344.833 15 344.333 15H329.625L331.583 21.75H334.875V20H336.583V21.75H342.667V23.4583H340.542C340.264 24.5139 339.847 25.5417 339.292 26.5417C338.736 27.5417 338.083 28.4722 337.333 29.3333L341.875 33.7917L340.667 35L336.167 30.5L334.667 32.0417L336 36.6667L332.667 40Z" fill="#1D1B20"/>
<path d="M128.926 481.047V491H127.21V481.047H128.926ZM132.987 485.401V486.762H128.488V485.401H132.987ZM133.554 481.047V482.414H128.488V481.047H133.554ZM134.392 487.384V487.227C134.392 486.693 134.47 486.199 134.625 485.743C134.78 485.283 135.003 484.884 135.295 484.547C135.591 484.205 135.951 483.941 136.375 483.754C136.803 483.562 137.286 483.467 137.824 483.467C138.366 483.467 138.849 483.562 139.273 483.754C139.701 483.941 140.064 484.205 140.36 484.547C140.656 484.884 140.882 485.283 141.037 485.743C141.192 486.199 141.269 486.693 141.269 487.227V487.384C141.269 487.917 141.192 488.411 141.037 488.867C140.882 489.323 140.656 489.722 140.36 490.063C140.064 490.401 139.704 490.665 139.28 490.856C138.856 491.043 138.375 491.137 137.837 491.137C137.295 491.137 136.81 491.043 136.381 490.856C135.958 490.665 135.598 490.401 135.301 490.063C135.005 489.722 134.78 489.323 134.625 488.867C134.47 488.411 134.392 487.917 134.392 487.384ZM136.04 487.227V487.384C136.04 487.716 136.074 488.031 136.142 488.327C136.211 488.623 136.318 488.883 136.463 489.106C136.609 489.33 136.796 489.505 137.024 489.633C137.252 489.76 137.523 489.824 137.837 489.824C138.143 489.824 138.407 489.76 138.63 489.633C138.858 489.505 139.045 489.33 139.191 489.106C139.337 488.883 139.444 488.623 139.512 488.327C139.585 488.031 139.622 487.716 139.622 487.384V487.227C139.622 486.898 139.585 486.589 139.512 486.297C139.444 486.001 139.335 485.739 139.184 485.511C139.038 485.283 138.851 485.105 138.624 484.978C138.4 484.845 138.134 484.779 137.824 484.779C137.514 484.779 137.245 484.845 137.017 484.978C136.794 485.105 136.609 485.283 136.463 485.511C136.318 485.739 136.211 486.001 136.142 486.297C136.074 486.589 136.04 486.898 136.04 487.227ZM144.404 485.012V491H142.757V483.604H144.329L144.404 485.012ZM146.667 483.556L146.653 485.087C146.553 485.069 146.444 485.055 146.325 485.046C146.211 485.037 146.097 485.032 145.983 485.032C145.701 485.032 145.452 485.073 145.238 485.155C145.024 485.233 144.844 485.347 144.698 485.497C144.557 485.643 144.448 485.821 144.37 486.03C144.293 486.24 144.247 486.475 144.233 486.734L143.857 486.762C143.857 486.297 143.903 485.866 143.994 485.47C144.085 485.073 144.222 484.725 144.404 484.424C144.591 484.123 144.824 483.888 145.102 483.72C145.384 483.551 145.71 483.467 146.079 483.467C146.179 483.467 146.286 483.476 146.4 483.494C146.519 483.512 146.608 483.533 146.667 483.556ZM152.4 483.604H153.897V490.795C153.897 491.46 153.756 492.025 153.473 492.49C153.19 492.955 152.796 493.308 152.29 493.55C151.785 493.796 151.199 493.919 150.534 493.919C150.251 493.919 149.937 493.878 149.59 493.796C149.248 493.714 148.916 493.582 148.592 493.399C148.273 493.222 148.007 492.987 147.792 492.695L148.565 491.725C148.829 492.039 149.121 492.269 149.44 492.415C149.759 492.561 150.094 492.634 150.445 492.634C150.823 492.634 151.144 492.563 151.409 492.422C151.677 492.285 151.885 492.082 152.031 491.813C152.176 491.545 152.249 491.216 152.249 490.829V485.278L152.4 483.604ZM147.375 487.384V487.24C147.375 486.68 147.444 486.169 147.58 485.709C147.717 485.244 147.913 484.845 148.168 484.513C148.424 484.175 148.733 483.918 149.098 483.74C149.463 483.558 149.875 483.467 150.335 483.467C150.814 483.467 151.222 483.553 151.559 483.727C151.901 483.9 152.186 484.148 152.413 484.472C152.641 484.791 152.819 485.174 152.947 485.62C153.079 486.062 153.177 486.554 153.241 487.097V487.555C153.181 488.083 153.081 488.566 152.94 489.004C152.799 489.441 152.612 489.82 152.379 490.139C152.147 490.458 151.86 490.704 151.518 490.877C151.181 491.05 150.782 491.137 150.322 491.137C149.871 491.137 149.463 491.043 149.098 490.856C148.738 490.67 148.428 490.408 148.168 490.07C147.913 489.733 147.717 489.337 147.58 488.881C147.444 488.421 147.375 487.922 147.375 487.384ZM149.023 487.24V487.384C149.023 487.721 149.055 488.035 149.119 488.327C149.187 488.619 149.289 488.876 149.426 489.1C149.567 489.318 149.745 489.492 149.959 489.619C150.178 489.742 150.436 489.804 150.732 489.804C151.119 489.804 151.436 489.722 151.682 489.558C151.933 489.394 152.124 489.173 152.256 488.895C152.393 488.612 152.489 488.298 152.543 487.951V486.714C152.516 486.445 152.459 486.194 152.372 485.962C152.29 485.729 152.179 485.527 152.037 485.354C151.896 485.176 151.718 485.039 151.504 484.943C151.29 484.843 151.037 484.793 150.746 484.793C150.449 484.793 150.192 484.857 149.973 484.984C149.754 485.112 149.574 485.287 149.433 485.511C149.296 485.734 149.194 485.994 149.125 486.29C149.057 486.586 149.023 486.903 149.023 487.24ZM155.391 487.384V487.227C155.391 486.693 155.469 486.199 155.624 485.743C155.779 485.283 156.002 484.884 156.294 484.547C156.59 484.205 156.95 483.941 157.374 483.754C157.802 483.562 158.285 483.467 158.823 483.467C159.365 483.467 159.848 483.562 160.272 483.754C160.701 483.941 161.063 484.205 161.359 484.547C161.655 484.884 161.881 485.283 162.036 485.743C162.191 486.199 162.268 486.693 162.268 487.227V487.384C162.268 487.917 162.191 488.411 162.036 488.867C161.881 489.323 161.655 489.722 161.359 490.063C161.063 490.401 160.703 490.665 160.279 490.856C159.855 491.043 159.374 491.137 158.837 491.137C158.294 491.137 157.809 491.043 157.381 490.856C156.957 490.665 156.597 490.401 156.301 490.063C156.004 489.722 155.779 489.323 155.624 488.867C155.469 488.411 155.391 487.917 155.391 487.384ZM157.039 487.227V487.384C157.039 487.716 157.073 488.031 157.141 488.327C157.21 488.623 157.317 488.883 157.463 489.106C157.609 489.33 157.795 489.505 158.023 489.633C158.251 489.76 158.522 489.824 158.837 489.824C159.142 489.824 159.406 489.76 159.63 489.633C159.858 489.505 160.044 489.33 160.19 489.106C160.336 488.883 160.443 488.623 160.512 488.327C160.584 488.031 160.621 487.716 160.621 487.384V487.227C160.621 486.898 160.584 486.589 160.512 486.297C160.443 486.001 160.334 485.739 160.183 485.511C160.038 485.283 159.851 485.105 159.623 484.978C159.4 484.845 159.133 484.779 158.823 484.779C158.513 484.779 158.244 484.845 158.016 484.978C157.793 485.105 157.609 485.283 157.463 485.511C157.317 485.739 157.21 486.001 157.141 486.297C157.073 486.589 157.039 486.898 157.039 487.227ZM167.14 483.604V484.807H162.97V483.604H167.14ZM164.173 481.792H165.821V488.956C165.821 489.184 165.852 489.359 165.916 489.482C165.985 489.601 166.078 489.681 166.196 489.722C166.315 489.763 166.454 489.783 166.613 489.783C166.727 489.783 166.837 489.776 166.942 489.763C167.046 489.749 167.131 489.735 167.195 489.722L167.201 490.979C167.065 491.021 166.905 491.057 166.723 491.089C166.545 491.121 166.34 491.137 166.108 491.137C165.729 491.137 165.394 491.071 165.103 490.938C164.811 490.802 164.583 490.581 164.419 490.275C164.255 489.97 164.173 489.564 164.173 489.059V481.792ZM176.042 487.288H173.451V485.928H176.042C176.493 485.928 176.858 485.855 177.136 485.709C177.414 485.563 177.617 485.363 177.744 485.107C177.876 484.848 177.942 484.551 177.942 484.219C177.942 483.904 177.876 483.61 177.744 483.337C177.617 483.059 177.414 482.836 177.136 482.667C176.858 482.498 176.493 482.414 176.042 482.414H173.978V491H172.262V481.047H176.042C176.812 481.047 177.466 481.184 178.004 481.457C178.546 481.726 178.959 482.1 179.241 482.578C179.524 483.052 179.665 483.594 179.665 484.205C179.665 484.848 179.524 485.399 179.241 485.859C178.959 486.32 178.546 486.673 178.004 486.919C177.466 487.165 176.812 487.288 176.042 487.288ZM185.227 489.517V485.989C185.227 485.725 185.179 485.497 185.083 485.306C184.988 485.114 184.842 484.966 184.646 484.861C184.454 484.757 184.213 484.704 183.921 484.704C183.652 484.704 183.42 484.75 183.224 484.841C183.028 484.932 182.875 485.055 182.766 485.21C182.657 485.365 182.602 485.54 182.602 485.736H180.961C180.961 485.445 181.032 485.162 181.173 484.889C181.315 484.615 181.52 484.371 181.788 484.157C182.057 483.943 182.379 483.774 182.752 483.651C183.126 483.528 183.545 483.467 184.01 483.467C184.566 483.467 185.058 483.56 185.487 483.747C185.92 483.934 186.259 484.216 186.505 484.595C186.756 484.968 186.881 485.438 186.881 486.003V489.291C186.881 489.628 186.904 489.931 186.95 490.2C187 490.465 187.07 490.695 187.162 490.891V491H185.473C185.396 490.822 185.334 490.597 185.288 490.323C185.247 490.045 185.227 489.776 185.227 489.517ZM185.466 486.502L185.48 487.521H184.297C183.992 487.521 183.723 487.55 183.491 487.609C183.258 487.664 183.065 487.746 182.91 487.855C182.755 487.965 182.638 488.097 182.561 488.252C182.483 488.407 182.445 488.582 182.445 488.778C182.445 488.974 182.49 489.154 182.581 489.318C182.673 489.478 182.805 489.603 182.978 489.694C183.156 489.785 183.37 489.831 183.621 489.831C183.958 489.831 184.252 489.763 184.502 489.626C184.758 489.485 184.958 489.314 185.104 489.113C185.25 488.908 185.327 488.715 185.336 488.532L185.87 489.264C185.815 489.451 185.721 489.651 185.589 489.865C185.457 490.079 185.284 490.285 185.07 490.48C184.86 490.672 184.607 490.829 184.311 490.952C184.019 491.075 183.682 491.137 183.299 491.137C182.816 491.137 182.385 491.041 182.007 490.85C181.629 490.654 181.333 490.392 181.119 490.063C180.904 489.731 180.797 489.355 180.797 488.936C180.797 488.544 180.87 488.197 181.016 487.896C181.166 487.591 181.385 487.336 181.672 487.131C181.964 486.926 182.319 486.771 182.739 486.666C183.158 486.557 183.636 486.502 184.174 486.502H185.466ZM192.853 488.997C192.853 488.833 192.812 488.685 192.73 488.553C192.648 488.416 192.491 488.293 192.259 488.184C192.031 488.074 191.693 487.974 191.247 487.883C190.855 487.796 190.495 487.694 190.167 487.575C189.843 487.452 189.565 487.304 189.333 487.131C189.1 486.958 188.92 486.753 188.793 486.516C188.665 486.279 188.601 486.005 188.601 485.695C188.601 485.395 188.667 485.11 188.8 484.841C188.932 484.572 189.121 484.335 189.367 484.13C189.613 483.925 189.912 483.763 190.262 483.645C190.618 483.526 191.014 483.467 191.452 483.467C192.072 483.467 192.603 483.572 193.045 483.781C193.491 483.986 193.833 484.267 194.07 484.622C194.307 484.973 194.426 485.369 194.426 485.812H192.778C192.778 485.616 192.728 485.433 192.628 485.265C192.532 485.091 192.386 484.952 192.19 484.848C191.994 484.738 191.748 484.684 191.452 484.684C191.169 484.684 190.935 484.729 190.748 484.82C190.566 484.907 190.429 485.021 190.338 485.162C190.251 485.303 190.208 485.458 190.208 485.627C190.208 485.75 190.231 485.862 190.276 485.962C190.326 486.058 190.408 486.146 190.522 486.229C190.636 486.306 190.791 486.379 190.987 486.447C191.188 486.516 191.438 486.582 191.739 486.646C192.304 486.764 192.79 486.917 193.195 487.104C193.605 487.286 193.92 487.523 194.138 487.814C194.357 488.102 194.467 488.466 194.467 488.908C194.467 489.236 194.396 489.537 194.255 489.811C194.118 490.079 193.917 490.314 193.653 490.515C193.389 490.711 193.072 490.863 192.703 490.973C192.338 491.082 191.928 491.137 191.472 491.137C190.803 491.137 190.235 491.018 189.77 490.781C189.305 490.54 188.952 490.232 188.711 489.858C188.474 489.48 188.355 489.088 188.355 488.683H189.948C189.966 488.988 190.051 489.232 190.201 489.414C190.356 489.592 190.547 489.722 190.775 489.804C191.008 489.881 191.247 489.92 191.493 489.92C191.789 489.92 192.038 489.881 192.238 489.804C192.439 489.722 192.591 489.612 192.696 489.476C192.801 489.334 192.853 489.175 192.853 488.997ZM200.158 488.997C200.158 488.833 200.117 488.685 200.035 488.553C199.953 488.416 199.796 488.293 199.564 488.184C199.336 488.074 198.999 487.974 198.552 487.883C198.16 487.796 197.8 487.694 197.472 487.575C197.148 487.452 196.87 487.304 196.638 487.131C196.405 486.958 196.225 486.753 196.098 486.516C195.97 486.279 195.906 486.005 195.906 485.695C195.906 485.395 195.973 485.11 196.105 484.841C196.237 484.572 196.426 484.335 196.672 484.13C196.918 483.925 197.217 483.763 197.568 483.645C197.923 483.526 198.32 483.467 198.757 483.467C199.377 483.467 199.908 483.572 200.35 483.781C200.796 483.986 201.138 484.267 201.375 484.622C201.612 484.973 201.731 485.369 201.731 485.812H200.083C200.083 485.616 200.033 485.433 199.933 485.265C199.837 485.091 199.691 484.952 199.495 484.848C199.299 484.738 199.053 484.684 198.757 484.684C198.474 484.684 198.24 484.729 198.053 484.82C197.871 484.907 197.734 485.021 197.643 485.162C197.556 485.303 197.513 485.458 197.513 485.627C197.513 485.75 197.536 485.862 197.581 485.962C197.631 486.058 197.713 486.146 197.827 486.229C197.941 486.306 198.096 486.379 198.292 486.447C198.493 486.516 198.743 486.582 199.044 486.646C199.609 486.764 200.095 486.917 200.5 487.104C200.91 487.286 201.225 487.523 201.444 487.814C201.662 488.102 201.772 488.466 201.772 488.908C201.772 489.236 201.701 489.537 201.56 489.811C201.423 490.079 201.223 490.314 200.958 490.515C200.694 490.711 200.377 490.863 200.008 490.973C199.643 491.082 199.233 491.137 198.778 491.137C198.108 491.137 197.54 491.018 197.075 490.781C196.611 490.54 196.257 490.232 196.016 489.858C195.779 489.48 195.66 489.088 195.66 488.683H197.253C197.271 488.988 197.356 489.232 197.506 489.414C197.661 489.592 197.852 489.722 198.08 489.804C198.313 489.881 198.552 489.92 198.798 489.92C199.094 489.92 199.343 489.881 199.543 489.804C199.744 489.722 199.896 489.612 200.001 489.476C200.106 489.334 200.158 489.175 200.158 488.997ZM205.324 489.359L207.033 483.604H208.086L207.798 485.326L206.076 491H205.132L205.324 489.359ZM204.319 483.604L205.652 489.387L205.761 491H204.709L202.706 483.604H204.319ZM209.685 489.318L210.977 483.604H212.584L210.587 491H209.535L209.685 489.318ZM208.263 483.604L209.952 489.291L210.164 491H209.22L207.477 485.319L207.19 483.604H208.263ZM213.49 487.384V487.227C213.49 486.693 213.568 486.199 213.723 485.743C213.878 485.283 214.101 484.884 214.393 484.547C214.689 484.205 215.049 483.941 215.473 483.754C215.901 483.562 216.384 483.467 216.922 483.467C217.464 483.467 217.947 483.562 218.371 483.754C218.799 483.941 219.162 484.205 219.458 484.547C219.754 484.884 219.98 485.283 220.135 485.743C220.29 486.199 220.367 486.693 220.367 487.227V487.384C220.367 487.917 220.29 488.411 220.135 488.867C219.98 489.323 219.754 489.722 219.458 490.063C219.162 490.401 218.802 490.665 218.378 490.856C217.954 491.043 217.473 491.137 216.936 491.137C216.393 491.137 215.908 491.043 215.479 490.856C215.056 490.665 214.696 490.401 214.399 490.063C214.103 489.722 213.878 489.323 213.723 488.867C213.568 488.411 213.49 487.917 213.49 487.384ZM215.138 487.227V487.384C215.138 487.716 215.172 488.031 215.24 488.327C215.309 488.623 215.416 488.883 215.562 489.106C215.707 489.33 215.894 489.505 216.122 489.633C216.35 489.76 216.621 489.824 216.936 489.824C217.241 489.824 217.505 489.76 217.729 489.633C217.956 489.505 218.143 489.33 218.289 489.106C218.435 488.883 218.542 488.623 218.61 488.327C218.683 488.031 218.72 487.716 218.72 487.384V487.227C218.72 486.898 218.683 486.589 218.61 486.297C218.542 486.001 218.433 485.739 218.282 485.511C218.136 485.283 217.95 485.105 217.722 484.978C217.498 484.845 217.232 484.779 216.922 484.779C216.612 484.779 216.343 484.845 216.115 484.978C215.892 485.105 215.707 485.283 215.562 485.511C215.416 485.739 215.309 486.001 215.24 486.297C215.172 486.589 215.138 486.898 215.138 487.227ZM223.502 485.012V491H221.855V483.604H223.427L223.502 485.012ZM225.765 483.556L225.751 485.087C225.651 485.069 225.542 485.055 225.423 485.046C225.309 485.037 225.195 485.032 225.081 485.032C224.799 485.032 224.551 485.073 224.336 485.155C224.122 485.233 223.942 485.347 223.796 485.497C223.655 485.643 223.546 485.821 223.468 486.03C223.391 486.24 223.345 486.475 223.331 486.734L222.955 486.762C222.955 486.297 223.001 485.866 223.092 485.47C223.183 485.073 223.32 484.725 223.502 484.424C223.689 484.123 223.922 483.888 224.2 483.72C224.482 483.551 224.808 483.467 225.177 483.467C225.277 483.467 225.385 483.476 225.498 483.494C225.617 483.512 225.706 483.533 225.765 483.556ZM231.272 489.469V480.5H232.927V491H231.429L231.272 489.469ZM226.46 487.384V487.24C226.46 486.68 226.526 486.169 226.658 485.709C226.79 485.244 226.982 484.845 227.232 484.513C227.483 484.175 227.788 483.918 228.148 483.74C228.508 483.558 228.914 483.467 229.365 483.467C229.812 483.467 230.204 483.553 230.541 483.727C230.878 483.9 231.165 484.148 231.402 484.472C231.639 484.791 231.828 485.174 231.97 485.62C232.111 486.062 232.211 486.554 232.27 487.097V487.555C232.211 488.083 232.111 488.566 231.97 489.004C231.828 489.441 231.639 489.82 231.402 490.139C231.165 490.458 230.876 490.704 230.534 490.877C230.197 491.05 229.803 491.137 229.351 491.137C228.905 491.137 228.501 491.043 228.141 490.856C227.786 490.67 227.483 490.408 227.232 490.07C226.982 489.733 226.79 489.337 226.658 488.881C226.526 488.421 226.46 487.922 226.46 487.384ZM228.107 487.24V487.384C228.107 487.721 228.137 488.035 228.196 488.327C228.26 488.619 228.358 488.876 228.49 489.1C228.622 489.318 228.793 489.492 229.003 489.619C229.217 489.742 229.472 489.804 229.768 489.804C230.142 489.804 230.45 489.722 230.691 489.558C230.933 489.394 231.122 489.173 231.259 488.895C231.4 488.612 231.496 488.298 231.546 487.951V486.714C231.518 486.445 231.461 486.194 231.375 485.962C231.293 485.729 231.181 485.527 231.04 485.354C230.899 485.176 230.723 485.039 230.513 484.943C230.308 484.843 230.065 484.793 229.782 484.793C229.481 484.793 229.226 484.857 229.016 484.984C228.807 485.112 228.634 485.287 228.497 485.511C228.365 485.734 228.267 485.994 228.203 486.29C228.139 486.586 228.107 486.903 228.107 487.24Z" fill="black"/>
<defs>
<clipPath id="clip0_4_14">
<rect x="137" y="384" width="87" height="32" rx="8" fill="white"/>
</clipPath>
<clipPath id="clip1_4_14">
<rect x="137" y="430" width="87" height="32" rx="8" fill="white"/>
</clipPath>
</defs>
</svg>
