<svg width="854" height="480" viewBox="0 0 854 480" fill="none" xmlns="http://www.w3.org/2000/svg">
<rect width="854" height="480" fill="black"/>
<rect x="363" y="81" width="129" height="129" rx="64.5" fill="#EADDFF"/>
<path fill-rule="evenodd" clip-rule="evenodd" d="M446.851 132.6C446.851 143.287 438.187 151.95 427.501 151.95C416.814 151.95 408.151 143.287 408.151 132.6C408.151 121.913 416.814 113.25 427.501 113.25C438.187 113.25 446.851 121.913 446.851 132.6ZM440.401 132.6C440.401 139.724 434.625 145.5 427.501 145.5C420.376 145.5 414.601 139.724 414.601 132.6C414.601 125.476 420.376 119.7 427.501 119.7C434.625 119.7 440.401 125.476 440.401 132.6Z" fill="#4F378A"/>
<path d="M427.501 161.625C406.621 161.625 388.831 173.972 382.054 191.269C383.705 192.909 385.444 194.459 387.263 195.913C392.31 180.032 408.14 168.075 427.501 168.075C446.861 168.075 462.692 180.032 467.738 195.913C469.558 194.459 471.297 192.909 472.948 191.269C466.171 173.972 448.381 161.625 427.501 161.625Z" fill="#4F378A"/>
<g clip-path="url(#clip0_4_50)">
<path d="M399.016 287.288H396.425V285.928H399.016C399.467 285.928 399.832 285.855 400.11 285.709C400.388 285.563 400.591 285.363 400.718 285.107C400.851 284.848 400.917 284.551 400.917 284.219C400.917 283.904 400.851 283.61 400.718 283.337C400.591 283.059 400.388 282.836 400.11 282.667C399.832 282.498 399.467 282.414 399.016 282.414H396.952V291H395.236V281.047H399.016C399.786 281.047 400.44 281.184 400.978 281.457C401.52 281.726 401.933 282.1 402.215 282.578C402.498 283.052 402.639 283.594 402.639 284.205C402.639 284.848 402.498 285.399 402.215 285.859C401.933 286.32 401.52 286.673 400.978 286.919C400.44 287.165 399.786 287.288 399.016 287.288ZM408.201 289.517V285.989C408.201 285.725 408.153 285.497 408.058 285.306C407.962 285.114 407.816 284.966 407.62 284.861C407.429 284.757 407.187 284.704 406.896 284.704C406.627 284.704 406.394 284.75 406.198 284.841C406.002 284.932 405.85 285.055 405.74 285.21C405.631 285.365 405.576 285.54 405.576 285.736H403.936C403.936 285.445 404.006 285.162 404.147 284.889C404.289 284.615 404.494 284.371 404.763 284.157C405.032 283.943 405.353 283.774 405.727 283.651C406.1 283.528 406.52 283.467 406.984 283.467C407.54 283.467 408.033 283.56 408.461 283.747C408.894 283.934 409.233 284.216 409.479 284.595C409.73 284.968 409.855 285.438 409.855 286.003V289.291C409.855 289.628 409.878 289.931 409.924 290.2C409.974 290.465 410.045 290.695 410.136 290.891V291H408.447C408.37 290.822 408.308 290.597 408.263 290.323C408.222 290.045 408.201 289.776 408.201 289.517ZM408.44 286.502L408.454 287.521H407.271C406.966 287.521 406.697 287.55 406.465 287.609C406.232 287.664 406.039 287.746 405.884 287.855C405.729 287.965 405.613 288.097 405.535 288.252C405.458 288.407 405.419 288.582 405.419 288.778C405.419 288.974 405.465 289.154 405.556 289.318C405.647 289.478 405.779 289.603 405.952 289.694C406.13 289.785 406.344 289.831 406.595 289.831C406.932 289.831 407.226 289.763 407.477 289.626C407.732 289.485 407.932 289.314 408.078 289.113C408.224 288.908 408.301 288.715 408.311 288.532L408.844 289.264C408.789 289.451 408.696 289.651 408.563 289.865C408.431 290.079 408.258 290.285 408.044 290.48C407.834 290.672 407.581 290.829 407.285 290.952C406.993 291.075 406.656 291.137 406.273 291.137C405.79 291.137 405.36 291.041 404.981 290.85C404.603 290.654 404.307 290.392 404.093 290.063C403.879 289.731 403.771 289.355 403.771 288.936C403.771 288.544 403.844 288.197 403.99 287.896C404.141 287.591 404.359 287.336 404.646 287.131C404.938 286.926 405.294 286.771 405.713 286.666C406.132 286.557 406.611 286.502 407.148 286.502H408.44ZM415.828 288.997C415.828 288.833 415.787 288.685 415.704 288.553C415.622 288.416 415.465 288.293 415.233 288.184C415.005 288.074 414.668 287.974 414.221 287.883C413.829 287.796 413.469 287.694 413.141 287.575C412.817 287.452 412.539 287.304 412.307 287.131C412.075 286.958 411.895 286.753 411.767 286.516C411.639 286.279 411.576 286.005 411.576 285.695C411.576 285.395 411.642 285.11 411.774 284.841C411.906 284.572 412.095 284.335 412.341 284.13C412.587 283.925 412.886 283.763 413.237 283.645C413.592 283.526 413.989 283.467 414.426 283.467C415.046 283.467 415.577 283.572 416.019 283.781C416.466 283.986 416.807 284.267 417.044 284.622C417.281 284.973 417.4 285.369 417.4 285.812H415.752C415.752 285.616 415.702 285.433 415.602 285.265C415.506 285.091 415.36 284.952 415.164 284.848C414.968 284.738 414.722 284.684 414.426 284.684C414.144 284.684 413.909 284.729 413.722 284.82C413.54 284.907 413.403 285.021 413.312 285.162C413.225 285.303 413.182 285.458 413.182 285.627C413.182 285.75 413.205 285.862 413.25 285.962C413.301 286.058 413.383 286.146 413.496 286.229C413.61 286.306 413.765 286.379 413.961 286.447C414.162 286.516 414.413 286.582 414.713 286.646C415.278 286.764 415.764 286.917 416.169 287.104C416.579 287.286 416.894 287.523 417.113 287.814C417.331 288.102 417.441 288.466 417.441 288.908C417.441 289.236 417.37 289.537 417.229 289.811C417.092 290.079 416.892 290.314 416.627 290.515C416.363 290.711 416.046 290.863 415.677 290.973C415.313 291.082 414.902 291.137 414.447 291.137C413.777 291.137 413.209 291.018 412.745 290.781C412.28 290.54 411.926 290.232 411.685 289.858C411.448 289.48 411.329 289.088 411.329 288.683H412.922C412.94 288.988 413.025 289.232 413.175 289.414C413.33 289.592 413.522 289.722 413.749 289.804C413.982 289.881 414.221 289.92 414.467 289.92C414.763 289.92 415.012 289.881 415.212 289.804C415.413 289.722 415.565 289.612 415.67 289.476C415.775 289.334 415.828 289.175 415.828 288.997ZM423.133 288.997C423.133 288.833 423.092 288.685 423.01 288.553C422.928 288.416 422.77 288.293 422.538 288.184C422.31 288.074 421.973 287.974 421.526 287.883C421.134 287.796 420.774 287.694 420.446 287.575C420.123 287.452 419.845 287.304 419.612 287.131C419.38 286.958 419.2 286.753 419.072 286.516C418.944 286.279 418.881 286.005 418.881 285.695C418.881 285.395 418.947 285.11 419.079 284.841C419.211 284.572 419.4 284.335 419.646 284.13C419.892 283.925 420.191 283.763 420.542 283.645C420.897 283.526 421.294 283.467 421.731 283.467C422.351 283.467 422.882 283.572 423.324 283.781C423.771 283.986 424.112 284.267 424.349 284.622C424.586 284.973 424.705 285.369 424.705 285.812H423.057C423.057 285.616 423.007 285.433 422.907 285.265C422.811 285.091 422.665 284.952 422.47 284.848C422.274 284.738 422.027 284.684 421.731 284.684C421.449 284.684 421.214 284.729 421.027 284.82C420.845 284.907 420.708 285.021 420.617 285.162C420.53 285.303 420.487 285.458 420.487 285.627C420.487 285.75 420.51 285.862 420.555 285.962C420.606 286.058 420.688 286.146 420.802 286.229C420.915 286.306 421.07 286.379 421.266 286.447C421.467 286.516 421.718 286.582 422.018 286.646C422.583 286.764 423.069 286.917 423.474 287.104C423.885 287.286 424.199 287.523 424.418 287.814C424.637 288.102 424.746 288.466 424.746 288.908C424.746 289.236 424.675 289.537 424.534 289.811C424.397 290.079 424.197 290.314 423.932 290.515C423.668 290.711 423.351 290.863 422.982 290.973C422.618 291.082 422.207 291.137 421.752 291.137C421.082 291.137 420.514 291.018 420.05 290.781C419.585 290.54 419.232 290.232 418.99 289.858C418.753 289.48 418.635 289.088 418.635 288.683H420.227C420.246 288.988 420.33 289.232 420.48 289.414C420.635 289.592 420.827 289.722 421.054 289.804C421.287 289.881 421.526 289.92 421.772 289.92C422.068 289.92 422.317 289.881 422.517 289.804C422.718 289.722 422.871 289.612 422.975 289.476C423.08 289.334 423.133 289.175 423.133 288.997ZM428.298 289.359L430.007 283.604H431.06L430.773 285.326L429.05 291H428.107L428.298 289.359ZM427.293 283.604L428.626 289.387L428.736 291H427.683L425.68 283.604H427.293ZM432.659 289.318L433.951 283.604H435.558L433.562 291H432.509L432.659 289.318ZM431.237 283.604L432.926 289.291L433.138 291H432.195L430.451 285.319L430.164 283.604H431.237ZM436.464 287.384V287.227C436.464 286.693 436.542 286.199 436.697 285.743C436.852 285.283 437.075 284.884 437.367 284.547C437.663 284.205 438.023 283.941 438.447 283.754C438.875 283.562 439.358 283.467 439.896 283.467C440.438 283.467 440.921 283.562 441.345 283.754C441.774 283.941 442.136 284.205 442.432 284.547C442.728 284.884 442.954 285.283 443.109 285.743C443.264 286.199 443.341 286.693 443.341 287.227V287.384C443.341 287.917 443.264 288.411 443.109 288.867C442.954 289.323 442.728 289.722 442.432 290.063C442.136 290.401 441.776 290.665 441.352 290.856C440.928 291.043 440.448 291.137 439.91 291.137C439.367 291.137 438.882 291.043 438.454 290.856C438.03 290.665 437.67 290.401 437.374 290.063C437.077 289.722 436.852 289.323 436.697 288.867C436.542 288.411 436.464 287.917 436.464 287.384ZM438.112 287.227V287.384C438.112 287.716 438.146 288.031 438.214 288.327C438.283 288.623 438.39 288.883 438.536 289.106C438.682 289.33 438.868 289.505 439.096 289.633C439.324 289.76 439.595 289.824 439.91 289.824C440.215 289.824 440.479 289.76 440.703 289.633C440.931 289.505 441.117 289.33 441.263 289.106C441.409 288.883 441.516 288.623 441.585 288.327C441.657 288.031 441.694 287.716 441.694 287.384V287.227C441.694 286.898 441.657 286.589 441.585 286.297C441.516 286.001 441.407 285.739 441.256 285.511C441.111 285.283 440.924 285.105 440.696 284.978C440.473 284.845 440.206 284.779 439.896 284.779C439.586 284.779 439.317 284.845 439.089 284.978C438.866 285.105 438.682 285.283 438.536 285.511C438.39 285.739 438.283 286.001 438.214 286.297C438.146 286.589 438.112 286.898 438.112 287.227ZM446.477 285.012V291H444.829V283.604H446.401L446.477 285.012ZM448.739 283.556L448.726 285.087C448.625 285.069 448.516 285.055 448.397 285.046C448.284 285.037 448.17 285.032 448.056 285.032C447.773 285.032 447.525 285.073 447.311 285.155C447.096 285.233 446.916 285.347 446.771 285.497C446.629 285.643 446.52 285.821 446.442 286.03C446.365 286.24 446.319 286.475 446.306 286.734L445.93 286.762C445.93 286.297 445.975 285.866 446.066 285.47C446.158 285.073 446.294 284.725 446.477 284.424C446.663 284.123 446.896 283.888 447.174 283.72C447.456 283.551 447.782 283.467 448.151 283.467C448.252 283.467 448.359 283.476 448.473 283.494C448.591 283.512 448.68 283.533 448.739 283.556ZM454.246 289.469V280.5H455.901V291H454.404L454.246 289.469ZM449.434 287.384V287.24C449.434 286.68 449.5 286.169 449.632 285.709C449.764 285.244 449.956 284.845 450.206 284.513C450.457 284.175 450.762 283.918 451.122 283.74C451.482 283.558 451.888 283.467 452.339 283.467C452.786 283.467 453.178 283.553 453.515 283.727C453.852 283.9 454.139 284.148 454.376 284.472C454.613 284.791 454.802 285.174 454.944 285.62C455.085 286.062 455.185 286.554 455.245 287.097V287.555C455.185 288.083 455.085 288.566 454.944 289.004C454.802 289.441 454.613 289.82 454.376 290.139C454.139 290.458 453.85 290.704 453.508 290.877C453.171 291.05 452.777 291.137 452.326 291.137C451.879 291.137 451.476 291.043 451.116 290.856C450.76 290.67 450.457 290.408 450.206 290.07C449.956 289.733 449.764 289.337 449.632 288.881C449.5 288.421 449.434 287.922 449.434 287.384ZM451.081 287.24V287.384C451.081 287.721 451.111 288.035 451.17 288.327C451.234 288.619 451.332 288.876 451.464 289.1C451.596 289.318 451.767 289.492 451.977 289.619C452.191 289.742 452.446 289.804 452.743 289.804C453.116 289.804 453.424 289.722 453.665 289.558C453.907 289.394 454.096 289.173 454.233 288.895C454.374 288.612 454.47 288.298 454.52 287.951V286.714C454.493 286.445 454.436 286.194 454.349 285.962C454.267 285.729 454.155 285.527 454.014 285.354C453.873 285.176 453.697 285.039 453.488 284.943C453.283 284.843 453.039 284.793 452.756 284.793C452.455 284.793 452.2 284.857 451.991 284.984C451.781 285.112 451.608 285.287 451.471 285.511C451.339 285.734 451.241 285.994 451.177 286.29C451.113 286.586 451.081 286.903 451.081 287.24Z" fill="#FEF7FF"/>
</g>
<rect x="382.5" y="270.5" width="86" height="31" rx="7.5" stroke="#CAC4D0"/>
<path d="M777 44C772.833 44 769.292 42.5417 766.375 39.625C763.458 36.7083 762 33.1667 762 29C762 24.8333 763.458 21.2917 766.375 18.375C769.292 15.4583 772.833 14 777 14C777.389 14 777.771 14.0139 778.146 14.0417C778.521 14.0694 778.889 14.1111 779.25 14.1667C778.111 14.9722 777.201 16.0208 776.521 17.3125C775.84 18.6042 775.5 20 775.5 21.5C775.5 24 776.375 26.125 778.125 27.875C779.875 29.625 782 30.5 784.5 30.5C786.028 30.5 787.431 30.1597 788.708 29.4792C789.986 28.7986 791.028 27.8889 791.833 26.75C791.889 27.1111 791.931 27.4792 791.958 27.8542C791.986 28.2292 792 28.6111 792 29C792 33.1667 790.542 36.7083 787.625 39.625C784.708 42.5417 781.167 44 777 44ZM777 40.6667C779.444 40.6667 781.639 39.9931 783.583 38.6458C785.528 37.2986 786.944 35.5417 787.833 33.375C787.278 33.5139 786.722 33.625 786.167 33.7083C785.611 33.7917 785.056 33.8333 784.5 33.8333C781.083 33.8333 778.174 32.6319 775.771 30.2292C773.368 27.8264 772.167 24.9167 772.167 21.5C772.167 20.9444 772.208 20.3889 772.292 19.8333C772.375 19.2778 772.486 18.7222 772.625 18.1667C770.458 19.0556 768.701 20.4722 767.354 22.4167C766.007 24.3611 765.333 26.5556 765.333 29C765.333 32.2222 766.472 34.9722 768.75 37.25C771.028 39.5278 773.778 40.6667 777 40.6667Z" fill="#FEF7FF"/>
<path d="M825 45.6667L823.333 40.6667H811.667C810.75 40.6667 809.965 40.3403 809.313 39.6875C808.66 39.0347 808.333 38.25 808.333 37.3333V15.6667C808.333 14.75 808.66 13.9653 809.313 13.3125C809.965 12.6597 810.75 12.3333 811.667 12.3333H821.667L823.125 17.3333H838.333C839.306 17.3333 840.104 17.6458 840.729 18.2708C841.354 18.8958 841.667 19.6944 841.667 20.6667V42.3333C841.667 43.25 841.354 44.0347 840.729 44.6875C840.104 45.3403 839.306 45.6667 838.333 45.6667H825ZM816.917 33.3333C818.833 33.3333 820.41 32.7153 821.646 31.4792C822.882 30.2431 823.5 28.6389 823.5 26.6667C823.5 26.4444 823.493 26.2431 823.479 26.0625C823.465 25.8819 823.431 25.6944 823.375 25.5H816.792V28.0833H820.5C820.278 28.8611 819.854 29.4653 819.229 29.8958C818.604 30.3264 817.847 30.5417 816.958 30.5417C815.875 30.5417 814.944 30.1528 814.167 29.375C813.389 28.5972 813 27.6389 813 26.5C813 25.3611 813.389 24.4028 814.167 23.625C814.944 22.8472 815.875 22.4583 816.958 22.4583C817.458 22.4583 817.931 22.5486 818.375 22.7292C818.819 22.9097 819.222 23.1806 819.583 23.5417L821.625 21.5833C821.042 20.9722 820.34 20.5 819.521 20.1667C818.701 19.8333 817.833 19.6667 816.917 19.6667C815.056 19.6667 813.465 20.3264 812.146 21.6458C810.826 22.9653 810.167 24.5833 810.167 26.5C810.167 28.4167 810.826 30.0347 812.146 31.3542C813.465 32.6736 815.056 33.3333 816.917 33.3333ZM828.083 34.1667L829 33.2917C828.611 32.8194 828.257 32.3611 827.938 31.9167C827.618 31.4722 827.306 31 827 30.5L828.083 34.1667ZM830.167 32.0417C830.944 31.125 831.535 30.25 831.938 29.4167C832.34 28.5833 832.611 27.9306 832.75 27.4583H826.125L826.625 29.2083H828.292C828.514 29.625 828.778 30.0764 829.083 30.5625C829.389 31.0486 829.75 31.5417 830.167 32.0417ZM826.667 44H838.333C838.833 44 839.236 43.8403 839.542 43.5208C839.847 43.2014 840 42.8056 840 42.3333V20.6667C840 20.1667 839.847 19.7639 839.542 19.4583C839.236 19.1528 838.833 19 838.333 19H823.625L825.583 25.75H828.875V24H830.583V25.75H836.667V27.4583H834.542C834.264 28.5139 833.847 29.5417 833.292 30.5417C832.736 31.5417 832.083 32.4722 831.333 33.3333L835.875 37.7917L834.667 39L830.167 34.5L828.667 36.0417L830 40.6667L826.667 44Z" fill="#FEF7FF"/>
<g clip-path="url(#clip1_4_50)">
<path d="M401.816 235.047H403.525V241.698C403.525 242.455 403.361 243.088 403.033 243.599C402.705 244.109 402.258 244.494 401.693 244.754C401.132 245.009 400.506 245.137 399.813 245.137C399.098 245.137 398.46 245.009 397.899 244.754C397.338 244.494 396.896 244.109 396.573 243.599C396.254 243.088 396.094 242.455 396.094 241.698V235.047H397.803V241.698C397.803 242.177 397.885 242.571 398.049 242.881C398.213 243.186 398.446 243.412 398.747 243.558C399.047 243.703 399.403 243.776 399.813 243.776C400.223 243.776 400.576 243.703 400.873 243.558C401.173 243.412 401.406 243.186 401.57 242.881C401.734 242.571 401.816 242.177 401.816 241.698V235.047ZM409.477 242.997C409.477 242.833 409.436 242.685 409.354 242.553C409.271 242.416 409.114 242.293 408.882 242.184C408.654 242.074 408.317 241.974 407.87 241.883C407.478 241.796 407.118 241.694 406.79 241.575C406.466 241.452 406.188 241.304 405.956 241.131C405.724 240.958 405.544 240.753 405.416 240.516C405.288 240.279 405.225 240.005 405.225 239.695C405.225 239.395 405.291 239.11 405.423 238.841C405.555 238.572 405.744 238.335 405.99 238.13C406.236 237.925 406.535 237.763 406.886 237.645C407.241 237.526 407.638 237.467 408.075 237.467C408.695 237.467 409.226 237.572 409.668 237.781C410.115 237.986 410.456 238.267 410.693 238.622C410.93 238.973 411.049 239.369 411.049 239.812H409.401C409.401 239.616 409.351 239.433 409.251 239.265C409.155 239.091 409.009 238.952 408.813 238.848C408.618 238.738 408.371 238.684 408.075 238.684C407.793 238.684 407.558 238.729 407.371 238.82C407.189 238.907 407.052 239.021 406.961 239.162C406.874 239.303 406.831 239.458 406.831 239.627C406.831 239.75 406.854 239.862 406.899 239.962C406.95 240.058 407.032 240.146 407.146 240.229C407.259 240.306 407.414 240.379 407.61 240.447C407.811 240.516 408.062 240.582 408.362 240.646C408.927 240.764 409.413 240.917 409.818 241.104C410.229 241.286 410.543 241.523 410.762 241.814C410.98 242.102 411.09 242.466 411.09 242.908C411.09 243.236 411.019 243.537 410.878 243.811C410.741 244.079 410.541 244.314 410.276 244.515C410.012 244.711 409.695 244.863 409.326 244.973C408.962 245.082 408.551 245.137 408.096 245.137C407.426 245.137 406.858 245.018 406.394 244.781C405.929 244.54 405.576 244.232 405.334 243.858C405.097 243.48 404.979 243.088 404.979 242.683H406.571C406.59 242.988 406.674 243.232 406.824 243.414C406.979 243.592 407.171 243.722 407.398 243.804C407.631 243.881 407.87 243.92 408.116 243.92C408.412 243.92 408.661 243.881 408.861 243.804C409.062 243.722 409.215 243.612 409.319 243.476C409.424 243.334 409.477 243.175 409.477 242.997ZM415.893 245.137C415.346 245.137 414.852 245.048 414.41 244.87C413.972 244.688 413.598 244.435 413.288 244.111C412.983 243.788 412.748 243.407 412.584 242.97C412.42 242.532 412.338 242.061 412.338 241.555V241.281C412.338 240.702 412.423 240.178 412.591 239.709C412.76 239.24 412.995 238.839 413.295 238.506C413.596 238.169 413.952 237.911 414.362 237.733C414.772 237.556 415.216 237.467 415.695 237.467C416.223 237.467 416.686 237.556 417.082 237.733C417.479 237.911 417.807 238.162 418.067 238.485C418.331 238.804 418.527 239.185 418.655 239.627C418.787 240.069 418.853 240.557 418.853 241.09V241.794H413.138V240.611H417.226V240.481C417.217 240.185 417.158 239.907 417.048 239.647C416.943 239.388 416.782 239.178 416.563 239.019C416.344 238.859 416.052 238.779 415.688 238.779C415.414 238.779 415.171 238.839 414.956 238.957C414.747 239.071 414.571 239.237 414.43 239.456C414.289 239.675 414.179 239.939 414.102 240.249C414.029 240.554 413.993 240.898 413.993 241.281V241.555C413.993 241.878 414.036 242.179 414.122 242.457C414.214 242.73 414.346 242.97 414.519 243.175C414.692 243.38 414.902 243.542 415.148 243.66C415.394 243.774 415.674 243.831 415.989 243.831C416.385 243.831 416.738 243.751 417.048 243.592C417.358 243.432 417.627 243.207 417.855 242.915L418.723 243.756C418.564 243.988 418.356 244.212 418.101 244.426C417.846 244.635 417.534 244.806 417.164 244.938C416.8 245.071 416.376 245.137 415.893 245.137ZM421.892 239.012V245H420.245V237.604H421.817L421.892 239.012ZM424.155 237.556L424.141 239.087C424.041 239.069 423.932 239.055 423.813 239.046C423.699 239.037 423.585 239.032 423.471 239.032C423.189 239.032 422.941 239.073 422.726 239.155C422.512 239.233 422.332 239.347 422.186 239.497C422.045 239.643 421.936 239.821 421.858 240.03C421.781 240.24 421.735 240.475 421.721 240.734L421.346 240.762C421.346 240.297 421.391 239.866 421.482 239.47C421.573 239.073 421.71 238.725 421.892 238.424C422.079 238.123 422.312 237.888 422.59 237.72C422.872 237.551 423.198 237.467 423.567 237.467C423.667 237.467 423.775 237.476 423.888 237.494C424.007 237.512 424.096 237.533 424.155 237.556ZM426.921 239.183V245H425.274V237.604H426.825L426.921 239.183ZM426.627 241.028L426.094 241.021C426.099 240.497 426.171 240.017 426.313 239.579C426.459 239.142 426.659 238.766 426.914 238.451C427.174 238.137 427.484 237.895 427.844 237.727C428.204 237.553 428.605 237.467 429.047 237.467C429.403 237.467 429.724 237.517 430.011 237.617C430.303 237.713 430.551 237.87 430.756 238.089C430.966 238.308 431.125 238.592 431.235 238.943C431.344 239.29 431.399 239.716 431.399 240.222V245H429.744V240.215C429.744 239.859 429.692 239.579 429.587 239.374C429.487 239.164 429.339 239.016 429.143 238.93C428.951 238.839 428.712 238.793 428.425 238.793C428.142 238.793 427.89 238.852 427.666 238.971C427.443 239.089 427.254 239.251 427.099 239.456C426.948 239.661 426.832 239.898 426.75 240.167C426.668 240.436 426.627 240.723 426.627 241.028ZM437.35 243.517V239.989C437.35 239.725 437.302 239.497 437.207 239.306C437.111 239.114 436.965 238.966 436.769 238.861C436.578 238.757 436.336 238.704 436.045 238.704C435.776 238.704 435.543 238.75 435.347 238.841C435.151 238.932 434.999 239.055 434.889 239.21C434.78 239.365 434.725 239.54 434.725 239.736H433.085C433.085 239.445 433.155 239.162 433.296 238.889C433.438 238.615 433.643 238.371 433.912 238.157C434.181 237.943 434.502 237.774 434.876 237.651C435.249 237.528 435.669 237.467 436.133 237.467C436.689 237.467 437.182 237.56 437.61 237.747C438.043 237.934 438.382 238.216 438.629 238.595C438.879 238.968 439.004 239.438 439.004 240.003V243.291C439.004 243.628 439.027 243.931 439.073 244.2C439.123 244.465 439.194 244.695 439.285 244.891V245H437.596C437.519 244.822 437.457 244.597 437.412 244.323C437.371 244.045 437.35 243.776 437.35 243.517ZM437.589 240.502L437.603 241.521H436.421C436.115 241.521 435.846 241.55 435.614 241.609C435.381 241.664 435.188 241.746 435.033 241.855C434.878 241.965 434.762 242.097 434.684 242.252C434.607 242.407 434.568 242.582 434.568 242.778C434.568 242.974 434.614 243.154 434.705 243.318C434.796 243.478 434.928 243.603 435.101 243.694C435.279 243.785 435.493 243.831 435.744 243.831C436.081 243.831 436.375 243.763 436.626 243.626C436.881 243.485 437.081 243.314 437.227 243.113C437.373 242.908 437.45 242.715 437.46 242.532L437.993 243.264C437.938 243.451 437.845 243.651 437.713 243.865C437.58 244.079 437.407 244.285 437.193 244.48C436.983 244.672 436.73 244.829 436.434 244.952C436.143 245.075 435.805 245.137 435.422 245.137C434.939 245.137 434.509 245.041 434.13 244.85C433.752 244.654 433.456 244.392 433.242 244.063C433.028 243.731 432.921 243.355 432.921 242.936C432.921 242.544 432.993 242.197 433.139 241.896C433.29 241.591 433.508 241.336 433.796 241.131C434.087 240.926 434.443 240.771 434.862 240.666C435.281 240.557 435.76 240.502 436.297 240.502H437.589ZM442.475 239.107V245H440.827V237.604H442.379L442.475 239.107ZM442.208 241.028L441.647 241.021C441.647 240.511 441.711 240.039 441.839 239.606C441.966 239.174 442.153 238.798 442.399 238.479C442.646 238.155 442.951 237.907 443.315 237.733C443.685 237.556 444.111 237.467 444.594 237.467C444.931 237.467 445.239 237.517 445.517 237.617C445.799 237.713 446.043 237.866 446.248 238.075C446.458 238.285 446.617 238.554 446.727 238.882C446.84 239.21 446.897 239.606 446.897 240.071V245H445.25V240.215C445.25 239.855 445.195 239.572 445.086 239.367C444.981 239.162 444.828 239.016 444.628 238.93C444.432 238.839 444.197 238.793 443.924 238.793C443.614 238.793 443.35 238.852 443.131 238.971C442.917 239.089 442.741 239.251 442.604 239.456C442.468 239.661 442.368 239.898 442.304 240.167C442.24 240.436 442.208 240.723 442.208 241.028ZM446.795 240.591L446.022 240.762C446.022 240.315 446.084 239.894 446.207 239.497C446.335 239.096 446.519 238.745 446.761 238.444C447.007 238.139 447.31 237.9 447.67 237.727C448.03 237.553 448.442 237.467 448.907 237.467C449.285 237.467 449.623 237.519 449.919 237.624C450.22 237.724 450.475 237.884 450.685 238.103C450.894 238.321 451.054 238.606 451.163 238.957C451.272 239.303 451.327 239.723 451.327 240.215V245H449.673V240.208C449.673 239.834 449.618 239.545 449.509 239.34C449.404 239.135 449.254 238.993 449.058 238.916C448.862 238.834 448.627 238.793 448.354 238.793C448.098 238.793 447.873 238.841 447.677 238.937C447.485 239.028 447.324 239.158 447.191 239.326C447.059 239.49 446.959 239.679 446.891 239.894C446.827 240.108 446.795 240.34 446.795 240.591ZM456.383 245.137C455.836 245.137 455.342 245.048 454.9 244.87C454.462 244.688 454.089 244.435 453.779 244.111C453.473 243.788 453.239 243.407 453.075 242.97C452.911 242.532 452.829 242.061 452.829 241.555V241.281C452.829 240.702 452.913 240.178 453.081 239.709C453.25 239.24 453.485 238.839 453.786 238.506C454.086 238.169 454.442 237.911 454.852 237.733C455.262 237.556 455.706 237.467 456.185 237.467C456.714 237.467 457.176 237.556 457.573 237.733C457.969 237.911 458.297 238.162 458.557 238.485C458.821 238.804 459.017 239.185 459.145 239.627C459.277 240.069 459.343 240.557 459.343 241.09V241.794H453.628V240.611H457.716V240.481C457.707 240.185 457.648 239.907 457.538 239.647C457.434 239.388 457.272 239.178 457.053 239.019C456.834 238.859 456.543 238.779 456.178 238.779C455.905 238.779 455.661 238.839 455.447 238.957C455.237 239.071 455.062 239.237 454.92 239.456C454.779 239.675 454.67 239.939 454.592 240.249C454.519 240.554 454.483 240.898 454.483 241.281V241.555C454.483 241.878 454.526 242.179 454.613 242.457C454.704 242.73 454.836 242.97 455.009 243.175C455.182 243.38 455.392 243.542 455.638 243.66C455.884 243.774 456.164 243.831 456.479 243.831C456.875 243.831 457.229 243.751 457.538 243.592C457.848 243.432 458.117 243.207 458.345 242.915L459.213 243.756C459.054 243.988 458.846 244.212 458.591 244.426C458.336 244.635 458.024 244.806 457.655 244.938C457.29 245.071 456.866 245.137 456.383 245.137Z" fill="#FEF7FF"/>
</g>
<rect x="384.5" y="224.5" width="86" height="31" rx="7.5" stroke="#CAC4D0"/>
<path d="M375.926 321.047V331H374.21V321.047H375.926ZM379.987 325.401V326.762H375.488V325.401H379.987ZM380.554 321.047V322.414H375.488V321.047H380.554ZM381.392 327.384V327.227C381.392 326.693 381.47 326.199 381.625 325.743C381.78 325.283 382.003 324.884 382.295 324.547C382.591 324.205 382.951 323.941 383.375 323.754C383.803 323.562 384.286 323.467 384.824 323.467C385.366 323.467 385.849 323.562 386.273 323.754C386.701 323.941 387.064 324.205 387.36 324.547C387.656 324.884 387.882 325.283 388.037 325.743C388.192 326.199 388.269 326.693 388.269 327.227V327.384C388.269 327.917 388.192 328.411 388.037 328.867C387.882 329.323 387.656 329.722 387.36 330.063C387.064 330.401 386.704 330.665 386.28 330.856C385.856 331.043 385.375 331.137 384.837 331.137C384.295 331.137 383.81 331.043 383.381 330.856C382.958 330.665 382.598 330.401 382.301 330.063C382.005 329.722 381.78 329.323 381.625 328.867C381.47 328.411 381.392 327.917 381.392 327.384ZM383.04 327.227V327.384C383.04 327.716 383.074 328.031 383.142 328.327C383.211 328.623 383.318 328.883 383.463 329.106C383.609 329.33 383.796 329.505 384.024 329.633C384.252 329.76 384.523 329.824 384.837 329.824C385.143 329.824 385.407 329.76 385.63 329.633C385.858 329.505 386.045 329.33 386.191 329.106C386.337 328.883 386.444 328.623 386.512 328.327C386.585 328.031 386.622 327.716 386.622 327.384V327.227C386.622 326.898 386.585 326.589 386.512 326.297C386.444 326.001 386.335 325.739 386.184 325.511C386.038 325.283 385.851 325.105 385.624 324.978C385.4 324.845 385.134 324.779 384.824 324.779C384.514 324.779 384.245 324.845 384.017 324.978C383.794 325.105 383.609 325.283 383.463 325.511C383.318 325.739 383.211 326.001 383.142 326.297C383.074 326.589 383.04 326.898 383.04 327.227ZM391.404 325.012V331H389.757V323.604H391.329L391.404 325.012ZM393.667 323.556L393.653 325.087C393.553 325.069 393.444 325.055 393.325 325.046C393.211 325.037 393.097 325.032 392.983 325.032C392.701 325.032 392.452 325.073 392.238 325.155C392.024 325.233 391.844 325.347 391.698 325.497C391.557 325.643 391.448 325.821 391.37 326.03C391.293 326.24 391.247 326.475 391.233 326.734L390.857 326.762C390.857 326.297 390.903 325.866 390.994 325.47C391.085 325.073 391.222 324.725 391.404 324.424C391.591 324.123 391.824 323.888 392.102 323.72C392.384 323.551 392.71 323.467 393.079 323.467C393.179 323.467 393.286 323.476 393.4 323.494C393.519 323.512 393.608 323.533 393.667 323.556ZM399.4 323.604H400.897V330.795C400.897 331.46 400.756 332.025 400.473 332.49C400.19 332.955 399.796 333.308 399.29 333.55C398.785 333.796 398.199 333.919 397.534 333.919C397.251 333.919 396.937 333.878 396.59 333.796C396.248 333.714 395.916 333.582 395.592 333.399C395.273 333.222 395.007 332.987 394.792 332.695L395.565 331.725C395.829 332.039 396.121 332.269 396.44 332.415C396.759 332.561 397.094 332.634 397.445 332.634C397.823 332.634 398.144 332.563 398.409 332.422C398.677 332.285 398.885 332.082 399.031 331.813C399.176 331.545 399.249 331.216 399.249 330.829V325.278L399.4 323.604ZM394.375 327.384V327.24C394.375 326.68 394.444 326.169 394.58 325.709C394.717 325.244 394.913 324.845 395.168 324.513C395.424 324.175 395.733 323.918 396.098 323.74C396.463 323.558 396.875 323.467 397.335 323.467C397.814 323.467 398.222 323.553 398.559 323.727C398.901 323.9 399.186 324.148 399.413 324.472C399.641 324.791 399.819 325.174 399.947 325.62C400.079 326.062 400.177 326.554 400.241 327.097V327.555C400.181 328.083 400.081 328.566 399.94 329.004C399.799 329.441 399.612 329.82 399.379 330.139C399.147 330.458 398.86 330.704 398.518 330.877C398.181 331.05 397.782 331.137 397.322 331.137C396.871 331.137 396.463 331.043 396.098 330.856C395.738 330.67 395.428 330.408 395.168 330.07C394.913 329.733 394.717 329.337 394.58 328.881C394.444 328.421 394.375 327.922 394.375 327.384ZM396.023 327.24V327.384C396.023 327.721 396.055 328.035 396.119 328.327C396.187 328.619 396.289 328.876 396.426 329.1C396.567 329.318 396.745 329.492 396.959 329.619C397.178 329.742 397.436 329.804 397.732 329.804C398.119 329.804 398.436 329.722 398.682 329.558C398.933 329.394 399.124 329.173 399.256 328.895C399.393 328.612 399.489 328.298 399.543 327.951V326.714C399.516 326.445 399.459 326.194 399.372 325.962C399.29 325.729 399.179 325.527 399.037 325.354C398.896 325.176 398.718 325.039 398.504 324.943C398.29 324.843 398.037 324.793 397.746 324.793C397.449 324.793 397.192 324.857 396.973 324.984C396.754 325.112 396.574 325.287 396.433 325.511C396.296 325.734 396.194 325.994 396.125 326.29C396.057 326.586 396.023 326.903 396.023 327.24ZM402.391 327.384V327.227C402.391 326.693 402.469 326.199 402.624 325.743C402.779 325.283 403.002 324.884 403.294 324.547C403.59 324.205 403.95 323.941 404.374 323.754C404.802 323.562 405.285 323.467 405.823 323.467C406.365 323.467 406.848 323.562 407.272 323.754C407.701 323.941 408.063 324.205 408.359 324.547C408.655 324.884 408.881 325.283 409.036 325.743C409.191 326.199 409.268 326.693 409.268 327.227V327.384C409.268 327.917 409.191 328.411 409.036 328.867C408.881 329.323 408.655 329.722 408.359 330.063C408.063 330.401 407.703 330.665 407.279 330.856C406.855 331.043 406.374 331.137 405.837 331.137C405.294 331.137 404.809 331.043 404.381 330.856C403.957 330.665 403.597 330.401 403.301 330.063C403.004 329.722 402.779 329.323 402.624 328.867C402.469 328.411 402.391 327.917 402.391 327.384ZM404.039 327.227V327.384C404.039 327.716 404.073 328.031 404.141 328.327C404.21 328.623 404.317 328.883 404.463 329.106C404.609 329.33 404.795 329.505 405.023 329.633C405.251 329.76 405.522 329.824 405.837 329.824C406.142 329.824 406.406 329.76 406.63 329.633C406.858 329.505 407.044 329.33 407.19 329.106C407.336 328.883 407.443 328.623 407.512 328.327C407.584 328.031 407.621 327.716 407.621 327.384V327.227C407.621 326.898 407.584 326.589 407.512 326.297C407.443 326.001 407.334 325.739 407.183 325.511C407.038 325.283 406.851 325.105 406.623 324.978C406.4 324.845 406.133 324.779 405.823 324.779C405.513 324.779 405.244 324.845 405.016 324.978C404.793 325.105 404.609 325.283 404.463 325.511C404.317 325.739 404.21 326.001 404.141 326.297C404.073 326.589 404.039 326.898 404.039 327.227ZM414.14 323.604V324.807H409.97V323.604H414.14ZM411.173 321.792H412.821V328.956C412.821 329.184 412.852 329.359 412.916 329.482C412.985 329.601 413.078 329.681 413.196 329.722C413.315 329.763 413.454 329.783 413.613 329.783C413.727 329.783 413.837 329.776 413.942 329.763C414.046 329.749 414.131 329.735 414.195 329.722L414.201 330.979C414.065 331.021 413.905 331.057 413.723 331.089C413.545 331.121 413.34 331.137 413.108 331.137C412.729 331.137 412.394 331.071 412.103 330.938C411.811 330.802 411.583 330.581 411.419 330.275C411.255 329.97 411.173 329.564 411.173 329.059V321.792ZM423.042 327.288H420.451V325.928H423.042C423.493 325.928 423.858 325.855 424.136 325.709C424.414 325.563 424.617 325.363 424.744 325.107C424.876 324.848 424.942 324.551 424.942 324.219C424.942 323.904 424.876 323.61 424.744 323.337C424.617 323.059 424.414 322.836 424.136 322.667C423.858 322.498 423.493 322.414 423.042 322.414H420.978V331H419.262V321.047H423.042C423.812 321.047 424.466 321.184 425.004 321.457C425.546 321.726 425.959 322.1 426.241 322.578C426.524 323.052 426.665 323.594 426.665 324.205C426.665 324.848 426.524 325.399 426.241 325.859C425.959 326.32 425.546 326.673 425.004 326.919C424.466 327.165 423.812 327.288 423.042 327.288ZM432.227 329.517V325.989C432.227 325.725 432.179 325.497 432.083 325.306C431.988 325.114 431.842 324.966 431.646 324.861C431.454 324.757 431.213 324.704 430.921 324.704C430.652 324.704 430.42 324.75 430.224 324.841C430.028 324.932 429.875 325.055 429.766 325.21C429.657 325.365 429.602 325.54 429.602 325.736H427.961C427.961 325.445 428.032 325.162 428.173 324.889C428.315 324.615 428.52 324.371 428.788 324.157C429.057 323.943 429.379 323.774 429.752 323.651C430.126 323.528 430.545 323.467 431.01 323.467C431.566 323.467 432.058 323.56 432.487 323.747C432.92 323.934 433.259 324.216 433.505 324.595C433.756 324.968 433.881 325.438 433.881 326.003V329.291C433.881 329.628 433.904 329.931 433.95 330.2C434 330.465 434.07 330.695 434.162 330.891V331H432.473C432.396 330.822 432.334 330.597 432.288 330.323C432.247 330.045 432.227 329.776 432.227 329.517ZM432.466 326.502L432.48 327.521H431.297C430.992 327.521 430.723 327.55 430.491 327.609C430.258 327.664 430.065 327.746 429.91 327.855C429.755 327.965 429.638 328.097 429.561 328.252C429.483 328.407 429.445 328.582 429.445 328.778C429.445 328.974 429.49 329.154 429.581 329.318C429.673 329.478 429.805 329.603 429.978 329.694C430.156 329.785 430.37 329.831 430.621 329.831C430.958 329.831 431.252 329.763 431.502 329.626C431.758 329.485 431.958 329.314 432.104 329.113C432.25 328.908 432.327 328.715 432.336 328.532L432.87 329.264C432.815 329.451 432.721 329.651 432.589 329.865C432.457 330.079 432.284 330.285 432.07 330.48C431.86 330.672 431.607 330.829 431.311 330.952C431.019 331.075 430.682 331.137 430.299 331.137C429.816 331.137 429.385 331.041 429.007 330.85C428.629 330.654 428.333 330.392 428.119 330.063C427.904 329.731 427.797 329.355 427.797 328.936C427.797 328.544 427.87 328.197 428.016 327.896C428.166 327.591 428.385 327.336 428.672 327.131C428.964 326.926 429.319 326.771 429.739 326.666C430.158 326.557 430.636 326.502 431.174 326.502H432.466ZM439.853 328.997C439.853 328.833 439.812 328.685 439.73 328.553C439.648 328.416 439.491 328.293 439.259 328.184C439.031 328.074 438.693 327.974 438.247 327.883C437.855 327.796 437.495 327.694 437.167 327.575C436.843 327.452 436.565 327.304 436.333 327.131C436.1 326.958 435.92 326.753 435.793 326.516C435.665 326.279 435.601 326.005 435.601 325.695C435.601 325.395 435.667 325.11 435.8 324.841C435.932 324.572 436.121 324.335 436.367 324.13C436.613 323.925 436.912 323.763 437.262 323.645C437.618 323.526 438.014 323.467 438.452 323.467C439.072 323.467 439.603 323.572 440.045 323.781C440.491 323.986 440.833 324.267 441.07 324.622C441.307 324.973 441.426 325.369 441.426 325.812H439.778C439.778 325.616 439.728 325.433 439.628 325.265C439.532 325.091 439.386 324.952 439.19 324.848C438.994 324.738 438.748 324.684 438.452 324.684C438.169 324.684 437.935 324.729 437.748 324.82C437.566 324.907 437.429 325.021 437.338 325.162C437.251 325.303 437.208 325.458 437.208 325.627C437.208 325.75 437.231 325.862 437.276 325.962C437.326 326.058 437.408 326.146 437.522 326.229C437.636 326.306 437.791 326.379 437.987 326.447C438.188 326.516 438.438 326.582 438.739 326.646C439.304 326.764 439.79 326.917 440.195 327.104C440.605 327.286 440.92 327.523 441.138 327.814C441.357 328.102 441.467 328.466 441.467 328.908C441.467 329.236 441.396 329.537 441.255 329.811C441.118 330.079 440.917 330.314 440.653 330.515C440.389 330.711 440.072 330.863 439.703 330.973C439.338 331.082 438.928 331.137 438.472 331.137C437.803 331.137 437.235 331.018 436.77 330.781C436.305 330.54 435.952 330.232 435.711 329.858C435.474 329.48 435.355 329.088 435.355 328.683H436.948C436.966 328.988 437.051 329.232 437.201 329.414C437.356 329.592 437.547 329.722 437.775 329.804C438.008 329.881 438.247 329.92 438.493 329.92C438.789 329.92 439.038 329.881 439.238 329.804C439.439 329.722 439.591 329.612 439.696 329.476C439.801 329.334 439.853 329.175 439.853 328.997ZM447.158 328.997C447.158 328.833 447.117 328.685 447.035 328.553C446.953 328.416 446.796 328.293 446.564 328.184C446.336 328.074 445.999 327.974 445.552 327.883C445.16 327.796 444.8 327.694 444.472 327.575C444.148 327.452 443.87 327.304 443.638 327.131C443.405 326.958 443.225 326.753 443.098 326.516C442.97 326.279 442.906 326.005 442.906 325.695C442.906 325.395 442.973 325.11 443.105 324.841C443.237 324.572 443.426 324.335 443.672 324.13C443.918 323.925 444.217 323.763 444.568 323.645C444.923 323.526 445.32 323.467 445.757 323.467C446.377 323.467 446.908 323.572 447.35 323.781C447.796 323.986 448.138 324.267 448.375 324.622C448.612 324.973 448.731 325.369 448.731 325.812H447.083C447.083 325.616 447.033 325.433 446.933 325.265C446.837 325.091 446.691 324.952 446.495 324.848C446.299 324.738 446.053 324.684 445.757 324.684C445.474 324.684 445.24 324.729 445.053 324.82C444.871 324.907 444.734 325.021 444.643 325.162C444.556 325.303 444.513 325.458 444.513 325.627C444.513 325.75 444.536 325.862 444.581 325.962C444.631 326.058 444.713 326.146 444.827 326.229C444.941 326.306 445.096 326.379 445.292 326.447C445.493 326.516 445.743 326.582 446.044 326.646C446.609 326.764 447.095 326.917 447.5 327.104C447.91 327.286 448.225 327.523 448.444 327.814C448.662 328.102 448.772 328.466 448.772 328.908C448.772 329.236 448.701 329.537 448.56 329.811C448.423 330.079 448.223 330.314 447.958 330.515C447.694 330.711 447.377 330.863 447.008 330.973C446.643 331.082 446.233 331.137 445.778 331.137C445.108 331.137 444.54 331.018 444.075 330.781C443.611 330.54 443.257 330.232 443.016 329.858C442.779 329.48 442.66 329.088 442.66 328.683H444.253C444.271 328.988 444.356 329.232 444.506 329.414C444.661 329.592 444.852 329.722 445.08 329.804C445.313 329.881 445.552 329.92 445.798 329.92C446.094 329.92 446.343 329.881 446.543 329.804C446.744 329.722 446.896 329.612 447.001 329.476C447.106 329.334 447.158 329.175 447.158 328.997ZM452.324 329.359L454.033 323.604H455.086L454.798 325.326L453.076 331H452.132L452.324 329.359ZM451.319 323.604L452.652 329.387L452.761 331H451.709L449.706 323.604H451.319ZM456.685 329.318L457.977 323.604H459.584L457.587 331H456.535L456.685 329.318ZM455.263 323.604L456.952 329.291L457.164 331H456.22L454.477 325.319L454.19 323.604H455.263ZM460.49 327.384V327.227C460.49 326.693 460.568 326.199 460.723 325.743C460.878 325.283 461.101 324.884 461.393 324.547C461.689 324.205 462.049 323.941 462.473 323.754C462.901 323.562 463.384 323.467 463.922 323.467C464.464 323.467 464.947 323.562 465.371 323.754C465.799 323.941 466.162 324.205 466.458 324.547C466.754 324.884 466.98 325.283 467.135 325.743C467.29 326.199 467.367 326.693 467.367 327.227V327.384C467.367 327.917 467.29 328.411 467.135 328.867C466.98 329.323 466.754 329.722 466.458 330.063C466.162 330.401 465.802 330.665 465.378 330.856C464.954 331.043 464.473 331.137 463.936 331.137C463.393 331.137 462.908 331.043 462.479 330.856C462.056 330.665 461.696 330.401 461.399 330.063C461.103 329.722 460.878 329.323 460.723 328.867C460.568 328.411 460.49 327.917 460.49 327.384ZM462.138 327.227V327.384C462.138 327.716 462.172 328.031 462.24 328.327C462.309 328.623 462.416 328.883 462.562 329.106C462.707 329.33 462.894 329.505 463.122 329.633C463.35 329.76 463.621 329.824 463.936 329.824C464.241 329.824 464.505 329.76 464.729 329.633C464.956 329.505 465.143 329.33 465.289 329.106C465.435 328.883 465.542 328.623 465.61 328.327C465.683 328.031 465.72 327.716 465.72 327.384V327.227C465.72 326.898 465.683 326.589 465.61 326.297C465.542 326.001 465.433 325.739 465.282 325.511C465.136 325.283 464.95 325.105 464.722 324.978C464.498 324.845 464.232 324.779 463.922 324.779C463.612 324.779 463.343 324.845 463.115 324.978C462.892 325.105 462.707 325.283 462.562 325.511C462.416 325.739 462.309 326.001 462.24 326.297C462.172 326.589 462.138 326.898 462.138 327.227ZM470.502 325.012V331H468.855V323.604H470.427L470.502 325.012ZM472.765 323.556L472.751 325.087C472.651 325.069 472.542 325.055 472.423 325.046C472.309 325.037 472.195 325.032 472.081 325.032C471.799 325.032 471.551 325.073 471.336 325.155C471.122 325.233 470.942 325.347 470.796 325.497C470.655 325.643 470.546 325.821 470.468 326.03C470.391 326.24 470.345 326.475 470.331 326.734L469.955 326.762C469.955 326.297 470.001 325.866 470.092 325.47C470.183 325.073 470.32 324.725 470.502 324.424C470.689 324.123 470.922 323.888 471.2 323.72C471.482 323.551 471.808 323.467 472.177 323.467C472.277 323.467 472.385 323.476 472.498 323.494C472.617 323.512 472.706 323.533 472.765 323.556ZM478.272 329.469V320.5H479.927V331H478.429L478.272 329.469ZM473.46 327.384V327.24C473.46 326.68 473.526 326.169 473.658 325.709C473.79 325.244 473.982 324.845 474.232 324.513C474.483 324.175 474.788 323.918 475.148 323.74C475.508 323.558 475.914 323.467 476.365 323.467C476.812 323.467 477.204 323.553 477.541 323.727C477.878 323.9 478.165 324.148 478.402 324.472C478.639 324.791 478.828 325.174 478.97 325.62C479.111 326.062 479.211 326.554 479.27 327.097V327.555C479.211 328.083 479.111 328.566 478.97 329.004C478.828 329.441 478.639 329.82 478.402 330.139C478.165 330.458 477.876 330.704 477.534 330.877C477.197 331.05 476.803 331.137 476.351 331.137C475.905 331.137 475.501 331.043 475.141 330.856C474.786 330.67 474.483 330.408 474.232 330.07C473.982 329.733 473.79 329.337 473.658 328.881C473.526 328.421 473.46 327.922 473.46 327.384ZM475.107 327.24V327.384C475.107 327.721 475.137 328.035 475.196 328.327C475.26 328.619 475.358 328.876 475.49 329.1C475.622 329.318 475.793 329.492 476.003 329.619C476.217 329.742 476.472 329.804 476.768 329.804C477.142 329.804 477.45 329.722 477.691 329.558C477.933 329.394 478.122 329.173 478.259 328.895C478.4 328.612 478.496 328.298 478.546 327.951V326.714C478.518 326.445 478.461 326.194 478.375 325.962C478.293 325.729 478.181 325.527 478.04 325.354C477.899 325.176 477.723 325.039 477.513 324.943C477.308 324.843 477.065 324.793 476.782 324.793C476.481 324.793 476.226 324.857 476.016 324.984C475.807 325.112 475.634 325.287 475.497 325.511C475.365 325.734 475.267 325.994 475.203 326.29C475.139 326.586 475.107 326.903 475.107 327.24Z" fill="white"/>
<defs>
<clipPath id="clip0_4_50">
<rect x="382" y="270" width="87" height="32" rx="8" fill="white"/>
</clipPath>
<clipPath id="clip1_4_50">
<rect x="384" y="224" width="87" height="32" rx="8" fill="white"/>
</clipPath>
</defs>
</svg>
